<svg width="1500" height="500" viewBox="0 0 1500 500" fill="none" xmlns="http://www.w3.org/2000/svg">
<g clip-path="url(#clip0_411_36)">
<rect width="1500" height="500" fill="white"/>
<rect y="-2" width="1500" height="500" rx="30" fill="#AD00FF" fill-opacity="0.25"/>
<path d="M115.172 248L103.372 213H107.172L118.222 245.95H116.322L127.722 213H131.122L142.372 245.95H140.572L151.722 213H155.272L143.472 248H139.572L128.822 216.75H129.822L119.022 248H115.172ZM170.454 248.25C167.721 248.25 165.321 247.683 163.254 246.55C161.188 245.383 159.571 243.8 158.404 241.8C157.238 239.767 156.654 237.45 156.654 234.85C156.654 232.25 157.204 229.95 158.304 227.95C159.438 225.95 160.971 224.383 162.904 223.25C164.871 222.083 167.071 221.5 169.504 221.5C171.971 221.5 174.154 222.067 176.054 223.2C177.988 224.3 179.504 225.867 180.604 227.9C181.704 229.9 182.254 232.217 182.254 234.85C182.254 235.017 182.238 235.2 182.204 235.4C182.204 235.567 182.204 235.75 182.204 235.95H159.354V233.3H180.304L178.904 234.35C178.904 232.45 178.488 230.767 177.654 229.3C176.854 227.8 175.754 226.633 174.354 225.8C172.954 224.967 171.338 224.55 169.504 224.55C167.704 224.55 166.088 224.967 164.654 225.8C163.221 226.633 162.104 227.8 161.304 229.3C160.504 230.8 160.104 232.517 160.104 234.45V235C160.104 237 160.538 238.767 161.404 240.3C162.304 241.8 163.538 242.983 165.104 243.85C166.704 244.683 168.521 245.1 170.554 245.1C172.154 245.1 173.638 244.817 175.004 244.25C176.404 243.683 177.604 242.817 178.604 241.65L180.604 243.95C179.438 245.35 177.971 246.417 176.204 247.15C174.471 247.883 172.554 248.25 170.454 248.25ZM213.466 248.25C210.866 248.25 208.533 247.683 206.466 246.55C204.433 245.383 202.833 243.8 201.666 241.8C200.5 239.767 199.916 237.45 199.916 234.85C199.916 232.217 200.5 229.9 201.666 227.9C202.833 225.9 204.433 224.333 206.466 223.2C208.533 222.067 210.866 221.5 213.466 221.5C215.7 221.5 217.716 221.933 219.516 222.8C221.316 223.667 222.733 224.967 223.766 226.7L221.116 228.5C220.216 227.167 219.1 226.183 217.766 225.55C216.433 224.917 214.983 224.6 213.416 224.6C211.55 224.6 209.866 225.033 208.366 225.9C206.866 226.733 205.683 227.917 204.816 229.45C203.95 230.983 203.516 232.783 203.516 234.85C203.516 236.917 203.95 238.717 204.816 240.25C205.683 241.783 206.866 242.983 208.366 243.85C209.866 244.683 211.55 245.1 213.416 245.1C214.983 245.1 216.433 244.783 217.766 244.15C219.1 243.517 220.216 242.55 221.116 241.25L223.766 243.05C222.733 244.75 221.316 246.05 219.516 246.95C217.716 247.817 215.7 248.25 213.466 248.25ZM247.19 248V242.2L247.04 241.25V231.55C247.04 229.317 246.407 227.6 245.14 226.4C243.907 225.2 242.057 224.6 239.59 224.6C237.89 224.6 236.273 224.883 234.74 225.45C233.207 226.017 231.907 226.767 230.84 227.7L229.24 225.05C230.573 223.917 232.173 223.05 234.04 222.45C235.907 221.817 237.873 221.5 239.94 221.5C243.34 221.5 245.957 222.35 247.79 224.05C249.657 225.717 250.59 228.267 250.59 231.7V248H247.19ZM238.14 248.25C236.173 248.25 234.457 247.933 232.99 247.3C231.557 246.633 230.457 245.733 229.69 244.6C228.923 243.433 228.54 242.1 228.54 240.6C228.54 239.233 228.857 238 229.49 236.9C230.157 235.767 231.223 234.867 232.69 234.2C234.19 233.5 236.19 233.15 238.69 233.15H247.74V235.8H238.79C236.257 235.8 234.49 236.25 233.49 237.15C232.523 238.05 232.04 239.167 232.04 240.5C232.04 242 232.623 243.2 233.79 244.1C234.957 245 236.59 245.45 238.69 245.45C240.69 245.45 242.407 245 243.84 244.1C245.307 243.167 246.373 241.833 247.04 240.1L247.84 242.55C247.173 244.283 246.007 245.667 244.34 246.7C242.707 247.733 240.64 248.25 238.14 248.25ZM273.632 221.5C275.766 221.5 277.632 221.917 279.232 222.75C280.866 223.55 282.132 224.783 283.032 226.45C283.966 228.117 284.432 230.217 284.432 232.75V248H280.882V233.1C280.882 230.333 280.182 228.25 278.782 226.85C277.416 225.417 275.482 224.7 272.982 224.7C271.116 224.7 269.482 225.083 268.082 225.85C266.716 226.583 265.649 227.667 264.882 229.1C264.149 230.5 263.782 232.2 263.782 234.2V248H260.232V221.75H263.632V228.95L263.082 227.6C263.916 225.7 265.249 224.217 267.082 223.15C268.916 222.05 271.099 221.5 273.632 221.5ZM320.507 221.5C322.641 221.5 324.507 221.917 326.107 222.75C327.741 223.55 329.007 224.783 329.907 226.45C330.841 228.117 331.307 230.217 331.307 232.75V248H327.757V233.1C327.757 230.333 327.057 228.25 325.657 226.85C324.291 225.417 322.357 224.7 319.857 224.7C317.991 224.7 316.357 225.083 314.957 225.85C313.591 226.583 312.524 227.667 311.757 229.1C311.024 230.5 310.657 232.2 310.657 234.2V248H307.107V210.9H310.657V228.95L309.957 227.6C310.791 225.7 312.124 224.217 313.957 223.15C315.791 222.05 317.974 221.5 320.507 221.5ZM352.046 248.25C349.313 248.25 346.913 247.683 344.846 246.55C342.78 245.383 341.163 243.8 339.996 241.8C338.83 239.767 338.246 237.45 338.246 234.85C338.246 232.25 338.796 229.95 339.896 227.95C341.03 225.95 342.563 224.383 344.496 223.25C346.463 222.083 348.663 221.5 351.096 221.5C353.563 221.5 355.746 222.067 357.646 223.2C359.58 224.3 361.096 225.867 362.196 227.9C363.296 229.9 363.846 232.217 363.846 234.85C363.846 235.017 363.83 235.2 363.796 235.4C363.796 235.567 363.796 235.75 363.796 235.95H340.946V233.3H361.896L360.496 234.35C360.496 232.45 360.08 230.767 359.246 229.3C358.446 227.8 357.346 226.633 355.946 225.8C354.546 224.967 352.93 224.55 351.096 224.55C349.296 224.55 347.68 224.967 346.246 225.8C344.813 226.633 343.696 227.8 342.896 229.3C342.096 230.8 341.696 232.517 341.696 234.45V235C341.696 237 342.13 238.767 342.996 240.3C343.896 241.8 345.13 242.983 346.696 243.85C348.296 244.683 350.113 245.1 352.146 245.1C353.746 245.1 355.23 244.817 356.596 244.25C357.996 243.683 359.196 242.817 360.196 241.65L362.196 243.95C361.03 245.35 359.563 246.417 357.796 247.15C356.063 247.883 354.146 248.25 352.046 248.25ZM371.072 248V210.9H374.622V248H371.072ZM398.05 248.25C395.783 248.25 393.733 247.733 391.9 246.7C390.066 245.633 388.6 244.117 387.5 242.15C386.433 240.15 385.9 237.717 385.9 234.85C385.9 231.983 386.433 229.567 387.5 227.6C388.566 225.6 390.016 224.083 391.85 223.05C393.683 222.017 395.75 221.5 398.05 221.5C400.55 221.5 402.783 222.067 404.75 223.2C406.75 224.3 408.316 225.867 409.45 227.9C410.583 229.9 411.15 232.217 411.15 234.85C411.15 237.517 410.583 239.85 409.45 241.85C408.316 243.85 406.75 245.417 404.75 246.55C402.783 247.683 400.55 248.25 398.05 248.25ZM384.5 257.7V221.75H387.9V229.65L387.55 234.9L388.05 240.2V257.7H384.5ZM397.8 245.1C399.666 245.1 401.333 244.683 402.8 243.85C404.266 242.983 405.433 241.783 406.3 240.25C407.166 238.683 407.6 236.883 407.6 234.85C407.6 232.817 407.166 231.033 406.3 229.5C405.433 227.967 404.266 226.767 402.8 225.9C401.333 225.033 399.666 224.6 397.8 224.6C395.933 224.6 394.25 225.033 392.75 225.9C391.283 226.767 390.116 227.967 389.25 229.5C388.416 231.033 388 232.817 388 234.85C388 236.883 388.416 238.683 389.25 240.25C390.116 241.783 391.283 242.983 392.75 243.85C394.25 244.683 395.933 245.1 397.8 245.1ZM431.672 257.95C430.439 257.95 429.256 257.75 428.122 257.35C427.022 256.95 426.072 256.35 425.272 255.55L426.922 252.9C427.589 253.533 428.306 254.017 429.072 254.35C429.872 254.717 430.756 254.9 431.722 254.9C432.889 254.9 433.889 254.567 434.722 253.9C435.589 253.267 436.406 252.133 437.172 250.5L438.872 246.65L439.272 246.1L450.072 221.75H453.572L440.422 251.15C439.689 252.85 438.872 254.2 437.972 255.2C437.106 256.2 436.156 256.9 435.122 257.3C434.089 257.733 432.939 257.95 431.672 257.95ZM438.672 248.75L426.572 221.75H430.272L440.972 245.85L438.672 248.75ZM468.54 248.25C466.006 248.25 463.723 247.683 461.69 246.55C459.69 245.383 458.106 243.8 456.94 241.8C455.773 239.767 455.19 237.45 455.19 234.85C455.19 232.217 455.773 229.9 456.94 227.9C458.106 225.9 459.69 224.333 461.69 223.2C463.69 222.067 465.973 221.5 468.54 221.5C471.14 221.5 473.44 222.067 475.44 223.2C477.473 224.333 479.056 225.9 480.19 227.9C481.356 229.9 481.94 232.217 481.94 234.85C481.94 237.45 481.356 239.767 480.19 241.8C479.056 243.8 477.473 245.383 475.44 246.55C473.406 247.683 471.106 248.25 468.54 248.25ZM468.54 245.1C470.44 245.1 472.123 244.683 473.59 243.85C475.056 242.983 476.206 241.783 477.04 240.25C477.906 238.683 478.34 236.883 478.34 234.85C478.34 232.783 477.906 230.983 477.04 229.45C476.206 227.917 475.056 226.733 473.59 225.9C472.123 225.033 470.456 224.6 468.59 224.6C466.723 224.6 465.056 225.033 463.59 225.9C462.123 226.733 460.956 227.917 460.09 229.45C459.223 230.983 458.79 232.783 458.79 234.85C458.79 236.883 459.223 238.683 460.09 240.25C460.956 241.783 462.123 242.983 463.59 243.85C465.056 244.683 466.706 245.1 468.54 245.1ZM500.037 248.25C497.804 248.25 495.854 247.833 494.187 247C492.521 246.167 491.221 244.917 490.287 243.25C489.387 241.583 488.937 239.5 488.937 237V221.75H492.487V236.6C492.487 239.4 493.171 241.517 494.537 242.95C495.937 244.35 497.887 245.05 500.387 245.05C502.221 245.05 503.804 244.683 505.137 243.95C506.504 243.183 507.537 242.083 508.237 240.65C508.971 239.217 509.337 237.5 509.337 235.5V221.75H512.887V248H509.487V240.8L510.037 242.1C509.204 244.033 507.904 245.55 506.137 246.65C504.404 247.717 502.371 248.25 500.037 248.25ZM541.217 248L531.317 221.75H534.717L543.717 246.1H542.167L551.417 221.75H554.467L563.617 246.1H562.067L571.217 221.75H574.467L564.517 248H561.167L552.367 225.1H553.417L544.567 248H541.217ZM579.812 248V221.75H583.362V248H579.812ZM581.612 215.95C580.879 215.95 580.262 215.7 579.762 215.2C579.262 214.7 579.012 214.1 579.012 213.4C579.012 212.7 579.262 212.117 579.762 211.65C580.262 211.15 580.879 210.9 581.612 210.9C582.346 210.9 582.962 211.133 583.462 211.6C583.962 212.067 584.212 212.65 584.212 213.35C584.212 214.083 583.962 214.7 583.462 215.2C582.996 215.7 582.379 215.95 581.612 215.95ZM601.54 248.25C599.073 248.25 597.173 247.583 595.84 246.25C594.507 244.917 593.84 243.033 593.84 240.6V215.95H597.39V240.4C597.39 241.933 597.773 243.117 598.54 243.95C599.34 244.783 600.473 245.2 601.94 245.2C603.507 245.2 604.807 244.75 605.84 243.85L607.09 246.4C606.39 247.033 605.54 247.5 604.54 247.8C603.573 248.1 602.573 248.25 601.54 248.25ZM589.14 224.7V221.75H605.39V224.7H589.14ZM626.953 221.5C629.086 221.5 630.953 221.917 632.553 222.75C634.186 223.55 635.453 224.783 636.353 226.45C637.286 228.117 637.753 230.217 637.753 232.75V248H634.203V233.1C634.203 230.333 633.503 228.25 632.103 226.85C630.736 225.417 628.803 224.7 626.303 224.7C624.436 224.7 622.803 225.083 621.403 225.85C620.036 226.583 618.969 227.667 618.203 229.1C617.469 230.5 617.103 232.2 617.103 234.2V248H613.553V210.9H617.103V228.95L616.403 227.6C617.236 225.7 618.569 224.217 620.403 223.15C622.236 222.05 624.419 221.5 626.953 221.5ZM233.992 318.95C232.758 318.95 231.575 318.75 230.442 318.35C229.342 317.95 228.392 317.35 227.592 316.55L229.242 313.9C229.908 314.533 230.625 315.017 231.392 315.35C232.192 315.717 233.075 315.9 234.042 315.9C235.208 315.9 236.208 315.567 237.042 314.9C237.908 314.267 238.725 313.133 239.492 311.5L241.192 307.65L241.592 307.1L252.392 282.75H255.892L242.742 312.15C242.008 313.85 241.192 315.2 240.292 316.2C239.425 317.2 238.475 317.9 237.442 318.3C236.408 318.733 235.258 318.95 233.992 318.95ZM240.992 309.75L228.892 282.75H232.592L243.292 306.85L240.992 309.75ZM270.859 309.25C268.326 309.25 266.042 308.683 264.009 307.55C262.009 306.383 260.426 304.8 259.259 302.8C258.092 300.767 257.509 298.45 257.509 295.85C257.509 293.217 258.092 290.9 259.259 288.9C260.426 286.9 262.009 285.333 264.009 284.2C266.009 283.067 268.292 282.5 270.859 282.5C273.459 282.5 275.759 283.067 277.759 284.2C279.792 285.333 281.376 286.9 282.509 288.9C283.676 290.9 284.259 293.217 284.259 295.85C284.259 298.45 283.676 300.767 282.509 302.8C281.376 304.8 279.792 306.383 277.759 307.55C275.726 308.683 273.426 309.25 270.859 309.25ZM270.859 306.1C272.759 306.1 274.442 305.683 275.909 304.85C277.376 303.983 278.526 302.783 279.359 301.25C280.226 299.683 280.659 297.883 280.659 295.85C280.659 293.783 280.226 291.983 279.359 290.45C278.526 288.917 277.376 287.733 275.909 286.9C274.442 286.033 272.776 285.6 270.909 285.6C269.042 285.6 267.376 286.033 265.909 286.9C264.442 287.733 263.276 288.917 262.409 290.45C261.542 291.983 261.109 293.783 261.109 295.85C261.109 297.883 261.542 299.683 262.409 301.25C263.276 302.783 264.442 303.983 265.909 304.85C267.376 305.683 269.026 306.1 270.859 306.1ZM302.357 309.25C300.123 309.25 298.173 308.833 296.507 308C294.84 307.167 293.54 305.917 292.607 304.25C291.707 302.583 291.257 300.5 291.257 298V282.75H294.807V297.6C294.807 300.4 295.49 302.517 296.857 303.95C298.257 305.35 300.207 306.05 302.707 306.05C304.54 306.05 306.123 305.683 307.457 304.95C308.823 304.183 309.857 303.083 310.557 301.65C311.29 300.217 311.657 298.5 311.657 296.5V282.75H315.207V309H311.807V301.8L312.357 303.1C311.523 305.033 310.223 306.55 308.457 307.65C306.723 308.717 304.69 309.25 302.357 309.25ZM325.1 309V282.75H328.5V289.9L328.15 288.65C328.884 286.65 330.117 285.133 331.85 284.1C333.584 283.033 335.734 282.5 338.3 282.5V285.95C338.167 285.95 338.034 285.95 337.9 285.95C337.767 285.917 337.634 285.9 337.5 285.9C334.734 285.9 332.567 286.75 331 288.45C329.434 290.117 328.65 292.5 328.65 295.6V309H325.1ZM369.155 309.25C366.555 309.25 364.221 308.683 362.155 307.55C360.121 306.383 358.521 304.8 357.355 302.8C356.188 300.767 355.605 298.45 355.605 295.85C355.605 293.217 356.188 290.9 357.355 288.9C358.521 286.9 360.121 285.333 362.155 284.2C364.221 283.067 366.555 282.5 369.155 282.5C371.388 282.5 373.405 282.933 375.205 283.8C377.005 284.667 378.421 285.967 379.455 287.7L376.805 289.5C375.905 288.167 374.788 287.183 373.455 286.55C372.121 285.917 370.671 285.6 369.105 285.6C367.238 285.6 365.555 286.033 364.055 286.9C362.555 287.733 361.371 288.917 360.505 290.45C359.638 291.983 359.205 293.783 359.205 295.85C359.205 297.917 359.638 299.717 360.505 301.25C361.371 302.783 362.555 303.983 364.055 304.85C365.555 305.683 367.238 306.1 369.105 306.1C370.671 306.1 372.121 305.783 373.455 305.15C374.788 304.517 375.905 303.55 376.805 302.25L379.455 304.05C378.421 305.75 377.005 307.05 375.205 307.95C373.405 308.817 371.388 309.25 369.155 309.25ZM399.438 282.5C401.571 282.5 403.438 282.917 405.038 283.75C406.671 284.55 407.938 285.783 408.838 287.45C409.771 289.117 410.238 291.217 410.238 293.75V309H406.688V294.1C406.688 291.333 405.988 289.25 404.588 287.85C403.221 286.417 401.288 285.7 398.788 285.7C396.921 285.7 395.288 286.083 393.888 286.85C392.521 287.583 391.455 288.667 390.688 290.1C389.955 291.5 389.588 293.2 389.588 295.2V309H386.038V271.9H389.588V289.95L388.888 288.6C389.721 286.7 391.055 285.217 392.888 284.15C394.721 283.05 396.905 282.5 399.438 282.5ZM430.527 309.25C427.994 309.25 425.71 308.683 423.677 307.55C421.677 306.383 420.094 304.8 418.927 302.8C417.76 300.767 417.177 298.45 417.177 295.85C417.177 293.217 417.76 290.9 418.927 288.9C420.094 286.9 421.677 285.333 423.677 284.2C425.677 283.067 427.96 282.5 430.527 282.5C433.127 282.5 435.427 283.067 437.427 284.2C439.46 285.333 441.044 286.9 442.177 288.9C443.344 290.9 443.927 293.217 443.927 295.85C443.927 298.45 443.344 300.767 442.177 302.8C441.044 304.8 439.46 306.383 437.427 307.55C435.394 308.683 433.094 309.25 430.527 309.25ZM430.527 306.1C432.427 306.1 434.11 305.683 435.577 304.85C437.044 303.983 438.194 302.783 439.027 301.25C439.894 299.683 440.327 297.883 440.327 295.85C440.327 293.783 439.894 291.983 439.027 290.45C438.194 288.917 437.044 287.733 435.577 286.9C434.11 286.033 432.444 285.6 430.577 285.6C428.71 285.6 427.044 286.033 425.577 286.9C424.11 287.733 422.944 288.917 422.077 290.45C421.21 291.983 420.777 293.783 420.777 295.85C420.777 297.883 421.21 299.683 422.077 301.25C422.944 302.783 424.11 303.983 425.577 304.85C427.044 305.683 428.694 306.1 430.527 306.1ZM451.175 309V282.75H454.725V309H451.175ZM452.975 276.95C452.241 276.95 451.625 276.7 451.125 276.2C450.625 275.7 450.375 275.1 450.375 274.4C450.375 273.7 450.625 273.117 451.125 272.65C451.625 272.15 452.241 271.9 452.975 271.9C453.708 271.9 454.325 272.133 454.825 272.6C455.325 273.067 455.575 273.65 455.575 274.35C455.575 275.083 455.325 275.7 454.825 276.2C454.358 276.7 453.741 276.95 452.975 276.95ZM475.502 309.25C472.902 309.25 470.569 308.683 468.502 307.55C466.469 306.383 464.869 304.8 463.702 302.8C462.536 300.767 461.952 298.45 461.952 295.85C461.952 293.217 462.536 290.9 463.702 288.9C464.869 286.9 466.469 285.333 468.502 284.2C470.569 283.067 472.902 282.5 475.502 282.5C477.736 282.5 479.752 282.933 481.552 283.8C483.352 284.667 484.769 285.967 485.802 287.7L483.152 289.5C482.252 288.167 481.136 287.183 479.802 286.55C478.469 285.917 477.019 285.6 475.452 285.6C473.586 285.6 471.902 286.033 470.402 286.9C468.902 287.733 467.719 288.917 466.852 290.45C465.986 291.983 465.552 293.783 465.552 295.85C465.552 297.917 465.986 299.717 466.852 301.25C467.719 302.783 468.902 303.983 470.402 304.85C471.902 305.683 473.586 306.1 475.452 306.1C477.019 306.1 478.469 305.783 479.802 305.15C481.136 304.517 482.252 303.55 483.152 302.25L485.802 304.05C484.769 305.75 483.352 307.05 481.552 307.95C479.752 308.817 477.736 309.25 475.502 309.25ZM503.487 309.25C500.753 309.25 498.353 308.683 496.287 307.55C494.22 306.383 492.603 304.8 491.437 302.8C490.27 300.767 489.687 298.45 489.687 295.85C489.687 293.25 490.237 290.95 491.337 288.95C492.47 286.95 494.003 285.383 495.937 284.25C497.903 283.083 500.103 282.5 502.537 282.5C505.003 282.5 507.187 283.067 509.087 284.2C511.02 285.3 512.537 286.867 513.637 288.9C514.737 290.9 515.287 293.217 515.287 295.85C515.287 296.017 515.27 296.2 515.237 296.4C515.237 296.567 515.237 296.75 515.237 296.95H492.387V294.3H513.337L511.937 295.35C511.937 293.45 511.52 291.767 510.687 290.3C509.887 288.8 508.787 287.633 507.387 286.8C505.987 285.967 504.37 285.55 502.537 285.55C500.737 285.55 499.12 285.967 497.687 286.8C496.253 287.633 495.137 288.8 494.337 290.3C493.537 291.8 493.137 293.517 493.137 295.45V296C493.137 298 493.57 299.767 494.437 301.3C495.337 302.8 496.57 303.983 498.137 304.85C499.737 305.683 501.553 306.1 503.587 306.1C505.187 306.1 506.67 305.817 508.037 305.25C509.437 304.683 510.637 303.817 511.637 302.65L513.637 304.95C512.47 306.35 511.003 307.417 509.237 308.15C507.503 308.883 505.587 309.25 503.487 309.25ZM522.863 309.25C522.129 309.25 521.496 308.983 520.963 308.45C520.463 307.917 520.213 307.267 520.213 306.5C520.213 305.7 520.463 305.05 520.963 304.55C521.496 304.05 522.129 303.8 522.863 303.8C523.596 303.8 524.213 304.05 524.713 304.55C525.246 305.05 525.513 305.7 525.513 306.5C525.513 307.267 525.246 307.917 524.713 308.45C524.213 308.983 523.596 309.25 522.863 309.25Z" fill="black"/>
<path d="M1219.96 16.195C1217.32 16.7094 1213.43 18.6499 1211.24 20.567L1210.31 21.3853L1208.96 20.9177C1206.27 19.9592 1205.36 19.8189 1202.11 19.8189C1198.54 19.8189 1197.19 20.0994 1194.38 21.3386C1192.38 22.227 1190.71 23.5129 1189.38 25.1962C1187.64 27.3939 1186.78 29.7085 1186.44 33.2155C1186.33 34.3377 1186.21 35.2729 1186.17 35.2963C1186.14 35.343 1185.64 35.5301 1185.03 35.7171C1182.09 36.6523 1180.04 38.9435 1178.24 43.2454C1176.94 46.3315 1176.39 48.459 1176.24 50.9139C1175.99 55.5665 1177.8 59.6112 1180.99 61.5517C1181.63 61.9491 1183.33 62.6272 1184.73 63.048C1186.14 63.4688 1187.6 64.0066 1187.96 64.2404C1189.31 65.082 1189.29 64.9885 1189.29 69.0332C1189.29 72.6337 1189.65 77.0992 1190.07 78.8761C1190.58 80.9569 1191.76 81.2842 1192.48 79.5541C1192.84 78.6656 1192.9 78.1513 1192.9 75.9302C1192.9 73.8494 1192.76 72.6804 1192.23 69.758C1191.87 67.7707 1191.4 65.7834 1191.19 65.3626C1190.73 64.404 1190.71 63.6325 1191.09 62.6272C1191.32 62.0193 1191.87 61.5517 1193.9 60.219C1202.47 54.5611 1211.6 50.8672 1220.4 49.4644C1223.97 48.9033 1231.03 48.9033 1234.21 49.4877C1238.19 50.1891 1243.68 51.8491 1245.16 52.8077C1246.15 53.4389 1246.36 54.6547 1246.85 62.7908C1247.18 68.1214 1246.84 84.4638 1246.34 87.2226C1246.25 87.7604 1246.25 87.737 1245.45 86.9187C1243.85 85.2353 1239.75 83.2715 1235.25 82.0323C1232.31 81.2374 1223.65 79.4372 1220.04 78.8761C1213.85 77.8941 1207.69 77.7305 1202.39 78.4085C1196.51 79.1566 1192.08 80.9101 1191.4 82.7337C1191.28 83.061 1191.19 83.9261 1191.17 84.6509L1191.15 85.9835L1190.9 85.0249C1190.3 82.6402 1189.33 81.1907 1188.05 80.7464C1187.18 80.4659 1186.15 80.8166 1185.47 81.6349C1184.41 82.9675 1183.74 87.3395 1184.14 90.5192C1184.45 92.9039 1185.74 97.7201 1186.76 100.269C1187.81 102.864 1188.62 103.963 1189.57 103.963C1190.09 103.963 1190.22 104.056 1190.14 104.313C1189.82 105.693 1189.42 110.813 1189.42 113.572C1189.44 118.715 1189.9 120.352 1193.14 126.781C1197.08 134.59 1199.87 139.523 1201.18 141.043C1202.85 142.937 1205.26 144.877 1207.22 145.859C1209.65 147.075 1211.64 147.449 1215.59 147.449C1218.69 147.449 1219.18 147.379 1220.91 146.818C1225.07 145.438 1230.05 141.721 1234.07 136.951C1235.14 135.689 1236.01 134.754 1236.01 134.871C1236.01 135.361 1234.41 138.237 1233.56 139.313C1232.59 140.528 1230.1 142.726 1228.22 144.012C1225.51 145.882 1222.16 147.215 1217.63 148.174C1214.26 148.898 1213.68 149.179 1213.3 150.278C1213.05 151.003 1213.05 151.447 1213.26 153.457C1213.43 155.304 1213.43 155.842 1213.24 156.076C1213.07 156.286 1212.25 156.333 1210.22 156.286C1208.68 156.263 1206.27 156.333 1204.86 156.473C1193.96 157.479 1193.6 157.572 1191.74 159.676C1191.11 160.401 1190.39 161.5 1190.12 162.131C1189.44 163.768 1188.95 166.69 1188.7 170.267C1188.59 171.998 1188.3 175.317 1188.04 177.632C1187.64 181.42 1187.58 182.705 1187.58 189.906C1187.58 194.349 1187.48 199.89 1187.35 202.251C1187.2 205.477 1187.2 207.044 1187.35 208.727C1187.58 210.831 1187.56 211.018 1187.01 213.8C1186.38 216.98 1185.24 225.14 1184.9 228.951C1184.62 232.341 1184.62 240.407 1184.92 248.286C1185.15 254.224 1185.15 254.925 1184.88 255.299C1184.71 255.533 1184.41 256.141 1184.2 256.655L1183.8 257.591V242.861C1183.78 227.174 1183.89 222.334 1184.64 203.7C1185.3 187.381 1185.66 182.144 1186.84 172.021C1187.69 164.493 1188.55 160.682 1189.95 157.993C1190.77 156.45 1191.24 155.936 1192.61 155.141L1193.75 154.486H1198.69C1202.72 154.486 1203.97 154.556 1205.51 154.93C1207.45 155.375 1209.46 155.351 1209.84 154.884C1210.07 154.603 1210.48 149.904 1210.31 149.366C1210.26 149.179 1209.67 148.922 1208.81 148.758C1204.69 147.893 1200.27 144.994 1196.92 140.973C1194.3 137.793 1191.72 132.299 1190.52 127.249C1189.4 122.573 1188.89 121.661 1188.05 122.877C1187.47 123.695 1187.12 125.168 1186.72 128.348C1186.29 132.018 1186.33 131.925 1185.55 132.299C1184.46 132.86 1180.95 133.935 1177.32 134.824C1173.2 135.829 1170.01 136.975 1162.19 140.295L1156.07 142.89L1156.68 141.908C1158.01 139.757 1158.71 136.975 1158.71 133.795C1158.71 132.486 1158.82 131.971 1159.57 130.054C1160.65 127.225 1160.72 125.823 1159.85 124.607C1158.62 122.877 1155.73 122.853 1153.68 124.56C1153.3 124.887 1152.96 125.145 1152.92 125.098C1152.6 124.583 1151.84 122.643 1151.59 121.638C1150.89 118.949 1150.35 118.131 1148.34 116.634C1144.85 114.086 1140.95 112.286 1138.92 112.286C1137.65 112.286 1137.06 112.66 1134.99 114.717C1134 115.676 1133.17 116.447 1133.13 116.401C1133.01 116.26 1136.91 99.8243 1137.34 98.5618C1137.59 97.8838 1138.18 96.5979 1138.65 95.6861C1139.91 93.3014 1140.65 91.4076 1140.86 90.0282C1141.2 87.8071 1140.27 84.7678 1138.9 83.7624C1137.57 82.7571 1135.92 83.4351 1134.1 85.7731C1131.97 88.4617 1130.24 92.0622 1128.42 97.5565C1127.94 99.0294 1126.88 101.928 1126.08 103.963L1124.64 107.703L1124.66 109.807C1124.66 111.935 1124.66 111.935 1124.39 111C1124.03 109.784 1124.16 107.867 1124.81 105.295C1125.47 102.56 1126.39 96.972 1126.63 94.0027C1126.99 89.7476 1126.4 87.1992 1124.85 86.2407C1123.9 85.6796 1123.01 85.89 1122.06 86.9421C1121.03 88.0877 1117.57 96.5511 1117.31 98.5852C1117.21 99.3567 1116.95 103.168 1116.72 107.025C1116.36 113.501 1116.32 117.92 1116.62 119.533C1116.7 119.861 1116.53 119.604 1116.28 118.949C1115.6 117.289 1115.5 115.746 1115.86 112.566C1116.36 108.475 1116.43 106.277 1116.19 104.453C1115.92 102.49 1115.39 101.25 1114.4 100.269C1113.77 99.6606 1113.53 99.5671 1112.64 99.5671C1111.76 99.5905 1111.5 99.7074 1111.02 100.269C1109.33 102.232 1108.46 107.072 1108.25 115.372C1108.08 122.316 1108.42 124.069 1111.44 131.667C1114.29 138.822 1114.74 141.23 1114.72 148.641C1114.69 155.842 1113.95 161.126 1112.52 164.259C1111.74 165.942 1108.93 170.478 1108.65 170.501C1108.44 170.501 1102.17 175.668 1100.1 177.515C1096.4 180.858 1092.83 184.997 1091.34 187.685C1089.69 190.701 1089.18 192.478 1088.72 196.686C1088.17 201.853 1087.93 202.415 1083.82 207.628C1079.87 212.655 1079.28 213.754 1076.83 220.814C1074.61 227.22 1072.96 234.211 1071.16 244.989C1069.85 252.681 1069.88 257.708 1071.27 262.945C1072.3 266.896 1074.16 270.45 1076.34 272.647C1078.13 274.471 1080.33 275.71 1085.02 277.58C1091.46 280.129 1093.59 280.55 1096.19 279.801C1097.94 279.287 1099.09 278.469 1101.54 276.061C1102.74 274.892 1105.13 272.624 1106.86 271.034C1114.88 263.646 1118.07 260.186 1121.58 255.019C1123.73 251.839 1124.83 250.6 1128.11 247.584C1133.3 242.838 1135.14 240.781 1136.98 237.671C1137.99 235.988 1143.44 228.951 1143.74 228.951C1143.82 228.951 1143.92 241.926 1143.93 257.754C1143.99 290.626 1143.8 287.143 1145.82 290.93C1148.28 295.559 1148.72 297.289 1148.7 302.48C1148.68 306.478 1148.21 310.312 1147.39 313.118C1147.13 314.076 1146.1 316.765 1145.11 319.079C1142.81 324.55 1142.49 325.626 1141.62 331.097C1140.69 336.871 1140.14 341.524 1139.07 352.863C1137.88 365.395 1137.86 365.932 1137.72 382.579C1137.63 396.56 1137.4 407.572 1137.14 411.944L1137.02 413.884H1043.92C959.974 413.884 950.782 413.931 950.402 414.258C949.889 414.679 949.87 415.1 950.326 415.591C950.649 415.965 957.448 415.988 1044.26 415.988C1104.37 415.988 1137.97 415.918 1138.18 415.755C1138.47 415.567 1138.56 415.123 1138.65 413.37C1138.96 407.876 1139.19 397.448 1139.34 381.854C1139.47 369.556 1139.59 364.039 1139.79 361.747C1141.62 341.524 1143.16 329.343 1144.33 325.462C1144.6 324.597 1145.63 321.955 1146.61 319.617C1147.62 317.256 1148.64 314.544 1148.93 313.585C1150.09 309.517 1150.66 302.152 1150.09 298.178C1149.69 295.372 1149.02 293.432 1147.41 290.416C1145.3 286.441 1145.51 290.252 1145.45 256.352L1145.4 226.589L1146.18 224.672C1147.14 222.217 1147.45 220.674 1147.7 216.793C1147.9 213.216 1147.75 188.737 1147.51 188.433C1147.43 188.317 1147.16 188.27 1146.92 188.317C1146.38 188.41 1146.02 189.532 1145.32 193.413C1144.11 200.006 1143.71 206.015 1143.71 217.588V226.215L1140.4 230.213C1138.47 232.574 1136.57 235.123 1135.79 236.432C1134.06 239.308 1132.52 241.085 1128.29 244.989C1124.64 248.356 1121.98 251.442 1119.02 255.72C1116.87 258.806 1113.49 262.43 1108.02 267.504C1105.55 269.795 1102.38 272.787 1100.97 274.19C1098.09 277.019 1097.12 277.674 1095.14 278.071C1094.02 278.305 1093.49 278.282 1091.99 277.978C1090.11 277.58 1082.17 274.541 1080.35 273.512C1076.91 271.572 1074.42 268.041 1072.96 263.015C1071.42 257.754 1071.35 253.195 1072.68 245.457C1074.86 232.504 1076.68 225.327 1079.78 217.401C1081.07 214.151 1082.02 212.585 1085.48 208.189C1087 206.249 1088.44 204.238 1088.7 203.724C1089.43 202.321 1089.92 200.217 1090.32 196.663C1090.72 193.203 1091.21 191.403 1092.31 189.369C1093.28 187.568 1095.26 184.786 1096.32 183.711L1097.25 182.776L1096.49 184.061C1093.42 189.228 1091.61 195.985 1092.22 200.077C1092.88 204.542 1095.58 207.511 1100.4 209.101C1102.53 209.826 1107.03 209.896 1108.91 209.265C1114.52 207.348 1119.36 202.415 1126.2 191.59C1127.28 189.906 1128.21 188.504 1128.27 188.504C1128.46 188.504 1128.13 191.566 1127.64 194.442C1126.97 198.3 1125.65 203.256 1122.91 212C1120.27 220.487 1119.26 224.088 1118.45 227.992C1117.78 231.172 1117.74 231.873 1118.24 232.224C1118.81 232.598 1119.19 232.27 1119.4 231.195C1119.91 228.647 1120.67 226.262 1122.23 222.241C1123.16 219.832 1124.18 216.887 1124.52 215.741C1124.85 214.572 1125.85 211.392 1126.73 208.657C1129.08 201.456 1131.38 192.151 1132.03 187.241C1132.37 184.623 1132.41 179.362 1132.08 178.965C1131.53 178.287 1129.73 179.058 1128.04 180.718C1126.94 181.794 1124.18 185.254 1122.34 187.826C1121.66 188.808 1120.18 190.608 1119.07 191.8C1114.93 196.359 1111.91 198.674 1108.65 199.843C1103.94 201.526 1101.7 200.965 1101.14 197.972C1100.73 195.611 1101.56 192.081 1103.48 188.223C1105.15 184.88 1105.7 183.5 1106.6 180.414C1108.21 174.897 1108.76 173.657 1111.88 168.771C1114.48 164.656 1115.16 162.599 1115.9 156.59C1116.17 154.509 1116.24 152.405 1116.24 148.407C1116.26 140.528 1115.81 138.19 1112.94 131.036C1110 123.648 1109.58 121.638 1109.77 115.372C1109.9 110.696 1110.32 106.791 1110.95 104.36C1111.55 101.999 1111.84 101.531 1112.67 101.531C1113.49 101.531 1114.17 102.349 1114.5 103.729C1114.8 105.038 1114.74 108.872 1114.38 111.748C1114 114.787 1114 116.775 1114.38 118.388C1114.9 120.539 1117.12 124.654 1118.88 126.734C1119.38 127.319 1119.64 127.483 1119.93 127.366C1120.56 127.132 1120.59 126.454 1120.08 125.168C1119.26 123.181 1118.5 120.679 1118.16 118.738C1117.78 116.611 1117.8 115.091 1118.43 104.804C1118.85 98.0241 1118.94 97.5331 1120.23 94.7743C1120.69 93.7923 1121.33 92.2025 1121.66 91.2439C1122.49 88.8592 1123.06 87.9708 1123.78 87.9708C1124.2 87.9708 1124.43 88.1578 1124.73 88.7189C1125.57 90.3555 1124.83 98.5384 1123.27 104.828C1123.01 105.903 1122.74 107.586 1122.68 108.545C1122.59 110.135 1122.64 110.579 1123.35 113.338C1123.76 114.998 1124.3 117.429 1124.52 118.715C1124.77 120.001 1125.04 121.193 1125.15 121.334C1125.38 121.731 1125.95 121.708 1126.21 121.334C1126.59 120.749 1126.78 117.897 1126.61 115.559C1126.5 114.343 1126.39 112.122 1126.31 110.649L1126.2 107.96L1127.35 105.108C1128 103.565 1129.12 100.502 1129.84 98.328C1132.06 91.7583 1134.38 87.433 1136.68 85.5393C1137.63 84.7678 1138.43 85.3055 1139.05 87.0823C1139.7 88.9995 1139.28 91.0335 1137.67 93.9794C1136.07 96.8785 1135.58 98.4917 1133.15 108.966C1131.23 117.219 1130.81 119.276 1130.96 119.697C1131.08 120.001 1131.29 120.235 1131.46 120.235C1131.74 120.235 1134.08 118.131 1136.19 115.98C1137.82 114.296 1138.26 114.063 1139.49 114.25C1141.41 114.53 1144.56 116.097 1147.37 118.201C1149.18 119.533 1149.5 120.001 1150.07 122.152C1150.35 123.204 1150.81 124.537 1151.06 125.074C1151.59 126.197 1151.51 126.921 1150.79 128.137C1150.11 129.283 1149.46 129.587 1148.44 129.33C1147.22 129.002 1146.31 127.973 1145.63 126.197C1144.83 124.116 1144.47 123.882 1141.96 123.765C1140.04 123.695 1139.87 123.718 1139.07 124.303C1138.62 124.63 1137.97 125.308 1137.65 125.823C1136.91 126.968 1136 129.4 1135.83 130.662C1135.73 131.504 1135.79 131.761 1136.49 133.047C1137.53 134.941 1140.9 139.266 1141.88 139.967C1143.84 141.37 1144.9 140.996 1147.2 138.167C1148.13 137.021 1149.18 135.923 1149.52 135.759C1149.96 135.525 1150.2 135.221 1150.28 134.777C1150.51 133.468 1150.6 133.187 1151.15 131.808C1152.06 129.517 1154.1 126.384 1154.99 125.869C1156.15 125.191 1157.36 125.028 1158.2 125.472C1158.81 125.776 1158.9 125.939 1158.9 126.571C1158.9 126.992 1158.5 128.371 1158.03 129.657C1157.19 131.855 1157.13 132.088 1157.02 134.683C1156.85 138.307 1156.45 139.359 1154.21 142.282C1153.3 143.474 1152.29 145.017 1151.99 145.719C1151.23 147.472 1146.48 157.222 1145.61 158.811C1143.95 161.781 1141.54 164.656 1138.81 166.924C1137.36 168.116 1133.19 173.12 1132.37 174.639C1132.03 175.271 1132.33 176.112 1132.88 176.112C1133.07 176.112 1134.27 175.177 1135.54 174.032C1136.85 172.863 1138.88 171.343 1140.19 170.525C1142.05 169.379 1142.85 168.724 1143.99 167.415C1146.94 164.048 1151.02 157.011 1154.89 148.735L1156.81 144.62L1163.27 141.884C1171.11 138.588 1173.32 137.793 1177.67 136.718C1183.21 135.338 1187.07 133.982 1187.56 133.234C1187.67 133.07 1187.94 131.48 1188.15 129.704C1188.36 127.927 1188.57 126.407 1188.62 126.36C1188.66 126.314 1188.79 126.734 1188.91 127.272C1189.92 132.112 1192.38 137.77 1195.1 141.487C1197.97 145.415 1203.08 149.132 1207.2 150.301L1208.66 150.722V151.961C1208.66 152.896 1208.59 153.247 1208.36 153.364C1208.19 153.434 1207.2 153.317 1206.14 153.107C1203.5 152.546 1197.84 152.218 1195.35 152.499C1192.02 152.85 1190.22 153.995 1188.76 156.707C1187.18 159.606 1186.21 163.768 1185.3 171.436C1184.14 181.349 1183.76 186.797 1183.12 202.531C1182.26 223.456 1182.2 226.449 1182.32 251.909C1182.41 274.775 1182.58 283.075 1183.02 285.085C1183.25 286.114 1183.84 286.394 1184.52 285.833L1184.98 285.459L1184.81 276.552C1184.58 264.067 1184.6 261.916 1185.02 259.695L1185.36 257.824L1185.7 259.625C1186.1 261.729 1186.57 262.968 1187.29 263.786C1188.38 265.049 1190.37 264.207 1191.23 262.126C1192 260.279 1191.43 256.702 1190.09 254.855C1189.21 253.686 1188.57 253.265 1187.52 253.265H1186.69L1186.48 247.584C1186.19 240.64 1186.19 232.972 1186.44 229.535C1186.76 225.397 1188.32 214.175 1188.64 213.777C1188.68 213.707 1188.91 213.894 1189.16 214.151C1190.37 215.531 1192.16 215.951 1193.58 215.18C1195.54 214.104 1196.39 212.468 1196.41 209.779C1196.41 208.353 1196.32 207.792 1195.94 206.88C1195.31 205.36 1194.3 204.378 1193.22 204.238C1192.14 204.074 1190.68 204.986 1189.69 206.436C1189.33 206.997 1188.95 207.348 1188.85 207.231C1188.76 207.114 1188.78 205.267 1188.89 203.046C1189 200.848 1189.1 195.284 1189.1 190.678C1189.1 183.524 1189.16 181.84 1189.5 179.035C1189.71 177.235 1190.01 173.915 1190.16 171.67C1190.41 168.187 1190.88 164.422 1191.09 164.422C1191.13 164.422 1191.32 164.797 1191.53 165.217C1192.44 167.088 1194.66 167.509 1196.45 166.153C1197.72 165.171 1198.25 163.978 1198.16 162.272C1198.12 161.36 1197.95 160.682 1197.61 160.05L1197.11 159.139L1201.61 158.694C1204.08 158.461 1207.73 158.25 1209.71 158.25C1214.91 158.203 1215.06 158.063 1214.83 153.644L1214.7 150.886L1215.44 150.652C1215.84 150.512 1217.02 150.254 1218.06 150.044C1221.75 149.319 1225.45 147.916 1228.38 146.093C1231.41 144.199 1234.83 140.902 1236.16 138.588L1236.56 137.886L1236.18 139.406C1235.97 140.248 1235.82 141.393 1235.86 141.978L1235.92 143.03L1237.62 144.222C1238.57 144.877 1243.09 147.963 1247.69 151.096C1258.63 158.531 1265.73 163.464 1269.72 166.41C1271.51 167.719 1274.18 169.683 1275.7 170.805C1280.6 174.382 1281.88 175.879 1282.75 179.082C1282.98 179.947 1283.93 182.472 1284.84 184.669C1286.36 188.317 1289.3 196.944 1292.89 208.376C1293.6 210.621 1295.19 214.946 1296.43 217.962C1297.66 220.978 1299.43 225.42 1300.36 227.805C1301.29 230.213 1302.75 233.603 1303.6 235.357C1305.67 239.565 1306.55 241.95 1307.21 245.012C1307.82 247.888 1308.12 248.683 1309.7 251.652L1310.84 253.78L1308.87 254.785C1300.22 259.11 1291.85 267.925 1288.9 275.78C1288.09 277.954 1287.92 278.866 1288.24 279.334C1288.71 280.059 1289.17 279.685 1290.82 277.16C1291.75 275.78 1293.71 273.185 1295.17 271.385C1300.01 265.4 1304.02 261.893 1310.38 258.058C1314.28 255.697 1314.47 255.603 1316.75 255.136C1318.04 254.879 1319.37 254.528 1319.67 254.388C1320.64 253.943 1324.02 251.605 1329.95 247.28C1336.97 242.16 1337.7 241.739 1339.33 241.716L1340.56 241.692L1341.32 239.799C1342.31 237.344 1343.3 235.777 1346 232.317C1347.21 230.751 1348.35 229.208 1348.54 228.857C1348.86 228.273 1348.86 228.226 1348.54 227.782C1348.31 227.478 1347.95 227.314 1347.51 227.314C1346.56 227.314 1344.23 226.753 1341.25 225.771C1334.85 223.713 1330.4 220.791 1330.4 218.663C1330.4 218.032 1330.57 217.681 1331.26 216.863C1332.09 215.881 1333.14 215.203 1339.08 211.743L1341.21 210.527L1341.42 211.299C1341.76 212.585 1343.41 214.245 1345.2 215.11C1347.72 216.349 1349.96 216.98 1355.83 218.079C1371.33 221.025 1378.47 221.796 1390.32 221.796C1399.55 221.796 1401.49 221.609 1406.56 220.16C1413.4 218.219 1416.72 216.068 1418.05 212.702C1418.89 210.597 1418.41 208.914 1417.25 209.849C1414.39 212.094 1409.37 214.221 1404.09 215.39C1399.17 216.466 1396.78 216.676 1388.99 216.653C1371.43 216.629 1356.61 214.549 1347.48 210.808C1345.71 210.083 1345.35 209.849 1345.18 209.335C1344.8 208.166 1345.52 200.38 1346.47 195.518C1348.33 185.838 1352.26 177.515 1357.6 172.021C1364.17 165.217 1373.12 161.032 1382.21 160.518C1385.2 160.354 1385.29 160.284 1385.29 157.97C1385.29 156.894 1385.37 156.45 1385.63 156.169C1386.07 155.678 1387.44 155.655 1387.76 156.099C1387.87 156.286 1388.04 157.245 1388.12 158.227C1388.2 159.256 1388.35 160.097 1388.5 160.191C1388.63 160.308 1389.73 160.448 1390.95 160.495C1395.01 160.728 1399.61 162.342 1404.19 165.124C1407.59 167.205 1409.9 169.239 1412.66 172.605C1416.02 176.697 1418.68 181.396 1420.88 187.148C1422.25 190.725 1422.8 192.478 1424.85 199.96C1426.98 207.745 1426.69 207.324 1430.07 207.558C1433.38 207.768 1435.03 208.096 1436.13 208.75C1438.34 210.06 1438.58 212.281 1436.82 214.712C1435.03 217.144 1431.39 219.388 1425.16 221.89C1418.93 224.415 1414.37 225.584 1404.95 227.08C1384.91 230.26 1365.44 230.704 1352.36 228.249C1349.34 227.665 1349.26 227.665 1349.02 228.249C1348.67 229.044 1349.09 229.558 1350.71 230.33C1359.31 234.421 1376.55 235.193 1397.83 232.434C1402.35 231.873 1402.25 231.85 1401.53 232.574C1399.99 234.141 1392.81 236.339 1385.48 237.484C1382.78 237.928 1378.51 239.308 1373.69 241.318C1368.01 243.68 1365.92 244.849 1361.82 247.911C1360.58 248.823 1358.99 249.969 1358.28 250.46C1354.9 252.728 1345.63 264.511 1344.02 268.626C1343.79 269.187 1343.56 269.631 1343.49 269.631C1343.28 269.631 1341.72 266.241 1340.68 263.553C1338.82 258.643 1338.09 254.925 1338.23 250.834C1338.3 248.73 1338.42 247.958 1338.82 246.696C1339.44 244.802 1339.44 244.662 1338.85 244.334C1338.47 244.124 1338.32 244.147 1338.02 244.475C1337.54 245.012 1336.75 247.233 1336.25 249.455C1335.66 252.073 1335.66 257.778 1336.25 261.027C1337.58 268.462 1340.92 276.669 1346 284.851C1349.34 290.252 1350.1 291 1352.24 291C1354.73 291 1355.66 289.878 1358 284.01C1359.76 279.521 1360.32 277.417 1360.54 274.214L1360.68 272.32L1361.02 273.699C1361.89 277.183 1361.64 279.521 1359.92 284.337C1358.04 289.574 1356.92 291 1353 293.151C1347.42 296.214 1336.08 301.498 1330.31 303.719C1315.06 309.564 1306.7 310.663 1297.93 307.951C1294.89 307.015 1292.85 305.73 1291.28 303.789C1290.59 302.924 1289.53 301.825 1288.9 301.334C1286.55 299.464 1284.57 295.115 1284.27 291.07L1284.16 289.41L1282.6 288.054L1281.02 286.675L1280.55 284.735C1280.11 283.051 1279.88 282.56 1278.8 281.064C1275.53 276.505 1272.82 271.431 1271.53 267.457L1270.94 265.657L1271.98 262.196C1275.84 249.384 1278.82 235.684 1280.02 225.21C1280.26 223.035 1280.36 220.744 1280.36 216.302C1280.36 209.803 1280.3 209.452 1279.35 209.592C1278.76 209.686 1279.01 208.75 1276.08 222.053C1271.2 244.241 1267.5 259.625 1265.07 267.644C1259.9 284.781 1259.54 286.161 1259.18 289.785C1258.93 292.45 1259.14 295.442 1259.83 298.926L1260.26 301.17L1259.16 301.778C1252.99 305.192 1243.25 308.044 1233.26 309.353C1212.59 312.112 1189.55 309.891 1162.43 302.573C1158.82 301.591 1158.05 301.451 1157.84 301.708C1157.67 301.919 1157.32 305.052 1156.79 311.317C1156.07 319.57 1156.01 320.646 1156.26 320.973C1156.43 321.16 1158.27 321.745 1160.65 322.353C1172.56 325.368 1185.7 327.449 1198.5 328.314C1203.19 328.642 1215.23 328.642 1219.58 328.314C1233.12 327.332 1244.48 324.574 1254.05 319.968C1257.11 318.471 1261.92 315.619 1262.49 314.918L1262.96 314.333L1263.25 315.222C1263.85 317.092 1265.94 331.728 1267.23 343.16C1268.92 358.17 1270.35 375.027 1271.34 391.673C1271.66 397.285 1271.91 402.007 1272.4 412.902C1272.49 415.1 1272.57 415.567 1272.87 415.755C1273.37 416.082 1499.15 416.082 1499.64 415.755C1500.12 415.427 1500.12 414.445 1499.64 414.118C1499.38 413.954 1463.92 413.884 1386.64 413.884C1296.65 413.884 1273.99 413.814 1273.99 413.58C1273.99 413.44 1273.86 410.447 1273.71 406.987C1273.14 394.502 1272.29 380.802 1271.34 369.112C1269.42 345.662 1265.83 316.999 1264.37 313.538C1264.08 312.86 1263.32 310.405 1262.69 308.091C1261.55 303.906 1261.54 303.883 1260.99 303.883C1260.47 303.883 1260.42 303.953 1260.36 304.748C1260.3 305.496 1260.87 311.154 1261.19 313.164C1261.29 313.749 1261.19 313.842 1258.76 315.292C1249.06 321.137 1237.95 324.503 1222.91 326.14C1218.2 326.654 1201.5 326.725 1196.22 326.257C1186.02 325.368 1177.27 324.083 1168.11 322.119C1164.71 321.394 1157.7 319.711 1157.65 319.594C1157.63 319.547 1159.05 303.649 1159.07 303.625C1159.09 303.625 1160.14 303.906 1161.43 304.28C1167.5 305.987 1177.44 308.255 1184.26 309.47C1214.38 314.848 1242.07 312.743 1259.33 303.766C1260.61 303.088 1261.73 302.363 1261.82 302.152C1261.93 301.895 1261.84 301.007 1261.54 299.557C1260.85 296.144 1260.64 293.946 1260.76 290.93C1260.87 287.563 1261.23 286.067 1264.12 276.411C1265.3 272.484 1266.66 267.901 1267.16 266.241C1268.9 260.443 1272.78 244.311 1276.82 226.028C1277.89 221.259 1278.8 217.261 1278.84 217.144C1278.9 217.003 1278.9 218.126 1278.84 219.599C1278.46 229.605 1275.23 245.854 1270.46 261.706C1269.89 263.599 1269.44 265.353 1269.44 265.61C1269.44 265.89 1269.65 266.779 1269.89 267.574C1271.24 272.016 1273.84 276.996 1277.47 282.093C1278.42 283.425 1278.71 284.033 1279.2 285.833L1279.79 287.984L1281.27 289.27C1282.64 290.439 1282.73 290.603 1282.73 291.374C1282.73 293.595 1284.25 298.038 1285.85 300.539C1286.32 301.264 1287.25 302.316 1287.9 302.854C1288.56 303.392 1289.7 304.537 1290.42 305.402C1291.16 306.267 1292.13 307.226 1292.61 307.577C1296.18 310.125 1304.04 311.808 1309.8 311.247C1319.94 310.242 1334.92 304.724 1352.43 295.536C1355.97 293.666 1357.11 292.847 1358.45 291.07C1359.63 289.551 1360.13 288.499 1361.46 284.781C1363.51 278.983 1363.54 277.183 1361.78 270.099C1361.15 267.597 1360.07 263.178 1359.38 260.279C1358.68 257.404 1358.02 254.949 1357.88 254.855C1357.3 254.411 1356.56 255.066 1356.71 255.907C1356.76 256.188 1357.28 259.531 1357.88 263.319C1359.56 274.12 1359.44 276.061 1356.52 283.379C1355.62 285.6 1354.66 287.727 1354.37 288.101C1353.21 289.527 1351.29 289.504 1350.1 288.008C1347.72 285.062 1342.9 276.318 1340.94 271.385C1339.4 267.527 1338.78 265.493 1338.08 262.15C1337.49 259.274 1337.51 259.04 1338.19 261.261C1339.31 264.979 1342.54 272.156 1343.32 272.671C1343.89 273.045 1344.13 272.764 1344.97 270.613C1345.88 268.275 1347.21 266.031 1349.85 262.384C1351.84 259.625 1356.92 253.756 1358.09 252.845C1360.83 250.717 1366.53 246.766 1368.12 245.924C1372.66 243.469 1382 239.962 1385.2 239.495C1389.56 238.864 1395.41 237.414 1398.68 236.175C1401.07 235.263 1402.17 234.585 1402.92 233.51C1403.68 232.457 1403.71 231.546 1403.01 230.587L1402.48 229.862L1399 230.353C1389.49 231.663 1377.92 232.364 1371.05 232.06L1366.77 231.873L1374.37 231.733C1388.03 231.452 1403.11 229.792 1414.54 227.291C1420.64 225.981 1430.06 222.241 1434.08 219.575C1439.12 216.232 1440.9 211.837 1438.53 208.587C1437.14 206.693 1435.2 205.968 1430.74 205.688C1429.26 205.571 1428.16 205.407 1428.04 205.243C1427.95 205.103 1427.11 202.181 1426.16 198.767C1424 190.888 1423.37 188.971 1421.62 184.739C1418.57 177.328 1414.9 171.74 1410.21 167.392C1405.1 162.669 1398.3 159.419 1391.77 158.601C1390.68 158.461 1389.79 158.344 1389.75 158.344C1389.73 158.344 1389.66 157.829 1389.6 157.198C1389.37 154.79 1388.54 153.785 1386.83 153.808C1384.89 153.831 1383.94 154.884 1383.77 157.175L1383.68 158.461L1381.53 158.624C1375.47 159.092 1368.77 161.383 1363.49 164.797C1359.92 167.111 1357.03 169.776 1354.24 173.33C1348.73 180.391 1345.69 188.504 1344.13 200.287C1343.56 204.636 1343.41 210.364 1343.85 211.018C1344.4 211.837 1349.96 213.917 1354.88 215.156C1360.3 216.513 1367.89 217.588 1376.17 218.196C1381.89 218.617 1393.44 218.757 1396.59 218.453C1403.81 217.752 1409.89 216.138 1414.39 213.754C1415.3 213.263 1416.06 212.959 1416.06 213.076C1416.06 213.45 1413.65 215.39 1412.34 216.068C1410.04 217.261 1405.42 218.687 1401.53 219.412C1399.17 219.832 1380.85 219.832 1376.93 219.412C1367.04 218.313 1351.81 215.624 1348.16 214.338C1346 213.567 1343.85 212.304 1343.34 211.509C1343.11 211.159 1342.84 210.457 1342.73 209.919C1342.46 208.797 1341.91 208.096 1341.46 208.306C1340.07 208.937 1331.47 214.198 1330.78 214.829C1328.85 216.676 1328.35 218.804 1329.41 220.744C1330.86 223.386 1335.23 225.911 1341.97 227.992C1343.66 228.53 1345.25 228.951 1345.48 228.951C1345.73 228.951 1345.96 229.021 1346.03 229.091C1346.09 229.184 1345.16 230.564 1343.94 232.2C1341.8 235.053 1340.26 237.624 1339.88 238.98C1339.71 239.565 1339.58 239.658 1338.66 239.775C1337.2 239.962 1335.34 241.108 1328.6 246.018C1319.86 252.354 1319.35 252.681 1316.82 253.149C1315.68 253.359 1314.28 253.756 1313.71 253.99C1313.14 254.224 1312.66 254.411 1312.64 254.364C1312.63 254.341 1312.45 253.85 1312.25 253.265C1312.06 252.681 1311.41 251.302 1310.82 250.203C1309.34 247.444 1309.34 247.444 1308.73 244.521C1308.07 241.482 1306.81 238.139 1304.53 233.439C1303.62 231.592 1302.41 228.74 1301.8 227.127C1301.19 225.49 1299.69 221.726 1298.48 218.78C1295.95 212.631 1295.67 211.813 1291.35 198.44C1289.38 192.268 1287.54 187.007 1286.4 184.225C1285.41 181.794 1284.35 178.895 1284.02 177.772C1283.49 175.949 1283.3 175.598 1281.99 173.985C1280.4 172.044 1279.26 171.062 1275.13 168.093C1273.62 167.018 1270.8 164.96 1268.87 163.557C1264.78 160.588 1256.05 154.533 1245.07 147.098L1237.32 141.861L1237.43 141.113C1237.49 140.692 1238.02 138.752 1238.61 136.788C1239.58 133.491 1239.68 133 1239.83 130.405C1240 127.249 1240.02 127.132 1240.87 125.448C1242.81 121.684 1243.23 119.861 1243.23 115.021V111.561L1243.72 112.029C1244.82 113.104 1246.38 112.379 1248.24 109.948C1251.28 105.973 1252.4 99.3099 1250.79 94.7041C1250.39 93.5585 1249.32 92.1791 1248.83 92.1791C1248.36 92.1791 1248.36 91.8051 1248.85 90.2854C1249.1 89.4671 1249.49 87.737 1249.7 86.4511C1250.06 84.2768 1250.1 83.4351 1250.05 74.1767C1249.99 61.1075 1249.93 62.2531 1250.63 62.2531C1251.43 62.2531 1252.44 61.5751 1253.69 60.1723C1257.13 56.3848 1258.23 50.2827 1256.33 45.5366L1255.95 44.6014L1256.46 44.1338C1257.76 42.9882 1258.65 41.7491 1259.24 40.2995C1259.81 38.85 1259.85 38.6396 1259.83 36.1847C1259.83 33.9402 1259.75 33.3557 1259.24 31.5789C1258.36 28.5161 1257.15 26.2717 1254.81 23.4427C1251.96 19.9825 1248.94 17.8082 1245.22 16.5223C1243.51 15.9378 1239.45 15.8209 1237.91 16.2885C1236.18 16.8263 1234.38 17.9719 1233.31 19.1876L1232.42 20.2163L1231.62 19.3747C1230.71 18.4161 1228.64 17.2939 1226.55 16.6392C1224.86 16.1015 1221.61 15.8911 1219.96 16.195ZM1226.32 18.5564C1227.9 19.0473 1230.1 20.2865 1230.96 21.1515L1231.51 21.7126L1231.17 22.9518C1230.77 24.4714 1230.88 25.4768 1231.7 27.1367C1232.44 28.6798 1232.65 28.8201 1233.73 28.5863C1235.88 28.0953 1236.01 25.4768 1234.05 22.4374L1233.5 21.549L1234.28 20.6605C1237.43 17.0835 1243.25 16.873 1248.55 20.1696C1253.22 23.0687 1256.73 27.8381 1257.97 32.9115C1258.46 34.9923 1258.42 37.9849 1257.89 39.3643C1257.4 40.6268 1256.14 42.2167 1255.34 42.6375C1254.87 42.8713 1254.74 42.8479 1254.36 42.4037C1253.07 40.9074 1250.25 41.375 1249.55 43.1986C1248.74 45.3262 1250.92 46.4484 1254.07 45.5132C1254.51 45.3963 1254.6 45.4898 1254.98 46.5887C1256.01 49.5111 1255.93 52.3868 1254.74 55.3561C1253.69 57.9512 1251.53 60.3827 1250.25 60.3827C1249.38 60.3827 1248.79 60.9204 1248.58 61.8556C1248.43 62.4869 1248.39 62.2765 1248.28 60.4996C1247.77 51.9192 1247.54 51.475 1242.62 49.7215C1227.54 44.391 1211.17 47.1264 1194.23 57.8343C1190.71 60.0788 1189.99 60.71 1189.63 61.9491C1189.36 62.861 1189.38 62.8376 1188.3 62.2765C1187.85 62.0427 1186.5 61.5751 1185.28 61.2244C1180.51 59.8683 1178.52 57.7174 1177.89 53.322C1177.51 50.6801 1178.1 47.5005 1179.58 44.1104C1181.18 40.4866 1182.45 38.8734 1184.46 37.9382C1185.91 37.2835 1186.36 37.3069 1186.53 38.1018C1186.93 40.1359 1188.38 41.4451 1190.45 41.6322C1192.38 41.7958 1193.28 41.0477 1193.28 39.2241C1193.28 38.5694 1193.11 38.172 1192.5 37.3537C1191.53 36.0678 1190.45 35.4132 1188.98 35.2261L1187.85 35.0858L1188 33.4025C1188.19 31.3685 1188.42 30.48 1189.16 28.7499C1190.52 25.5469 1193.94 22.9985 1198.22 22.0166C1200.87 21.3853 1205.49 21.6893 1208.22 22.6478L1209.23 22.9985L1208.83 23.9571C1208.28 25.2897 1208.15 27.3472 1208.55 28.2823C1209.74 31.1814 1213.03 30.6671 1213.81 27.464C1214.11 26.1548 1213.75 24.7988 1212.73 23.4427L1211.87 22.3205L1213.01 21.4788C1217.4 18.1823 1221.92 17.2003 1226.32 18.5564ZM1233.35 24.5416C1234 25.8041 1234.11 26.786 1233.6 26.6691C1233.09 26.5522 1232.36 24.7754 1232.52 24.0506C1232.57 23.7233 1232.67 23.4427 1232.71 23.4427C1232.76 23.4427 1233.05 23.9337 1233.35 24.5416ZM1211.6 24.7286C1212.14 25.4066 1212.27 25.7339 1212.27 26.4821C1212.27 28.0953 1210.79 28.8902 1210.03 27.6978C1209.59 27.0198 1210.18 23.9103 1210.75 23.9103C1210.85 23.9103 1211.22 24.2844 1211.6 24.7286ZM1190.49 37.7745C1191.24 38.2889 1191.85 39.2241 1191.66 39.5747C1191.51 39.8787 1190.3 39.8553 1189.48 39.5046C1188.83 39.2241 1187.96 37.9615 1187.96 37.3069C1187.96 36.8393 1189.54 37.1433 1190.49 37.7745ZM1252.91 43.7831C1252.53 44.087 1251.45 44.087 1251.3 43.7831C1251.22 43.6428 1251.56 43.5493 1252.19 43.5493C1252.91 43.5493 1253.12 43.6194 1252.91 43.7831ZM1191.34 75.4626C1191.32 76.7953 1191.32 76.7485 1191.07 74.6443C1190.77 71.7686 1190.79 70.5763 1191.11 72.5402C1191.24 73.3818 1191.36 74.6911 1191.34 75.4626ZM1248.34 84.8847C1248.22 85.9601 1248.09 86.7784 1248.05 86.7317C1248.01 86.6849 1248.05 85.399 1248.17 83.8559C1248.26 82.3363 1248.37 80.3256 1248.39 79.4372C1248.43 78.2682 1248.45 78.5487 1248.51 80.3724C1248.55 81.7751 1248.47 83.8092 1248.34 84.8847ZM1214.26 80.1386C1217.57 80.349 1220.59 80.8166 1226.99 82.1258C1233.67 83.5286 1236.31 84.2066 1239.09 85.3055C1241.99 86.4511 1244.01 87.7604 1245.22 89.28C1245.81 90.0048 1246.4 90.5425 1246.63 90.5425C1246.85 90.5425 1247.03 90.6127 1247.03 90.7062C1247.03 91.0803 1245.94 93.0909 1245.2 94.0729C1243.8 95.9666 1243.21 97.9072 1242.35 103.518C1241.94 106.254 1241.84 107.82 1241.71 112.987C1241.54 120.141 1241.5 120.469 1239.87 123.765C1238.75 126.033 1238.29 127.623 1238.29 129.189C1238.29 129.961 1238.23 130.078 1237.93 129.937C1237.49 129.774 1237.23 130.078 1235.31 132.743C1232.53 136.577 1228.57 140.482 1225.17 142.656C1221.33 145.134 1218.02 145.952 1213.6 145.508C1209.42 145.111 1207.2 144.176 1204.2 141.557C1202.18 139.827 1201.33 138.658 1199.43 135.198C1197.21 131.13 1193.32 123.578 1192.44 121.614C1190.83 117.99 1190.6 113.876 1191.59 105.622C1192.16 100.9 1192.27 98.7254 1192.63 87.0823L1192.75 83.4819L1193.35 83.0377C1195.2 81.6349 1200.44 80.3724 1205.81 80.045C1208.68 79.858 1209.57 79.8814 1214.26 80.1386ZM1188.32 82.9909C1188.55 83.2247 1189.06 84.4872 1189.48 85.89C1190.52 89.3969 1190.75 92.5766 1190.35 97.5097C1190.07 101.063 1189.84 102.116 1189.42 101.928C1188.98 101.765 1187.56 98.0708 1186.72 94.9146C1185.72 91.1738 1185.43 88.9995 1185.68 86.6849C1185.98 83.7624 1186.48 82.5934 1187.39 82.5934C1187.67 82.5934 1188.09 82.7805 1188.32 82.9909ZM1249.29 95.3354C1249.93 96.8551 1250.08 100.596 1249.59 102.934C1248.92 106.067 1246.93 109.597 1245.34 110.415C1244.4 110.883 1244.29 110.579 1244.33 107.68C1244.4 103.659 1245.05 100.245 1246.53 96.1303C1247.14 94.447 1247.5 94.0027 1248.22 94.0963C1248.72 94.143 1248.89 94.3534 1249.29 95.3354ZM1143.4 125.823C1143.69 125.963 1144.01 126.454 1144.26 127.132C1145.11 129.517 1146.35 130.779 1148.3 131.247C1149.06 131.434 1149.4 131.621 1149.33 131.808C1149.29 131.971 1149.14 132.556 1149.01 133.094C1148.87 133.631 1148.59 134.169 1148.38 134.309C1148.15 134.45 1147.2 135.478 1146.25 136.624C1144.69 138.494 1144.45 138.705 1143.8 138.705C1143.25 138.705 1142.83 138.471 1142.05 137.746C1140.25 136.016 1137.44 131.808 1137.44 130.826C1137.44 129.867 1138.52 127.366 1139.34 126.454C1140.06 125.636 1140.16 125.612 1141.5 125.612C1142.28 125.612 1143.14 125.706 1143.4 125.823ZM1153.66 147.496C1148.61 158.391 1143.63 166.269 1140.63 168.187C1139.47 168.935 1139.6 168.701 1141.37 167.041C1143.21 165.264 1145.17 162.809 1146.5 160.612C1147.2 159.419 1150.98 151.751 1153.47 146.467C1154.1 145.111 1155.29 143.287 1155.43 143.451C1155.46 143.521 1154.68 145.345 1153.66 147.496ZM1195.44 160.214C1196.03 160.471 1196.7 161.734 1196.7 162.575C1196.7 163.791 1195.37 165.124 1194.13 165.124C1193.83 165.124 1193.41 164.843 1193.07 164.446C1192.61 163.861 1192.52 163.557 1192.52 162.599C1192.52 161.29 1192.82 160.822 1193.98 160.308C1194.87 159.934 1194.85 159.934 1195.44 160.214ZM1106.42 175.575C1106.27 175.925 1105.8 177.492 1105.34 179.035C1104.22 182.939 1103.86 183.898 1102.47 186.54C1099.28 192.712 1098.58 198.159 1100.61 200.988C1102.27 203.303 1106.6 203.163 1111.51 200.638C1114.69 199.024 1119.4 194.489 1123.21 189.369C1126.44 185.09 1128.74 182.355 1129.82 181.536L1130.79 180.788V182.612C1130.79 183.594 1130.66 185.417 1130.51 186.633C1129.99 190.584 1129.9 190.701 1129.92 187.452L1129.94 184.412L1129.42 184.342C1128.97 184.272 1128.68 184.623 1126.86 187.475C1118.73 200.217 1115.33 204.168 1110.39 206.599C1106.29 208.634 1101.07 208.189 1097.18 205.501C1093.97 203.256 1092.96 199.399 1094.21 193.998C1095.28 189.439 1097.48 185.02 1100.67 181.116C1102.32 179.082 1106.52 174.663 1106.63 174.826C1106.67 174.873 1106.58 175.201 1106.42 175.575ZM1146.25 213.169C1146.12 217.658 1145.87 220.44 1145.51 221.609C1145.25 222.451 1145.23 221.796 1145.32 214.104C1145.38 207.044 1145.64 201.737 1146.01 199.375C1146.14 198.58 1146.35 210.27 1146.25 213.169ZM1193.83 206.623C1195.04 207.885 1195.29 210.364 1194.36 212.07C1193.79 213.099 1192.54 213.847 1191.72 213.637C1190.79 213.403 1189.76 212.491 1189.48 211.65C1189.25 210.948 1189.27 210.784 1189.65 209.873C1190.5 207.909 1192.1 206.038 1192.94 206.038C1193.11 206.038 1193.51 206.296 1193.83 206.623ZM1365.69 231.686C1365.5 231.733 1365.2 231.733 1365.03 231.686C1364.84 231.616 1364.99 231.569 1365.35 231.569C1365.71 231.569 1365.86 231.616 1365.69 231.686ZM1188.81 255.954C1189.86 257.287 1190.35 259.905 1189.84 261.285C1189.73 261.589 1189.38 262.009 1189.1 262.243C1188.57 262.617 1188.53 262.617 1188.15 262.103C1187.66 261.448 1187.28 259.882 1187.01 257.427C1186.84 255.907 1186.84 255.487 1187.05 255.346C1187.56 254.925 1188.21 255.136 1188.81 255.954ZM1304.76 259.461C1304.76 259.508 1304.57 259.671 1304.34 259.812C1303.93 260.069 1303.93 260.046 1304.27 259.718C1304.67 259.321 1304.76 259.274 1304.76 259.461ZM1303.22 260.607C1303.19 260.653 1302.46 261.308 1301.63 262.033C1299.41 263.997 1297.72 265.727 1295.57 268.228C1294.53 269.444 1293.86 270.122 1294.07 269.748C1294.53 268.953 1295.74 267.504 1297.55 265.61C1298.78 264.301 1303 260.513 1303.21 260.513C1303.26 260.513 1303.26 260.56 1303.22 260.607Z" fill="black"/>
<path d="M87.8623 445.18C86.2823 445.18 84.8223 444.92 83.4823 444.4C82.1423 443.86 80.9823 443.11 80.0023 442.15C79.0223 441.19 78.2523 440.06 77.6923 438.76C77.1523 437.46 76.8823 436.04 76.8823 434.5C76.8823 432.96 77.1523 431.54 77.6923 430.24C78.2523 428.94 79.0223 427.81 80.0023 426.85C81.0023 425.89 82.1723 425.15 83.5123 424.63C84.8523 424.09 86.3123 423.82 87.8923 423.82C89.4123 423.82 90.8423 424.08 92.1823 424.6C93.5223 425.1 94.6523 425.86 95.5723 426.88L94.1623 428.29C93.3023 427.41 92.3523 426.78 91.3123 426.4C90.2723 426 89.1523 425.8 87.9523 425.8C86.6923 425.8 85.5223 426.02 84.4423 426.46C83.3623 426.88 82.4223 427.49 81.6223 428.29C80.8223 429.07 80.1923 429.99 79.7323 431.05C79.2923 432.09 79.0723 433.24 79.0723 434.5C79.0723 435.76 79.2923 436.92 79.7323 437.98C80.1923 439.02 80.8223 439.94 81.6223 440.74C82.4223 441.52 83.3623 442.13 84.4423 442.57C85.5223 442.99 86.6923 443.2 87.9523 443.2C89.1523 443.2 90.2723 443 91.3123 442.6C92.3523 442.2 93.3023 441.56 94.1623 440.68L95.5723 442.09C94.6523 443.11 93.5223 443.88 92.1823 444.4C90.8423 444.92 89.4023 445.18 87.8623 445.18ZM105.837 445.15C104.497 445.15 103.327 444.9 102.327 444.4C101.327 443.9 100.547 443.15 99.9874 442.15C99.4474 441.15 99.1774 439.9 99.1774 438.4V429.25H101.307V438.16C101.307 439.84 101.717 441.11 102.537 441.97C103.377 442.81 104.547 443.23 106.047 443.23C107.147 443.23 108.097 443.01 108.897 442.57C109.717 442.11 110.337 441.45 110.757 440.59C111.197 439.73 111.417 438.7 111.417 437.5V429.25H113.547V445H111.507V440.68L111.837 441.46C111.337 442.62 110.557 443.53 109.497 444.19C108.457 444.83 107.237 445.15 105.837 445.15ZM119.484 445V422.74H121.614V445H119.484ZM127.54 445V429.25H129.67V445H127.54ZM128.62 425.77C128.18 425.77 127.81 425.62 127.51 425.32C127.21 425.02 127.06 424.66 127.06 424.24C127.06 423.82 127.21 423.47 127.51 423.19C127.81 422.89 128.18 422.74 128.62 422.74C129.06 422.74 129.43 422.88 129.73 423.16C130.03 423.44 130.18 423.79 130.18 424.21C130.18 424.65 130.03 425.02 129.73 425.32C129.45 425.62 129.08 425.77 128.62 425.77ZM143.637 429.1C144.917 429.1 146.037 429.35 146.997 429.85C147.977 430.33 148.737 431.07 149.277 432.07C149.837 433.07 150.117 434.33 150.117 435.85V445H147.987V436.06C147.987 434.4 147.567 433.15 146.727 432.31C145.907 431.45 144.747 431.02 143.247 431.02C142.127 431.02 141.147 431.25 140.307 431.71C139.487 432.15 138.847 432.8 138.387 433.66C137.947 434.5 137.727 435.52 137.727 436.72V445H135.597V429.25H137.637V433.57L137.307 432.76C137.807 431.62 138.607 430.73 139.707 430.09C140.807 429.43 142.117 429.1 143.637 429.1ZM165.74 445V441.52L165.65 440.95V435.13C165.65 433.79 165.27 432.76 164.51 432.04C163.77 431.32 162.66 430.96 161.18 430.96C160.16 430.96 159.19 431.13 158.27 431.47C157.35 431.81 156.57 432.26 155.93 432.82L154.97 431.23C155.77 430.55 156.73 430.03 157.85 429.67C158.97 429.29 160.15 429.1 161.39 429.1C163.43 429.1 165 429.61 166.1 430.63C167.22 431.63 167.78 433.16 167.78 435.22V445H165.74ZM160.31 445.15C159.13 445.15 158.1 444.96 157.22 444.58C156.36 444.18 155.7 443.64 155.24 442.96C154.78 442.26 154.55 441.46 154.55 440.56C154.55 439.74 154.74 439 155.12 438.34C155.52 437.66 156.16 437.12 157.04 436.72C157.94 436.3 159.14 436.09 160.64 436.09H166.07V437.68H160.7C159.18 437.68 158.12 437.95 157.52 438.49C156.94 439.03 156.65 439.7 156.65 440.5C156.65 441.4 157 442.12 157.7 442.66C158.4 443.2 159.38 443.47 160.64 443.47C161.84 443.47 162.87 443.2 163.73 442.66C164.61 442.1 165.25 441.3 165.65 440.26L166.13 441.73C165.73 442.77 165.03 443.6 164.03 444.22C163.05 444.84 161.81 445.15 160.31 445.15ZM181.867 445V424H184.087V445H181.867ZM198.51 429.1C199.79 429.1 200.91 429.35 201.87 429.85C202.85 430.33 203.61 431.07 204.15 432.07C204.71 433.07 204.99 434.33 204.99 435.85V445H202.86V436.06C202.86 434.4 202.44 433.15 201.6 432.31C200.78 431.45 199.62 431.02 198.12 431.02C197 431.02 196.02 431.25 195.18 431.71C194.36 432.15 193.72 432.8 193.26 433.66C192.82 434.5 192.6 435.52 192.6 436.72V445H190.47V429.25H192.51V433.57L192.18 432.76C192.68 431.62 193.48 430.73 194.58 430.09C195.68 429.43 196.99 429.1 198.51 429.1ZM217.283 445.15C215.723 445.15 214.323 444.81 213.083 444.13C211.863 443.43 210.903 442.48 210.203 441.28C209.503 440.06 209.153 438.67 209.153 437.11C209.153 435.53 209.503 434.14 210.203 432.94C210.903 431.74 211.863 430.8 213.083 430.12C214.323 429.44 215.723 429.1 217.283 429.1C218.623 429.1 219.833 429.36 220.913 429.88C221.993 430.4 222.843 431.18 223.463 432.22L221.873 433.3C221.333 432.5 220.663 431.91 219.863 431.53C219.063 431.15 218.193 430.96 217.253 430.96C216.133 430.96 215.123 431.22 214.223 431.74C213.323 432.24 212.613 432.95 212.093 433.87C211.573 434.79 211.313 435.87 211.313 437.11C211.313 438.35 211.573 439.43 212.093 440.35C212.613 441.27 213.323 441.99 214.223 442.51C215.123 443.01 216.133 443.26 217.253 443.26C218.193 443.26 219.063 443.07 219.863 442.69C220.663 442.31 221.333 441.73 221.873 440.95L223.463 442.03C222.843 443.05 221.993 443.83 220.913 444.37C219.833 444.89 218.623 445.15 217.283 445.15Z" fill="black"/>
</g>
<defs>
<clipPath id="clip0_411_36">
<rect width="1500" height="500" fill="white"/>
</clipPath>
</defs>
</svg>
