<svg width="1500" height="500" viewBox="0 0 1500 500" fill="none" xmlns="http://www.w3.org/2000/svg">
<g clip-path="url(#clip0_411_4)">
<rect width="1500" height="500" fill="white"/>
<rect width="1500" height="500" rx="30" fill="#AD00FF" fill-opacity="0.25"/>
<path d="M341.711 20.4181C328.907 23.1972 330.578 37.4975 345.242 50.6916L347.048 52.3105L345.943 52.4724C344.838 52.6073 344.002 53.174 343.463 54.1453C343.301 54.4421 343.086 56.4387 342.978 58.5973C342.789 62.8334 342.358 64.5063 340.579 68.0409C339.15 70.928 336.508 75.353 335.322 76.9449C333.409 79.4542 331.71 82.3683 330.848 84.6077C330.389 85.7679 329.662 87.4138 329.203 88.2503C328.556 89.4915 328.422 89.9771 328.556 90.9215C328.691 91.8658 328.556 92.3785 327.91 93.6736C326.023 97.3971 326.4 102.335 328.718 104.304L329.608 105.033L328.476 108.864C327.478 112.21 324.217 121.33 323.57 122.571C323.381 122.976 323.192 122.895 322.33 122.059C320.497 120.359 317.801 119.549 315.645 120.062C311.197 121.168 310.496 121.627 308.528 124.514C307.1 126.618 306.426 127.32 304.296 128.831C302.975 129.775 302.032 131.259 302.032 132.366C302.032 132.662 300.684 132.77 294.969 132.878C288.716 132.986 286.263 133.175 274.132 134.524C258.471 136.278 251.759 137.087 245.424 138.086C241.327 138.706 232.89 140.325 231.03 140.838C229.979 141.135 229.547 141.809 229.979 142.511C230.356 143.104 230.41 143.05 224.668 147.098C219.466 150.767 218.172 152.332 216.339 157.108C215.719 158.7 214.614 160.831 213.859 161.965C210.031 167.577 200.731 175.078 188.008 182.849C179.221 188.218 175.743 191.186 171.215 197.284C163.748 207.348 162.158 209.156 160.864 209.156C160.432 209.156 159.866 209.372 159.597 209.668C159.354 209.938 157.09 211.476 154.583 213.095C152.049 214.714 149.92 216.252 149.839 216.522C149.758 216.792 149.866 217.223 150.108 217.493C150.54 217.952 150.513 218.087 149.758 219.301C149.3 220.029 148.329 222.431 147.601 224.616C145.876 229.662 144.825 231.659 142.399 234.492C138.517 238.971 137.277 240.617 136.226 242.748C134.096 247.092 134.231 250.492 136.927 259.882C139.515 268.867 141.86 275.072 144.286 279.201C145.661 281.575 146.038 281.899 146.874 281.521C147.386 281.278 147.547 280.954 147.682 279.659C147.979 276.934 148.734 272.833 148.922 272.833C149.03 272.833 149.434 273.507 149.839 274.317C150.216 275.126 150.674 275.801 150.809 275.801C150.944 275.801 151.672 277.042 152.4 278.553C154.421 282.816 156.119 284.867 158.626 286C159.732 286.486 165.069 286.621 169.004 286.243C173.425 285.811 178.574 283.787 186.121 279.497C192.321 275.963 195.017 272.914 195.825 268.435C196.149 266.816 195.879 264.495 195.259 263.308C195.071 262.984 195.745 263.47 196.742 264.388C198.979 266.492 201.837 268.435 205.368 270.27C208.683 271.996 209.303 272.725 209.303 275.018C209.303 276.098 209.061 277.258 208.468 278.823C206.958 282.843 206.365 285.217 203.885 296.712C198.925 319.916 193.049 346.304 185.447 379.816C183.776 387.236 181.647 395.735 180.299 400.322C177.01 411.735 174.045 422.285 173.56 424.39C173.048 426.629 173.209 428.707 173.991 430.056L174.557 431.027L157.899 430.865C148.734 430.757 136.199 430.541 130.053 430.38C106.817 429.759 72.1787 430.029 62.2589 430.919C60.5068 431.081 60.372 431.135 60.1294 431.837C59.9137 432.403 59.9677 432.673 60.2911 433.024C60.6955 433.402 61.2885 433.429 66.7605 433.105C76.9499 432.538 109.108 432.457 132.614 432.943C144.178 433.186 159.408 433.456 166.444 433.509C174.261 433.59 179.733 433.752 180.461 433.914C184.558 434.913 212.43 434.292 229.655 432.835C236.205 432.268 243.43 431.459 244.023 431.216C244.777 430.892 244.858 429.489 244.157 429.084C243.376 428.68 238.092 428.248 233.968 428.248C231.866 428.248 225.558 428.599 219.924 429.057C206.311 430.11 202.187 430.326 189.733 430.73L179.221 431.054L178.008 430.38C177.145 429.894 176.66 429.381 176.175 428.41L175.501 427.088L176.768 422.204C177.469 419.506 178.466 415.728 178.978 413.813C179.49 411.87 180.73 407.256 181.674 403.56C182.644 399.836 183.722 396.194 184.073 395.465C184.423 394.71 185.286 391.742 185.96 388.855C189.68 372.935 198.898 331.734 203.643 309.798C208.657 286.674 209.007 285.11 210.166 281.413C211.083 278.418 211.271 277.42 211.298 275.477C211.325 274.155 211.379 273.103 211.433 273.103C211.487 273.103 212.43 273.426 213.509 273.831C215.8 274.668 215.773 274.614 215.773 279.416V282.33L216.797 283.356C219.088 285.676 227.58 287.106 230.06 285.595C230.437 285.379 231.003 284.867 231.326 284.489C231.919 283.787 231.919 283.787 232.512 284.3C233.375 285.11 237.877 285.083 239.225 284.273C240.518 283.518 241.381 282.169 241.381 280.9C241.381 279.713 241.516 279.632 242.271 280.334C242.675 280.685 243.268 280.792 244.993 280.792C246.934 280.792 247.392 280.685 248.983 279.902C251.274 278.769 251.975 277.744 251.975 275.558C251.948 274.074 251.975 274.02 252.945 273.453C254.455 272.563 257.959 269.487 259.037 268.057C259.927 266.87 260.035 266.627 259.927 265.386C259.765 263.578 258.821 262.256 254.455 257.723C250.33 253.433 248.875 251.382 248.255 248.792C248.012 247.794 247.527 246.66 247.203 246.31C246.88 245.959 245.424 245.042 243.942 244.232C242.459 243.45 239.305 241.696 236.933 240.374C231.488 237.298 227.229 235.247 224.803 234.492C222.97 233.925 222.889 233.844 222.997 233.143C223.078 232.684 222.889 231.982 222.539 231.416C222.242 230.903 222.054 230.471 222.134 230.471C222.215 230.471 223.294 231.2 224.507 232.09C226.771 233.736 228.496 234.519 229.763 234.519C230.706 234.492 232.243 233.763 233.402 232.711C236.34 230.067 241.408 217.709 243.403 208.211C244.023 205.324 244.238 198.417 243.807 195.773C243.295 192.454 241.381 187.516 240.518 187.247C239.979 187.058 239.278 187.301 239.117 187.732C239.036 187.948 238.605 191.078 238.146 194.667C237.014 203.678 236.152 209.803 234.885 217.385C232.89 229.338 232.566 230.552 230.949 231.82C229.709 232.792 228.55 232.441 224.911 229.959C221.514 227.611 217.633 225.561 214.533 224.454C210.247 222.916 203.724 221.648 197.308 221.055C194.639 220.812 193.939 220.947 193.939 221.675C193.966 222.458 194.586 222.728 197.578 223.213C204.101 224.293 209.492 225.992 215.369 228.826C218.981 230.579 220.895 231.955 220.895 232.792C220.895 233.655 220.032 233.466 218.415 232.225C216.123 230.498 215.8 230.363 211.487 229.149C205.071 227.315 199.95 226.37 195.825 226.235C193.831 226.181 191.728 225.992 191.189 225.831C188.143 224.913 181.458 227.611 175.743 232.036C159.651 244.475 148.895 259.693 146.065 274.02L145.607 276.421L144.987 275.234C142.857 271.187 138.382 257.399 137.439 252.084C136.576 247.119 137.547 243.854 141.24 239.51C146.847 232.873 147.979 231.065 149.461 226.154C150.728 221.999 151.86 219.733 153.289 218.438C155.068 216.792 155.958 216.576 160.783 216.576C165.904 216.603 169.031 217.223 173.964 219.166C177.549 220.623 178.385 220.731 178.52 219.733C178.601 219.193 178.304 218.977 176.363 218.087C173.479 216.738 168.25 214.984 165.5 214.417C164.314 214.174 162.077 213.878 160.513 213.797L157.683 213.608L158.95 212.852C159.651 212.448 160.405 212.124 160.648 212.124C162.077 212.124 165.419 208.778 169.57 203.139C177.819 191.941 178.924 190.889 190.165 184.09C195.421 180.906 199.572 178.073 204.047 174.592C212.161 168.359 215.719 164.231 217.956 158.457C219.412 154.706 219.897 153.762 221.083 152.467C222.081 151.361 226.124 148.258 230.14 145.479L232.216 144.022L233.186 144.966C234.453 146.18 235.154 147.367 235.72 149.202C236.259 150.929 236.798 151.442 237.445 150.902C238.362 150.12 237.85 146.693 236.367 143.752C235.855 142.727 235.478 141.863 235.505 141.809C235.666 141.674 241.57 140.622 245.317 140.082C247.392 139.786 258.363 138.517 269.712 137.222C287.61 135.226 291.115 134.902 296.506 134.767L302.706 134.632L304.404 138.005C305.347 139.893 307.288 143.374 308.744 145.802C311.763 150.821 319.445 162.828 320.82 164.636C323.219 167.82 326.211 170.248 329.662 171.759L331.279 172.487L329.257 172.326C328.152 172.218 324.378 171.786 320.901 171.354C313.785 170.437 306.453 170.086 303.407 170.518C300.657 170.923 300.253 171.354 299.768 174.484C299.552 175.833 299.363 177.398 299.363 177.992C299.363 178.585 299.228 180.204 299.067 181.553C298.932 182.929 298.608 188.326 298.393 193.56C297.881 205.756 297.611 208.427 296.317 215.227C295.697 218.518 295.751 221.298 296.479 222.997C296.829 223.888 296.829 224.104 296.479 224.967C296.263 225.507 295.886 227.773 295.67 230.04C295.212 234.842 295.158 235.22 294.322 238.566C293.568 241.588 292.166 245.797 290.09 251.274C287.772 257.399 286.694 260.556 285.858 263.929C284.753 268.381 284.457 270.917 284.564 275.153C284.645 278.391 284.726 279.066 285.238 280.037C285.75 281.035 285.777 281.197 285.427 281.494C284.537 282.223 284.268 283.383 283.971 287.295C283.459 294.391 282.624 299.302 280.844 306.02C280.305 308.017 279.416 311.417 278.823 313.575C278.257 315.734 276.801 321.562 275.588 326.527C272.758 337.994 272.677 339.694 274.86 342.068C275.372 342.662 275.372 342.662 274.86 343.687C273.836 345.684 271.437 354.507 270.493 359.795C270.197 361.441 269.577 366.676 269.146 371.397C268.229 381.111 267.852 383.674 266.666 387.91C265.534 391.931 265.372 394.791 266.153 396.571C266.504 397.327 266.639 397.92 266.477 397.974C265.776 398.217 264.833 399.216 264.32 400.268C264.024 400.888 263.215 404.315 262.541 407.877C261.517 413.246 261.194 414.433 260.735 414.784C260.385 415.054 260.25 415.351 260.385 415.567C260.493 415.728 260.466 416.16 260.304 416.457C257.743 422.042 256.342 423.85 252.46 426.629C248.983 429.111 247.554 430.703 246.907 432.754C246.637 433.617 246.287 434.508 246.098 434.724C245.91 434.94 245.694 435.425 245.64 435.803L245.559 436.477L236.529 437.476C228.604 438.366 226.744 438.474 221.299 438.474C214.91 438.447 212.538 438.663 209.654 439.58C208.63 439.904 205.449 440.363 201.298 440.795C190.623 441.874 180.434 443.331 176.579 444.329C174.18 444.95 168.735 447.837 167.764 448.997C165.985 451.156 165.419 454.852 165.177 465.78C165.015 473.173 165.042 473.524 165.527 473.793C166.551 474.333 177.469 476.114 184.774 476.923C199.68 478.623 212.323 479.163 251.355 479.81C272.084 480.161 321.629 479.999 333.166 479.54C361.362 478.407 380.581 476.869 404.195 473.82C413.656 472.606 415.462 472.066 417.511 469.8C419.371 467.749 420.314 464.35 420.557 459.007C420.746 455.176 420.287 453.071 418.805 450.913C417.322 448.727 415.624 447.783 412.686 447.54C411.042 447.405 410.395 447.243 410.395 447C410.395 446.785 410.529 446.542 410.691 446.434C411.015 446.245 410.934 444.194 410.395 439.985C410.044 437.179 410.152 435.371 411.069 429.597C411.419 427.304 411.823 424.74 411.958 423.931L412.174 422.447L412.389 425.145C413.036 433.509 414.815 440.498 417.107 443.52C418.805 445.786 421.608 446.677 423.953 445.678C424.924 445.301 426.299 443.817 426.299 443.196C426.299 442.683 426.541 442.71 428.212 443.466C430.504 444.518 432.094 444.518 433.145 443.466C433.711 442.872 433.846 442.494 433.846 441.388V440.039L435.41 440.201C436.245 440.309 443.496 440.525 451.502 440.687C475.736 441.172 515.172 440.579 545.363 439.284C549.245 439.095 552.614 439.041 552.857 439.122C553.207 439.284 553.207 439.365 552.722 439.85C551.994 440.579 551.778 441.604 552.183 442.548C552.911 444.302 555.121 444.869 557.385 443.817C559.299 442.953 560 442.225 560 441.172C560 439.257 558.113 437.719 554.851 436.963C552.991 436.558 552.075 436.558 540.592 436.963C513.393 437.988 507.894 438.069 470.506 438.069L432.633 438.096L430.962 434.751C429.183 431.189 427.808 427.385 426.73 422.933C426.353 421.422 425.867 419.803 425.625 419.371C425.14 418.4 423.468 416.727 422.767 416.511C422.498 416.403 422.013 415.782 421.716 415.108C420.557 412.491 417.646 409.118 414.168 406.366C413.279 405.664 406.216 400.133 402.604 397.3C402.55 397.273 402.82 396.976 403.224 396.652C404.249 395.843 406.243 392.956 407.133 390.959C408.535 387.883 409.963 382.055 410.826 376.038C411.203 373.475 411.284 371.128 411.257 364.868C411.203 356.395 411.365 354.237 412.416 349.596C413.495 344.874 413.225 341.717 411.635 339.613L410.934 338.695L411.608 338.021C413.899 335.727 411.931 332.355 407.025 330.169L404.599 329.09H400.367H396.108L397.941 328.469C398.938 328.146 401.553 327.363 403.737 326.796C409.37 325.285 410.907 324.368 412.174 321.805C412.821 320.456 412.875 320.159 412.686 318.324L412.524 316.354L413.737 315.626C415.624 314.52 416.028 313.225 414.95 311.849C414.007 310.634 411.877 309.771 407.726 308.934C405.596 308.503 403.602 308.017 403.278 307.855C402.766 307.585 402.766 307.558 403.251 307.208C403.898 306.722 404.976 306.749 407.025 307.235C409.316 307.801 411.257 307.747 412.012 307.154L412.632 306.641L412.686 296.01C412.74 285.352 412.794 284.354 414.168 269.19C416.136 247.767 416.271 236.677 414.708 226.289C414.411 224.347 414.007 222.161 413.791 221.432C413.575 220.677 413.333 219.409 413.225 218.599C412.955 216.36 412.335 214.336 411.311 212.394C410.529 210.937 410.395 210.37 410.395 208.886C410.395 205.216 409.02 201.709 406.513 198.984C405.785 198.174 400.933 194.1 395.731 189.891C390.528 185.682 385.299 181.391 384.113 180.366C380.959 177.641 378.775 174.916 377.239 171.786L375.918 169.088L376.08 165.121L376.241 161.155L377.616 160.723C382.118 159.266 386.107 155.759 391.714 148.393C395.138 143.86 400.07 135.981 402.2 131.637C402.847 130.342 403.063 130.099 403.683 130.099C404.249 130.099 404.68 129.667 406.028 127.887C406.917 126.672 408.454 124.271 409.397 122.544C411.958 117.93 423.414 94.2942 424.223 92.0277C424.358 91.623 424.52 91.65 425.652 92.2166C427.97 93.4038 429.183 93.0261 433.604 89.7613C444.979 81.3429 454.575 72.2771 458.214 66.449C460.263 63.1842 461.88 58.975 461.88 56.8705C461.88 53.5517 460.182 51.8518 455.923 50.8805C452.311 50.071 451.044 49.2076 447.567 45.0524C443.038 39.683 440.424 37.8753 436.838 37.6055C434.547 37.4436 433.038 38.0911 430.207 40.3306C429.183 41.167 428.293 41.7876 428.239 41.7336C428.186 41.6797 428.482 40.4925 428.886 39.0624C429.749 36.0945 429.614 35.3929 428.132 34.7454C427.107 34.2867 399.451 27.9999 386.458 25.2478C366.618 21.0656 347.992 19.069 341.711 20.4181ZM359.852 22.9813C371.713 24.3574 379.665 25.8684 405.462 31.6155C416.109 33.9629 425.355 35.9865 426.002 36.0945C426.622 36.2024 427.215 36.4453 427.296 36.6611C427.377 36.877 426.999 38.5498 426.433 40.3576C425.894 42.1924 425.49 43.8922 425.544 44.189C425.679 44.9175 426.838 44.9715 428.105 44.3239C428.698 44.0271 430.072 43.1097 431.178 42.2733C434.655 39.6021 436.057 39.2243 438.86 40.2766C440.504 40.8972 442.715 42.9208 447.082 47.8046C449.696 50.7186 451.368 51.7439 455.168 52.7152C458.349 53.5247 459.293 53.9834 459.859 55.0896C460.694 56.7086 458.268 62.9953 455.115 67.2585C452.904 70.2804 446.569 76.5402 441.367 80.8573C435.733 85.5791 429.749 90.112 428.536 90.5977C427.646 90.9754 427.458 90.9754 426.541 90.5707C425.409 90.0581 424.52 89.1677 423.63 87.7106C422.363 85.5791 415.867 80.2367 410.664 77.0528C404.68 73.4103 395.272 69.6868 390.798 69.2011C389.504 69.0662 389.369 69.0932 389.369 69.6059C389.369 70.3614 391.472 72.6008 393.17 73.6262C393.978 74.1118 397.806 76.0275 401.715 77.8623C409.909 81.7477 414.303 84.0951 418.05 86.5774C421.42 88.8169 422.525 89.7882 422.525 90.5437C422.525 90.8675 420.961 94.3482 419.047 98.2605C417.161 102.2 414.303 108.19 412.686 111.617C409.397 118.686 406.567 124.244 405.812 125.242L405.273 125.917V125.215C405.273 123.677 403.386 120.601 401.041 118.308C393.143 110.537 383.385 103.333 375.352 99.3398C366.915 95.1306 360.58 93.6197 349.528 93.134C346.024 92.9721 341.684 92.7293 339.905 92.5674C336.913 92.2975 331.495 91.4072 331.225 91.1373C331.144 91.0834 331.171 90.3549 331.279 89.5184C331.441 88.3043 332.007 87.0901 334.244 83.0968C335.754 80.3716 337.856 76.9989 338.934 75.5958C342.277 71.1708 346.725 61.7542 347.614 57.2752C347.884 55.8991 348.019 55.6293 348.369 55.7912C349.474 56.2769 350.768 56.2229 351.334 55.6562C352.305 54.6849 352.035 54.1183 349.555 51.7979C342.547 45.2953 339.258 41.3829 337.344 37.4436C336.185 35.0692 335.188 31.5885 335.188 29.9966C335.188 26.354 337.587 23.6559 341.873 22.5766C344.056 22.01 353.491 22.2258 359.852 22.9813ZM349.744 54.577C349.744 54.9547 349.609 54.8738 348.908 54.1183L348.261 53.3898L349.016 53.8755C349.42 54.1183 349.744 54.4421 349.744 54.577ZM346.401 54.604C345.539 58.7322 345.35 59.5686 345.161 59.7575C345.053 59.8654 344.892 59.002 344.784 57.7878C344.649 56.088 344.703 55.4404 345.027 54.8198C345.539 53.8215 346.59 53.6596 346.401 54.604ZM397.159 72.331C403.575 74.4356 409.289 77.4846 414.33 81.3969C417.026 83.5285 417.43 84.0411 415.489 82.8809C412.902 81.3969 408.804 79.3733 401.715 76.1355C395.731 73.3833 392.334 71.5755 392.334 71.1438C392.334 70.82 393.439 71.0898 397.159 72.331ZM331.764 93.2689C334.244 94.0244 339.123 94.4831 347.129 94.7529C359.96 95.1846 364.947 96.2369 373.384 100.284C381.174 104.008 387.779 108.783 397.267 117.472C401.364 121.249 402.523 122.463 403.197 123.758C403.602 124.568 403.575 124.622 401.257 129.29C398.669 134.443 396.755 137.735 394.005 141.701C389.072 148.797 382.495 156.002 379.53 157.54C377.589 158.538 374.516 159.482 369.961 160.454C365.729 161.371 364.03 162.019 359.583 164.366C354.569 167.01 354.165 167.064 349.312 165.85C340.417 163.637 336.508 161.155 334.109 156.163C332.195 152.143 329.985 146.855 329.742 145.587C329.527 144.534 329.635 140.649 330.174 130.072C331.144 110.78 331.279 108.837 331.926 107.03C332.222 106.193 333.247 104.466 334.19 103.171C336.616 99.9064 337.614 98.2605 337.614 97.532C337.614 96.9654 337.506 96.9114 336.266 96.9114C333.732 96.9114 331.98 98.3145 330.767 101.363C330.201 102.74 330.12 102.82 329.742 102.362C328.449 100.905 328.422 97.2622 329.635 94.537C330.066 93.6197 330.416 92.8642 330.443 92.8642C330.443 92.8642 331.063 93.053 331.764 93.2689ZM333.813 100.284C332.896 101.39 332.088 102.308 332.034 102.308C331.683 102.308 333.435 99.5287 334.163 98.9621C335.646 97.8018 335.538 98.1526 333.813 100.284ZM328.422 124.433C328.152 129.856 327.856 136.818 327.775 139.947C327.586 145.182 327.613 145.749 328.125 147.367L328.691 149.121L327.883 148.177C327.424 147.664 326.023 145.155 324.783 142.619C323.516 140.082 321.844 137.168 321.063 136.143C318.556 132.824 318.475 132.231 320.47 131.232C321.171 130.909 322.033 130.18 322.491 129.559C323.381 128.318 326.238 121.735 327.775 117.337C328.341 115.745 328.826 114.477 328.853 114.504C328.88 114.558 328.664 119.01 328.422 124.433ZM318.205 123.003C318.879 123.246 320.065 123.839 320.847 124.379C322.114 125.215 322.276 125.404 322.114 126.025C321.737 127.59 320.766 128.885 319.418 129.613C317.72 130.531 317.397 130.989 317.397 132.581C317.397 134.2 317.774 134.983 319.661 137.141C321.036 138.706 324.648 145.074 324.324 145.371C324.136 145.56 319.634 140.703 318.098 138.625C315.24 134.794 313.731 131.151 312.949 126.214C312.491 123.381 312.572 123.03 313.758 122.517C314.432 122.247 316.588 122.463 318.205 123.003ZM311.736 126.996C312.868 134.929 315.995 140.028 324.136 147.152C327.613 150.227 328.287 150.659 328.88 150.066C329.069 149.877 329.608 150.902 330.605 153.303C332.169 157.189 333.247 159.132 334.945 161.155L336.05 162.477L335.026 164.285C333.975 166.201 331.414 170.302 331.279 170.302C330.929 170.302 328.88 169.25 327.478 168.386C324.163 166.282 321.952 163.341 313.839 150.335C310.146 144.453 307.234 139.381 305.887 136.602L304.916 134.578L305.563 134.173C306.83 133.337 307.72 132.204 307.639 131.475C307.558 130.882 307.396 130.747 306.507 130.639L305.428 130.504L306.426 129.748C307.827 128.669 308.609 127.806 309.903 125.836C310.496 124.892 311.089 124.244 311.197 124.352C311.305 124.46 311.547 125.647 311.736 126.996ZM374.408 164.825C374.031 170.248 374.031 170.383 373.384 171.354C372.764 172.299 372.36 172.595 369.098 174.7C367.4 175.779 366.403 177.209 367.103 177.479C367.696 177.695 373.384 174.673 374.57 173.513L375.541 172.541L376.295 174.106C377.347 176.319 378.991 178.504 381.174 180.555C382.226 181.526 387.347 185.763 392.604 189.999C397.86 194.235 403.036 198.552 404.087 199.631C407.025 202.572 408.238 205.486 408.238 209.614C408.238 210.829 408.103 211.908 407.969 211.989C407.483 212.286 406.648 214.174 406.109 216.225C405.489 218.411 404.896 223.672 405.165 224.373C405.354 224.886 406.432 224.94 406.863 224.454C407.295 223.888 408.912 219.247 409.424 216.98C409.694 215.874 409.963 214.768 410.044 214.552C410.287 213.878 411.203 216.927 411.365 219.004C411.473 220.029 411.662 221.028 411.769 221.19C412.12 221.621 413.009 228.259 413.333 232.765C413.953 240.913 413.683 248.63 412.147 266.357C411.635 272.212 411.069 278.769 410.88 280.927C410.691 283.167 410.556 289.265 410.529 295.147V305.481H409.721C409.289 305.454 408.184 305.292 407.295 305.076C403.251 304.105 400.69 305.103 400.69 307.639C400.69 309.501 401.93 310.122 407.618 311.147C412.282 311.983 414.115 312.928 412.848 313.818C410.718 315.302 410.556 315.545 410.61 317.299C410.637 318.216 410.664 319.053 410.691 319.161C410.907 320.483 409.505 322.344 407.618 323.262C406.998 323.559 404.491 324.341 402.038 325.016C392.118 327.714 385.676 330.493 382.953 333.191C381.821 334.324 381.525 334.783 381.606 335.35C381.714 336.348 382.441 336.753 383.223 336.267C388.345 333.056 394.922 331.114 400.61 331.114C403.763 331.114 405.138 331.437 406.19 332.436C406.675 332.894 407.052 333.029 407.51 332.894C408.427 332.678 410.395 334.594 410.395 335.7C410.395 337.265 409.559 337.05 408.238 335.134C406.567 332.652 404.626 332.274 404.114 334.297C403.71 335.943 405.084 337.886 407.537 339.127C409.532 340.125 410.341 340.989 410.853 342.689C411.338 344.416 411.23 345.684 410.233 349.893C409.559 352.699 409.505 353.293 409.316 363.357C409.155 372.045 409.02 374.419 408.562 376.983C407.241 384.591 405.731 389.529 403.952 392.281C402.308 394.818 402.254 394.818 401.122 392.767C396.809 385.077 388.21 379.6 382.28 380.76C377.293 381.731 371.713 386.561 370.392 391.067L370.042 392.173L369.583 390.986C368.829 389.124 368.748 387.209 369.287 384.807L369.772 382.703L369.044 381.381C366.996 377.657 366.268 375.499 365.998 372.099C365.81 369.482 366.241 367.026 367.481 363.762C368.829 360.173 368.802 358.77 367.319 355.505C366.699 354.156 366.187 352.699 366.187 352.24C366.187 350.945 367.157 349.839 371.767 345.819C374.166 343.741 376.268 341.906 376.457 341.744C376.942 341.232 376.484 340.287 375.729 340.287C375.379 340.287 372.926 341.502 370.338 343.013C367.723 344.497 365.54 345.657 365.459 345.576C365.27 345.387 370.689 329.333 373.007 323.154C374.139 320.186 375.81 316.058 376.727 313.98C377.913 311.336 378.425 309.852 378.452 308.988C378.479 308.152 379.18 305.993 380.662 302.243C384.679 292.071 388.587 281.44 389.288 278.823C390.178 275.396 390.474 270.431 389.8 269.892C389.207 269.379 387.94 269.946 387.078 271.079C385.595 272.995 384.625 276.017 381.255 289.157C376.457 307.828 377.967 303.808 359.717 346.628C353.302 361.684 351.9 365.515 351.9 367.971C351.9 369.212 352.952 371.02 354.084 371.748C355.243 372.477 356.051 373.853 356.321 375.58C356.429 376.281 356.24 378.736 355.809 381.92C354.785 389.826 354.596 393.388 354.434 406.393C354.299 416.835 354.218 418.777 353.76 421.368C353.113 424.767 353.059 427.385 353.518 431.081C353.868 433.806 353.787 437.8 353.356 438.231C353.032 438.555 349.286 437.044 346.752 435.533C344.784 434.373 342.87 432.592 336.805 426.17C334.595 423.85 333.921 423.31 331.872 422.312C329.85 421.314 329.23 421.125 327.424 421.017C325.591 420.936 325.079 421.017 323.084 421.745C319.796 422.96 319.445 422.906 317.801 421.044C313.084 415.648 309.04 413.138 302.301 411.384C299.983 410.791 298.662 410.629 295.158 410.521C287.341 410.251 282.327 411.384 268.067 416.511C266.046 417.239 264.051 417.32 263.431 416.7C263.107 416.376 265.776 402.076 266.369 400.915C266.908 399.836 268.364 399.27 269.577 399.647C272.299 400.565 276.235 400.43 278.284 399.404C278.85 399.108 279.685 398.433 280.144 397.894C281.707 396.14 281.168 393.549 279.011 392.524C277.96 392.038 275.75 391.958 274.618 392.389C273.054 392.983 271.329 395.303 271.302 396.868C271.302 397.57 271.248 397.597 269.873 397.192C267.501 396.544 267.259 394.386 268.849 388.207C270.062 383.512 270.547 380.409 271.302 371.883C272.138 362.466 272.866 358.203 274.833 350.999C275.723 347.734 276.936 344.281 277.34 343.876C277.367 343.849 278.607 344.092 280.036 344.47C283.082 345.252 284.672 345.306 286.559 344.739C289.605 343.849 291.6 340.152 290.009 338.345C288.877 337.104 285.777 336.618 283.89 337.427C283.082 337.751 281.276 339.505 281.276 339.964C281.276 340.072 280.683 340.179 279.982 340.179C279.254 340.206 278.284 340.422 277.852 340.638C277.071 341.07 277.017 341.043 276.289 340.287C274.887 338.83 274.995 337.913 277.745 326.257C279.065 320.537 280.44 314.655 280.764 313.171C281.06 311.687 281.491 310.284 281.707 310.068C282.219 309.474 283.81 303.781 284.618 299.626C285.427 295.552 286.128 289.13 286.128 286.054C286.128 284.084 286.182 283.841 286.883 283.086L287.61 282.276L289.039 282.816C291.034 283.572 293.568 283.545 294.781 282.735C297.315 281.035 297.153 277.393 294.511 276.583C293.082 276.152 291.573 276.718 289.201 278.526L287.503 279.848L287.017 279.12C286.613 278.499 286.532 277.771 286.532 274.047C286.559 267.598 287.314 264.495 291.869 252.192C296.102 240.805 296.91 237.703 297.557 230.741C298.069 225.399 298.015 225.48 299.309 226.127C299.848 226.424 300.846 226.721 301.493 226.829C302.867 227.018 306.048 226.451 307.558 225.723C309.472 224.832 309.795 222.647 308.205 221.136C307.504 220.461 307.18 220.353 305.401 220.272C303.164 220.137 300.226 220.866 298.986 221.837L298.285 222.404L298.015 221.379C297.584 219.841 297.638 218.761 298.501 213.689C299.579 207.429 299.821 204.542 300.145 195.287C300.63 181.284 301.331 173.621 302.194 172.73C302.517 172.407 303.568 172.326 308.447 172.326C313.515 172.353 315.132 172.461 320.551 173.216C323.974 173.702 328.422 174.187 330.443 174.322C333.193 174.484 334.163 174.646 334.514 174.97C334.756 175.213 335.888 175.725 337.048 176.076C340.067 177.02 347.614 178.936 348.396 178.936C349.717 178.936 351.388 177.803 353.733 175.267C356.671 172.056 358.1 171.084 361.766 169.735C364.893 168.575 366.052 167.982 367.535 166.686C368.505 165.85 369.853 164.285 370.015 163.772C370.096 163.53 372.737 162.909 374.193 162.774C374.462 162.747 374.489 163.287 374.408 164.825ZM367.562 163.476C366.78 164.933 364.354 166.525 361.065 167.685C357.103 169.115 356.375 169.573 352.682 173.162C349.852 175.941 349.124 176.508 348.45 176.508C347.992 176.508 345.889 176.103 343.76 175.59C341.657 175.078 339.366 174.592 338.692 174.484C336.562 174.16 336.481 174.133 336.913 173.459C337.452 172.622 337.883 169.439 337.883 166.39C337.883 164.96 337.964 163.826 338.099 163.88C338.207 163.934 339.015 164.339 339.905 164.798C343.787 166.821 351.119 168.791 354.138 168.629C355.809 168.548 356.348 168.332 360.068 166.39C363.276 164.744 367.049 163.071 367.75 163.017C367.777 163.017 367.696 163.233 367.562 163.476ZM335.996 168.683C335.862 169.789 335.754 170.95 335.727 171.273C335.727 172.434 335.134 172.811 333.651 172.595L332.276 172.407L334.163 169.466C335.215 167.847 336.104 166.551 336.158 166.578C336.185 166.632 336.104 167.577 335.996 168.683ZM241.381 194.235C241.866 196.258 242.028 202.113 241.651 204.623C241.165 207.915 239.737 213.392 238.254 217.439C237.553 219.409 236.933 220.974 236.879 220.92C236.825 220.866 237.257 217.925 237.85 214.39C238.955 207.807 240.572 195.584 240.572 193.911C240.572 192.562 241.004 192.751 241.381 194.235ZM306.911 222.674C307.477 223.24 307.477 223.267 306.992 223.726C306.291 224.4 302.706 225.129 301.493 224.832C299.471 224.347 299.174 223.996 300.226 223.402C302.571 222.053 305.913 221.675 306.911 222.674ZM200.408 228.879C204.344 229.554 213.536 231.901 214.883 232.603C215.449 232.9 216.582 233.628 217.39 234.249C219.035 235.49 219.735 235.733 220.895 235.49C222.458 235.193 226.798 237.109 235.532 241.993C242.028 245.608 245.02 247.389 245.424 247.848C245.586 248.09 246.098 249.709 246.53 251.517C247.635 256.158 248.632 257.858 249.441 256.428C249.683 255.996 249.764 256.023 250.196 256.644C250.465 257.021 252.029 258.802 253.727 260.637C255.398 262.472 256.962 264.388 257.204 264.9L257.662 265.818L256.315 267.194C254.913 268.651 251.57 271.538 251.463 271.403C251.409 271.349 250.95 269.811 250.411 267.976C249.414 264.415 248.336 261.5 247.689 260.475C247.257 259.801 246.368 259.693 246.125 260.286C246.044 260.502 246.53 262.472 247.203 264.657C248.794 269.838 249.737 273.858 249.737 275.396C249.737 276.394 249.603 276.772 249.036 277.285C248.228 278.04 246.098 278.823 244.724 278.85C243.187 278.904 242.864 278.283 241.516 273.103C240.842 270.512 240.114 268.219 239.925 268.03C239.386 267.49 238.416 267.868 238.416 268.624C238.416 268.947 238.605 270.431 238.793 271.915C239.386 275.855 239.602 280.118 239.251 280.981C238.847 282.034 237.904 282.546 235.936 282.735C233.564 282.951 233.402 282.762 233.24 279.389C232.998 275.45 231.246 270.485 230.356 271.349C230.167 271.538 230.248 272.158 230.626 273.372C231.407 275.855 231.65 281.278 231.03 282.492C230.464 283.572 229.925 283.868 227.984 284.057C226.016 284.273 223.051 283.814 220.248 282.87C217.822 282.061 217.579 281.791 217.282 279.497L217.121 278.229L217.875 278.58C218.873 279.093 221.38 279.362 222.027 279.012C222.431 278.796 222.512 278.499 222.431 277.474C222.296 275.936 221.946 275.207 220.948 274.479C220.517 274.182 217.525 272.887 214.263 271.592C204.775 267.841 199.411 264.846 195.933 261.366C194.532 259.963 194.262 259.531 193.966 258.182C193.48 255.969 192.267 254.917 191.297 255.888C190.758 256.428 190.92 258.559 191.647 260.124C192.025 260.934 192.267 261.635 192.213 261.716C191.701 262.202 173.29 268.489 163.883 271.376C162.104 271.915 159.624 272.806 158.357 273.319C157.09 273.831 155.446 274.317 154.664 274.398L153.289 274.506L152.696 272.671C151.806 269.892 151.699 267.436 152.4 264.765C154.071 258.155 159.597 250.114 168.196 241.858C173.614 236.65 176.498 234.6 182.617 231.551C186.337 229.689 189.113 228.556 190.569 228.286C192.133 227.989 196.823 228.286 200.408 228.879ZM192.456 268.867C191.62 272.968 190.219 274.668 185.178 277.663C179.194 281.224 173.56 283.706 170.083 284.3C169.085 284.462 169.139 284.408 171.134 283.248C173.991 281.575 176.875 279.362 179.598 276.772C181.943 274.506 185.798 269.676 186.607 267.922C187.011 267.032 187.361 266.816 189.895 265.737L192.726 264.576L192.806 265.602C192.86 266.168 192.699 267.652 192.456 268.867ZM181.674 269.892C178.412 273.292 172.616 277.447 164.907 281.872L160.837 284.219L159.651 283.68C157.71 282.816 155.257 279.74 154.475 277.204C154.286 276.664 154.367 276.61 155.257 276.61C157.629 276.61 176.417 271.214 181.027 269.217C182.59 268.516 182.779 268.732 181.674 269.892ZM388.399 273.831C388.102 276.502 387.024 280.334 385.137 285.433C384.14 288.132 383.277 290.317 383.223 290.263C383.115 290.128 385.191 281.251 386.188 277.717C387.051 274.587 387.967 272.293 388.318 272.293C388.453 272.293 388.479 272.995 388.399 273.831ZM220.005 276.556C219.385 276.691 218.738 276.448 218.738 276.098C218.738 275.936 219.088 275.963 219.628 276.152C220.248 276.367 220.355 276.475 220.005 276.556ZM294.43 279.47C294.592 281.116 292.382 281.98 290.333 281.116L289.524 280.765L291.115 279.632C292.301 278.769 292.921 278.499 293.541 278.553C294.242 278.634 294.349 278.769 294.43 279.47ZM364.003 343.39C363.276 345.765 362.683 347.842 362.683 348.031C362.683 348.22 362.898 348.49 363.168 348.625C363.545 348.841 364.057 348.706 365.27 348.058L366.861 347.222L365.944 348.247C363.923 350.567 363.815 352.726 365.567 356.342C366.834 359.013 366.861 360.146 365.675 362.952C363.303 368.537 363.626 375.013 366.483 380.679L367.75 383.161L367.346 384.564C367.049 385.536 366.969 386.696 367.049 388.423C367.184 391.31 367.858 393.091 369.61 395.249C370.904 396.841 370.931 396.517 369.287 400.214C368.775 401.32 366.915 407.472 365.136 413.867C363.357 420.234 361.631 426.143 361.335 426.98C361.011 427.816 360.23 429.219 359.556 430.11C358.558 431.432 358.37 431.891 358.37 432.916C358.37 436.477 363.033 437.692 366.942 435.101C368.883 433.833 370.527 431.459 373.33 425.982C377.239 418.346 378.452 416.295 379.881 414.946C381.498 413.462 382.199 413.3 386.242 413.489C390.259 413.678 391.768 414.244 393.709 416.322C395.811 418.589 398.076 421.637 398.453 422.744C398.642 423.256 398.911 425.469 399.073 427.654C399.612 434.886 401.095 444.518 401.93 446.137L402.362 446.919L394.976 446.758C390.932 446.65 386.916 446.515 386.08 446.434L384.517 446.272V445.22C384.517 442.791 382.873 440.633 380.501 439.931C379.18 439.553 378.614 439.553 375.352 439.877C370.203 440.417 361.874 440.336 358.639 439.742C357.238 439.499 355.998 439.203 355.89 439.095C355.782 438.987 355.836 438.042 355.998 436.99C356.24 435.479 356.213 434.157 355.863 430.649C355.405 426.17 355.485 424.336 356.24 421.422C356.429 420.72 356.618 414.838 356.752 405.853C356.968 391.526 357.13 389.097 358.235 380.76C358.99 375.175 358.424 372.558 356.025 370.318C354.865 369.293 354.758 369.05 354.785 368.052C354.838 366.891 356.698 361.225 358.936 355.289C359.691 353.374 360.203 351.62 360.149 351.431C360.014 351.134 365.109 338.857 365.297 339.019C365.324 339.046 364.758 341.016 364.003 343.39ZM287.691 339.37C288.554 339.613 288.446 340.611 287.476 341.609C286.64 342.446 285.238 342.986 283.917 342.986C283.244 342.986 283.217 342.932 283.351 341.825C283.513 340.611 284.025 339.829 284.915 339.451C285.562 339.208 286.856 339.154 287.691 339.37ZM386.269 383.027C389.477 383.89 394.113 386.966 396.539 389.853C397.618 391.094 399.612 394.062 399.612 394.386C399.612 394.764 397.51 394.44 395.946 393.819C394.976 393.442 394.005 393.199 393.817 393.28C393.062 393.549 393.385 394.683 394.545 395.816C395.677 396.949 396.539 397.354 399.343 398.136C400.583 398.487 401.904 399.404 407.429 403.749C413.198 408.255 419.883 414.271 419.533 414.622C419.452 414.676 418.994 414.622 418.481 414.514C416.406 414.056 416.379 414.622 418.454 416.754C419.991 418.373 420.988 419.992 421.5 421.637C421.635 422.069 421.851 424.983 421.986 428.113C422.147 432.16 422.363 434.346 422.74 435.749C423.01 436.855 423.199 438.015 423.145 438.339C423.064 438.663 423.333 439.715 423.738 440.687L424.439 442.413L423.603 443.142C421.474 445.085 418.508 443.088 416.918 438.663C415.786 435.56 414.761 430.757 414.303 426.413C413.764 421.476 413.36 420.207 411.904 418.831C411.527 418.454 411.203 417.968 411.203 417.725C411.203 416.997 409.155 414.002 408.508 413.813C408.13 413.678 407.753 413.759 407.483 414.029C407.133 414.406 407.133 414.622 407.429 415.728C407.645 416.43 408.13 417.374 408.535 417.833C410.017 419.56 410.314 423.445 409.316 428.518C408.346 433.536 408.103 437.044 408.481 440.471C408.642 442.117 408.858 443.79 408.939 444.167C409.047 444.626 408.912 445.085 408.562 445.516C408.103 446.056 407.78 446.164 406.54 446.164C404.06 446.164 403.871 445.867 402.712 439.661C401.93 435.452 401.364 431.243 400.987 426.764C400.583 422.258 400.205 421.098 398.318 419.02C397.483 418.049 396.189 416.592 395.488 415.755C393.898 413.867 392.388 412.976 390.016 412.464C387.59 411.951 383.708 411.951 381.687 412.464C378.29 413.327 377.347 414.487 372.387 423.796C370.581 427.196 368.613 430.622 368.047 431.378C366.78 433.024 365.324 434.049 363.626 434.508C362.521 434.805 362.278 434.778 361.389 434.319C360.041 433.59 359.933 432.619 361.038 431.324C362.925 429.192 363.626 427.034 368.748 407.742C369.449 405.152 370.5 401.887 371.093 400.484C372.333 397.543 372.71 395.573 372.495 393.28C372.333 391.769 372.387 391.472 373.195 389.961C374.193 388.126 376.727 385.563 378.775 384.349C381.552 382.73 383.735 382.325 386.269 383.027ZM278.688 394.764C279.2 395.303 279.227 395.384 278.85 396.059C278.634 396.463 278.068 397.003 277.61 397.273C276.72 397.786 273.782 398.433 273.512 398.19C273.243 397.894 273.432 396.463 273.836 395.627C274.079 395.168 274.618 394.629 275.022 394.386C276.019 393.819 277.933 394.008 278.688 394.764ZM299.902 413.3C302.733 413.84 305.32 414.757 308.286 416.268C310.307 417.32 311.251 418.049 313.219 420.019C314.566 421.341 316.076 422.933 316.588 423.499C317.531 424.579 318.825 425.28 319.85 425.28C320.173 425.28 321.79 424.848 323.435 424.309C326.885 423.175 327.856 423.202 330.47 424.444C332.465 425.388 334.19 426.926 337.694 430.892C339.177 432.592 341.387 434.778 342.574 435.722C346.482 438.798 351.819 441.064 357.965 442.225C361.47 442.872 370.769 442.845 375.487 442.171C379.638 441.577 380.716 441.793 381.74 443.331C383.088 445.354 382.118 449.051 379.854 450.616C377.104 452.505 374.597 452.748 361.281 452.505C356.348 452.397 344.541 452.235 335.053 452.154C325.564 452.073 310.173 451.911 300.819 451.776C282.866 451.587 255.048 451.533 249.603 451.695C245.99 451.803 234.588 452.424 232.081 452.64C228.523 452.963 222.108 453.206 217.255 453.206C211.487 453.206 210.085 452.936 207.794 451.398C204.775 449.348 204.236 446.731 206.365 444.302C207.848 442.629 209.034 442.333 216.851 441.658C222.512 441.172 224.587 441.091 226.825 441.28C231.407 441.658 239.225 441.361 241.704 440.714C246.152 439.526 248.039 438.096 248.794 435.317C249.764 431.891 250.034 431.513 253.349 429.192C257.285 426.467 260.762 422.339 261.894 419.128C262.137 418.454 262.299 418.292 262.649 418.427C262.892 418.535 263.701 418.723 264.428 418.885C266.073 419.209 267.367 418.885 274.941 416.268C284.807 412.895 292.732 411.951 299.902 413.3ZM423.037 418.508C424.142 419.614 424.142 419.587 425.113 424.74C425.733 428.086 426.973 431.729 428.617 435.236C429.426 436.936 430.072 438.42 430.072 438.582C430.072 438.717 430.45 439.257 430.881 439.769C431.744 440.741 431.959 441.928 431.285 442.171C430.692 442.413 429.183 441.82 427.539 440.714C426.164 439.823 425.975 439.58 425.355 437.854C424.277 434.832 424.142 433.833 423.873 428.032C423.603 422.177 423.253 420.234 422.094 418.454C421.231 417.159 421.716 417.185 423.037 418.508ZM557.439 440.929C557.682 441.307 555.606 442.279 554.905 442.09C554.124 441.901 554.178 441.469 555.013 441.469C555.471 441.469 555.795 441.253 556.011 440.795C556.253 440.282 556.388 440.201 556.792 440.39C557.062 440.552 557.358 440.768 557.439 440.929ZM203.697 443.547C200.57 448.053 203.966 453.692 210.84 455.419C213.32 456.066 221.434 455.985 231.946 455.257C236.313 454.96 242.756 454.582 246.233 454.393C253.915 454.043 287.125 454.043 322.06 454.393C365.836 454.879 374.382 454.852 376.538 454.339C380.096 453.449 382.36 451.965 383.493 449.753L384.032 448.673L390.393 448.862C393.925 448.97 400.232 449.159 404.464 449.294C409.343 449.429 412.524 449.645 413.171 449.86C415.516 450.643 416.271 452.532 414.788 453.935C412.982 455.608 410.961 456.12 403.575 456.822C394.275 457.712 386.808 458.171 377.374 458.441C363.357 458.872 201.998 459.142 195.421 458.764C182.698 458.036 173.937 455.769 172.104 452.721C171.215 451.29 171.376 450.211 172.724 448.889C173.803 447.81 174.018 447.729 178.035 446.758C185.501 445.004 189.329 444.356 199.195 443.25C200.974 443.034 202.834 442.872 203.319 442.845L204.209 442.818L203.697 443.547ZM169.759 453.503C170.756 455.446 172.67 456.768 176.094 457.928C180.946 459.547 186.337 460.437 194.208 460.896C201.271 461.328 379.018 461.112 386.404 460.68C391.606 460.356 399.046 459.817 405.543 459.25C411.877 458.71 414.546 457.847 416.568 455.635C417.511 454.582 417.727 454.474 417.888 454.879C418.239 455.742 418.05 460.977 417.565 463.324C416.729 467.507 415.516 469.018 412.362 469.881C408.103 471.068 383.277 473.901 365.783 475.169C334.109 477.517 304.593 477.976 247.446 477.085C202.16 476.357 187.577 475.439 169.031 472.201L167.171 471.878L167.333 464.835C167.549 456.795 167.845 453.179 168.519 451.452L168.977 450.238L169.166 451.479C169.274 452.154 169.543 453.071 169.759 453.503Z" fill="black"/>
<path d="M276.343 422.528C275.777 422.636 275.076 423.931 275.076 424.875C275.076 426.521 276.37 427.196 277.367 426.089C277.88 425.523 278.338 423.607 278.068 423.175C277.799 422.771 276.855 422.393 276.343 422.528Z" fill="black"/>
<path d="M286.991 424.66C286.398 424.903 285.616 426.737 285.885 427.25C286.451 428.221 288.284 427.52 288.689 426.171C288.797 425.766 288.689 425.415 288.311 425.037C287.718 424.444 287.584 424.417 286.991 424.66Z" fill="black"/>
<path d="M299.795 433.024C299.444 433.348 299.606 434.13 300.064 434.292C300.63 434.535 301.304 433.86 301.061 433.294C300.9 432.835 300.118 432.673 299.795 433.024Z" fill="black"/>
<path d="M270.305 434.076C269.739 434.319 269.9 435.479 270.493 435.668C271.545 435.992 272.596 435.263 272.138 434.508C271.922 434.157 270.763 433.887 270.305 434.076Z" fill="black"/>
<path d="M245.532 304.672C244.778 304.968 243.807 306.236 243.807 306.884C243.807 307.181 243.969 307.747 244.185 308.125C244.4 308.53 244.643 309.07 244.724 309.312C244.966 310.122 246.098 309.906 247.015 308.854C248.147 307.559 248.201 305.805 247.15 304.968C246.341 304.348 246.341 304.348 245.532 304.672Z" fill="black"/>
<path d="M240.464 314.547C239.602 315.41 240.195 316.543 241.516 316.543C243.079 316.543 243.807 315.329 242.675 314.547C241.893 314.007 241.003 314.007 240.464 314.547Z" fill="black"/>
<path d="M249.198 317.326C248.767 318.189 249.306 319.025 250.223 318.918C250.87 318.837 250.951 318.729 250.951 317.892C250.951 317.056 250.87 316.948 250.223 316.867C249.711 316.813 249.414 316.948 249.198 317.326Z" fill="black"/>
<path d="M245.047 330.655C244.723 330.898 244.589 331.275 244.669 331.923C244.777 333.137 245.909 333.65 246.772 332.867C247.446 332.247 247.473 331.545 246.772 330.844C246.152 330.223 245.721 330.169 245.047 330.655Z" fill="black"/>
<path d="M245.721 356.854C245.317 357.34 245.775 358.635 246.368 358.635C246.988 358.635 247.473 357.394 247.042 356.881C246.611 356.369 246.125 356.369 245.721 356.854Z" fill="black"/>
<path d="M240.168 358.635C239.764 359.094 239.71 359.445 239.872 360.983C239.979 361.954 240.114 362.871 240.195 363.006C240.384 363.303 241.327 363.276 241.974 362.925C243.16 362.278 243.699 359.364 242.783 358.554C242.109 357.934 240.761 357.988 240.168 358.635Z" fill="black"/>
<path d="M248.147 366.945C247.069 367.863 247.203 368.348 248.605 368.348C249.872 368.348 250.869 367.674 250.762 366.918C250.627 365.974 249.279 366.001 248.147 366.945Z" fill="black"/>
<path d="M239.925 371.748C239.413 372.234 239.413 372.288 239.764 372.962C240.33 373.988 241.92 373.448 241.92 372.234C241.92 371.316 240.653 370.993 239.925 371.748Z" fill="black"/>
<path d="M741.513 164.9L739.313 174.15L738.913 172C739.713 172 740.363 172.25 740.863 172.75C741.363 173.217 741.613 173.85 741.613 174.65C741.613 175.45 741.363 176.1 740.863 176.6C740.363 177.1 739.746 177.35 739.013 177.35C738.213 177.35 737.563 177.1 737.063 176.6C736.596 176.067 736.363 175.417 736.363 174.65C736.363 174.35 736.38 174.083 736.413 173.85C736.446 173.617 736.513 173.333 736.613 173C736.713 172.667 736.846 172.267 737.013 171.8L739.113 164.9H741.513ZM750.013 164.9L747.813 174.15L747.413 172C748.213 172 748.863 172.25 749.363 172.75C749.863 173.217 750.113 173.85 750.113 174.65C750.113 175.45 749.863 176.1 749.363 176.6C748.863 177.1 748.246 177.35 747.513 177.35C746.713 177.35 746.063 177.1 745.563 176.6C745.096 176.067 744.863 175.417 744.863 174.65C744.863 174.35 744.88 174.083 744.913 173.85C744.946 173.617 745.013 173.333 745.113 173C745.213 172.667 745.346 172.267 745.513 171.8L747.613 164.9H750.013ZM758.505 202V167H762.205V198.8H781.805V202H758.505ZM787.198 202V175.75H790.748V202H787.198ZM788.998 169.95C788.265 169.95 787.648 169.7 787.148 169.2C786.648 168.7 786.398 168.1 786.398 167.4C786.398 166.7 786.648 166.117 787.148 165.65C787.648 165.15 788.265 164.9 788.998 164.9C789.731 164.9 790.348 165.133 790.848 165.6C791.348 166.067 791.598 166.65 791.598 167.35C791.598 168.083 791.348 168.7 790.848 169.2C790.381 169.7 789.765 169.95 788.998 169.95ZM801.226 202V172.45C801.226 170.117 801.909 168.233 803.276 166.8C804.642 165.367 806.609 164.65 809.176 164.65C810.176 164.65 811.142 164.783 812.076 165.05C813.009 165.317 813.792 165.733 814.426 166.3L813.226 168.95C812.726 168.517 812.142 168.2 811.476 168C810.809 167.767 810.092 167.65 809.326 167.65C807.826 167.65 806.676 168.067 805.876 168.9C805.076 169.733 804.676 170.967 804.676 172.6V176.6L804.776 178.25V202H801.226ZM796.526 178.7V175.75H812.776V178.7H796.526ZM828.28 202.25C825.546 202.25 823.146 201.683 821.08 200.55C819.013 199.383 817.396 197.8 816.23 195.8C815.063 193.767 814.48 191.45 814.48 188.85C814.48 186.25 815.03 183.95 816.13 181.95C817.263 179.95 818.796 178.383 820.73 177.25C822.696 176.083 824.896 175.5 827.33 175.5C829.796 175.5 831.98 176.067 833.88 177.2C835.813 178.3 837.33 179.867 838.43 181.9C839.53 183.9 840.08 186.217 840.08 188.85C840.08 189.017 840.063 189.2 840.03 189.4C840.03 189.567 840.03 189.75 840.03 189.95H817.18V187.3H838.13L836.73 188.35C836.73 186.45 836.313 184.767 835.48 183.3C834.68 181.8 833.58 180.633 832.18 179.8C830.78 178.967 829.163 178.55 827.33 178.55C825.53 178.55 823.913 178.967 822.48 179.8C821.046 180.633 819.93 181.8 819.13 183.3C818.33 184.8 817.93 186.517 817.93 188.45V189C817.93 191 818.363 192.767 819.23 194.3C820.13 195.8 821.363 196.983 822.93 197.85C824.53 198.683 826.346 199.1 828.38 199.1C829.98 199.1 831.463 198.817 832.83 198.25C834.23 197.683 835.43 196.817 836.43 195.65L838.43 197.95C837.263 199.35 835.796 200.417 834.03 201.15C832.296 201.883 830.38 202.25 828.28 202.25ZM860.391 202V175.75H863.941V202H860.391ZM862.191 169.95C861.458 169.95 860.841 169.7 860.341 169.2C859.841 168.7 859.591 168.1 859.591 167.4C859.591 166.7 859.841 166.117 860.341 165.65C860.841 165.15 861.458 164.9 862.191 164.9C862.925 164.9 863.541 165.133 864.041 165.6C864.541 166.067 864.791 166.65 864.791 167.35C864.791 168.083 864.541 168.7 864.041 169.2C863.575 169.7 862.958 169.95 862.191 169.95ZM880.869 202.25C878.702 202.25 876.652 201.95 874.719 201.35C872.786 200.717 871.269 199.933 870.169 199L871.769 196.2C872.836 197 874.202 197.7 875.869 198.3C877.536 198.867 879.286 199.15 881.119 199.15C883.619 199.15 885.419 198.767 886.519 198C887.619 197.2 888.169 196.15 888.169 194.85C888.169 193.883 887.852 193.133 887.219 192.6C886.619 192.033 885.819 191.617 884.819 191.35C883.819 191.05 882.702 190.8 881.469 190.6C880.236 190.4 879.002 190.167 877.769 189.9C876.569 189.633 875.469 189.25 874.469 188.75C873.469 188.217 872.652 187.5 872.019 186.6C871.419 185.7 871.119 184.5 871.119 183C871.119 181.567 871.519 180.283 872.319 179.15C873.119 178.017 874.286 177.133 875.819 176.5C877.386 175.833 879.286 175.5 881.519 175.5C883.219 175.5 884.919 175.733 886.619 176.2C888.319 176.633 889.719 177.217 890.819 177.95L889.269 180.8C888.102 180 886.852 179.433 885.519 179.1C884.186 178.733 882.852 178.55 881.519 178.55C879.152 178.55 877.402 178.967 876.269 179.8C875.169 180.6 874.619 181.633 874.619 182.9C874.619 183.9 874.919 184.683 875.519 185.25C876.152 185.817 876.969 186.267 877.969 186.6C879.002 186.9 880.119 187.15 881.319 187.35C882.552 187.55 883.769 187.8 884.969 188.1C886.202 188.367 887.319 188.75 888.319 189.25C889.352 189.717 890.169 190.4 890.769 191.3C891.402 192.167 891.719 193.317 891.719 194.75C891.719 196.283 891.286 197.617 890.419 198.75C889.586 199.85 888.352 200.717 886.719 201.35C885.119 201.95 883.169 202.25 880.869 202.25ZM927.769 202V196.2L927.619 195.25V185.55C927.619 183.317 926.986 181.6 925.719 180.4C924.486 179.2 922.636 178.6 920.169 178.6C918.469 178.6 916.852 178.883 915.319 179.45C913.786 180.017 912.486 180.767 911.419 181.7L909.819 179.05C911.152 177.917 912.752 177.05 914.619 176.45C916.486 175.817 918.452 175.5 920.519 175.5C923.919 175.5 926.536 176.35 928.369 178.05C930.236 179.717 931.169 182.267 931.169 185.7V202H927.769ZM918.719 202.25C916.752 202.25 915.036 201.933 913.569 201.3C912.136 200.633 911.036 199.733 910.269 198.6C909.502 197.433 909.119 196.1 909.119 194.6C909.119 193.233 909.436 192 910.069 190.9C910.736 189.767 911.802 188.867 913.269 188.2C914.769 187.5 916.769 187.15 919.269 187.15H928.319V189.8H919.369C916.836 189.8 915.069 190.25 914.069 191.15C913.102 192.05 912.619 193.167 912.619 194.5C912.619 196 913.202 197.2 914.369 198.1C915.536 199 917.169 199.45 919.269 199.45C921.269 199.45 922.986 199 924.419 198.1C925.886 197.167 926.952 195.833 927.619 194.1L928.419 196.55C927.752 198.283 926.586 199.667 924.919 200.7C923.286 201.733 921.219 202.25 918.719 202.25ZM960.947 202.25C958.781 202.25 956.731 201.95 954.797 201.35C952.864 200.717 951.347 199.933 950.247 199L951.847 196.2C952.914 197 954.281 197.7 955.947 198.3C957.614 198.867 959.364 199.15 961.197 199.15C963.697 199.15 965.497 198.767 966.597 198C967.697 197.2 968.247 196.15 968.247 194.85C968.247 193.883 967.931 193.133 967.297 192.6C966.697 192.033 965.897 191.617 964.897 191.35C963.897 191.05 962.781 190.8 961.547 190.6C960.314 190.4 959.081 190.167 957.847 189.9C956.647 189.633 955.547 189.25 954.547 188.75C953.547 188.217 952.731 187.5 952.097 186.6C951.497 185.7 951.197 184.5 951.197 183C951.197 181.567 951.597 180.283 952.397 179.15C953.197 178.017 954.364 177.133 955.897 176.5C957.464 175.833 959.364 175.5 961.597 175.5C963.297 175.5 964.997 175.733 966.697 176.2C968.397 176.633 969.797 177.217 970.897 177.95L969.347 180.8C968.181 180 966.931 179.433 965.597 179.1C964.264 178.733 962.931 178.55 961.597 178.55C959.231 178.55 957.481 178.967 956.347 179.8C955.247 180.6 954.697 181.633 954.697 182.9C954.697 183.9 954.997 184.683 955.597 185.25C956.231 185.817 957.047 186.267 958.047 186.6C959.081 186.9 960.197 187.15 961.397 187.35C962.631 187.55 963.847 187.8 965.047 188.1C966.281 188.367 967.397 188.75 968.397 189.25C969.431 189.717 970.247 190.4 970.847 191.3C971.481 192.167 971.797 193.317 971.797 194.75C971.797 196.283 971.364 197.617 970.497 198.75C969.664 199.85 968.431 200.717 966.797 201.35C965.197 201.95 963.247 202.25 960.947 202.25ZM1011.11 175.5C1013.24 175.5 1015.09 175.917 1016.66 176.75C1018.26 177.55 1019.49 178.783 1020.36 180.45C1021.26 182.117 1021.71 184.217 1021.71 186.75V202H1018.16V187.1C1018.16 184.333 1017.49 182.25 1016.16 180.85C1014.86 179.417 1013.01 178.7 1010.61 178.7C1008.81 178.7 1007.24 179.083 1005.91 179.85C1004.61 180.583 1003.59 181.667 1002.86 183.1C1002.16 184.5 1001.81 186.2 1001.81 188.2V202H998.261V187.1C998.261 184.333 997.595 182.25 996.261 180.85C994.928 179.417 993.061 178.7 990.661 178.7C988.895 178.7 987.345 179.083 986.011 179.85C984.678 180.583 983.645 181.667 982.911 183.1C982.211 184.5 981.861 186.2 981.861 188.2V202H978.311V175.75H981.711V182.85L981.161 181.6C981.961 179.7 983.245 178.217 985.011 177.15C986.811 176.05 988.928 175.5 991.361 175.5C993.928 175.5 996.111 176.15 997.911 177.45C999.711 178.717 1000.88 180.633 1001.41 183.2L1000.01 182.65C1000.78 180.517 1002.13 178.8 1004.06 177.5C1006.03 176.167 1008.38 175.5 1011.11 175.5ZM1047.79 202V196.2L1047.64 195.25V185.55C1047.64 183.317 1047.01 181.6 1045.74 180.4C1044.51 179.2 1042.66 178.6 1040.19 178.6C1038.49 178.6 1036.87 178.883 1035.34 179.45C1033.81 180.017 1032.51 180.767 1031.44 181.7L1029.84 179.05C1031.17 177.917 1032.77 177.05 1034.64 176.45C1036.51 175.817 1038.47 175.5 1040.54 175.5C1043.94 175.5 1046.56 176.35 1048.39 178.05C1050.26 179.717 1051.19 182.267 1051.19 185.7V202H1047.79ZM1038.74 202.25C1036.77 202.25 1035.06 201.933 1033.59 201.3C1032.16 200.633 1031.06 199.733 1030.29 198.6C1029.52 197.433 1029.14 196.1 1029.14 194.6C1029.14 193.233 1029.46 192 1030.09 190.9C1030.76 189.767 1031.82 188.867 1033.29 188.2C1034.79 187.5 1036.79 187.15 1039.29 187.15H1048.34V189.8H1039.39C1036.86 189.8 1035.09 190.25 1034.09 191.15C1033.12 192.05 1032.64 193.167 1032.64 194.5C1032.64 196 1033.22 197.2 1034.39 198.1C1035.56 199 1037.19 199.45 1039.29 199.45C1041.29 199.45 1043.01 199 1044.44 198.1C1045.91 197.167 1046.97 195.833 1047.64 194.1L1048.44 196.55C1047.77 198.283 1046.61 199.667 1044.94 200.7C1043.31 201.733 1041.24 202.25 1038.74 202.25ZM1060.83 202V164.9H1064.38V202H1060.83ZM1074.26 202V164.9H1077.81V202H1074.26ZM1103.57 195.2L1103.67 190.65L1120.02 175.75H1124.37L1112.82 186.8L1110.82 188.5L1103.57 195.2ZM1100.77 202V164.9H1104.32V202H1100.77ZM1121.12 202L1110.17 188.35L1112.47 185.6L1125.47 202H1121.12ZM1130.8 202V175.75H1134.35V202H1130.8ZM1132.6 169.95C1131.87 169.95 1131.25 169.7 1130.75 169.2C1130.25 168.7 1130 168.1 1130 167.4C1130 166.7 1130.25 166.117 1130.75 165.65C1131.25 165.15 1131.87 164.9 1132.6 164.9C1133.33 164.9 1133.95 165.133 1134.45 165.6C1134.95 166.067 1135.2 166.65 1135.2 167.35C1135.2 168.083 1134.95 168.7 1134.45 169.2C1133.98 169.7 1133.37 169.95 1132.6 169.95ZM1152.53 202.25C1150.06 202.25 1148.16 201.583 1146.83 200.25C1145.5 198.917 1144.83 197.033 1144.83 194.6V169.95H1148.38V194.4C1148.38 195.933 1148.76 197.117 1149.53 197.95C1150.33 198.783 1151.46 199.2 1152.93 199.2C1154.5 199.2 1155.8 198.75 1156.83 197.85L1158.08 200.4C1157.38 201.033 1156.53 201.5 1155.53 201.8C1154.56 202.1 1153.56 202.25 1152.53 202.25ZM1140.13 178.7V175.75H1156.38V178.7H1140.13ZM1174.51 202.25C1171.91 202.25 1169.58 201.683 1167.51 200.55C1165.48 199.383 1163.88 197.8 1162.71 195.8C1161.55 193.767 1160.96 191.45 1160.96 188.85C1160.96 186.217 1161.55 183.9 1162.71 181.9C1163.88 179.9 1165.48 178.333 1167.51 177.2C1169.58 176.067 1171.91 175.5 1174.51 175.5C1176.75 175.5 1178.76 175.933 1180.56 176.8C1182.36 177.667 1183.78 178.967 1184.81 180.7L1182.16 182.5C1181.26 181.167 1180.15 180.183 1178.81 179.55C1177.48 178.917 1176.03 178.6 1174.46 178.6C1172.6 178.6 1170.91 179.033 1169.41 179.9C1167.91 180.733 1166.73 181.917 1165.86 183.45C1165 184.983 1164.56 186.783 1164.56 188.85C1164.56 190.917 1165 192.717 1165.86 194.25C1166.73 195.783 1167.91 196.983 1169.41 197.85C1170.91 198.683 1172.6 199.1 1174.46 199.1C1176.03 199.1 1177.48 198.783 1178.81 198.15C1180.15 197.517 1181.26 196.55 1182.16 195.25L1184.81 197.05C1183.78 198.75 1182.36 200.05 1180.56 200.95C1178.76 201.817 1176.75 202.25 1174.51 202.25ZM1204.8 175.5C1206.93 175.5 1208.8 175.917 1210.4 176.75C1212.03 177.55 1213.3 178.783 1214.2 180.45C1215.13 182.117 1215.6 184.217 1215.6 186.75V202H1212.05V187.1C1212.05 184.333 1211.35 182.25 1209.95 180.85C1208.58 179.417 1206.65 178.7 1204.15 178.7C1202.28 178.7 1200.65 179.083 1199.25 179.85C1197.88 180.583 1196.81 181.667 1196.05 183.1C1195.31 184.5 1194.95 186.2 1194.95 188.2V202H1191.4V164.9H1194.95V182.95L1194.25 181.6C1195.08 179.7 1196.41 178.217 1198.25 177.15C1200.08 176.05 1202.26 175.5 1204.8 175.5ZM1236.34 202.25C1233.6 202.25 1231.2 201.683 1229.14 200.55C1227.07 199.383 1225.45 197.8 1224.29 195.8C1223.12 193.767 1222.54 191.45 1222.54 188.85C1222.54 186.25 1223.09 183.95 1224.19 181.95C1225.32 179.95 1226.85 178.383 1228.79 177.25C1230.75 176.083 1232.95 175.5 1235.39 175.5C1237.85 175.5 1240.04 176.067 1241.94 177.2C1243.87 178.3 1245.39 179.867 1246.49 181.9C1247.59 183.9 1248.14 186.217 1248.14 188.85C1248.14 189.017 1248.12 189.2 1248.09 189.4C1248.09 189.567 1248.09 189.75 1248.09 189.95H1225.24V187.3H1246.19L1244.79 188.35C1244.79 186.45 1244.37 184.767 1243.54 183.3C1242.74 181.8 1241.64 180.633 1240.24 179.8C1238.84 178.967 1237.22 178.55 1235.39 178.55C1233.59 178.55 1231.97 178.967 1230.54 179.8C1229.1 180.633 1227.99 181.8 1227.19 183.3C1226.39 184.8 1225.99 186.517 1225.99 188.45V189C1225.99 191 1226.42 192.767 1227.29 194.3C1228.19 195.8 1229.42 196.983 1230.99 197.85C1232.59 198.683 1234.4 199.1 1236.44 199.1C1238.04 199.1 1239.52 198.817 1240.89 198.25C1242.29 197.683 1243.49 196.817 1244.49 195.65L1246.49 197.95C1245.32 199.35 1243.85 200.417 1242.09 201.15C1240.35 201.883 1238.44 202.25 1236.34 202.25ZM1268.76 175.5C1270.9 175.5 1272.76 175.917 1274.36 176.75C1276 177.55 1277.26 178.783 1278.16 180.45C1279.1 182.117 1279.56 184.217 1279.56 186.75V202H1276.01V187.1C1276.01 184.333 1275.31 182.25 1273.91 180.85C1272.55 179.417 1270.61 178.7 1268.11 178.7C1266.25 178.7 1264.61 179.083 1263.21 179.85C1261.85 180.583 1260.78 181.667 1260.01 183.1C1259.28 184.5 1258.91 186.2 1258.91 188.2V202H1255.36V175.75H1258.76V182.95L1258.21 181.6C1259.05 179.7 1260.38 178.217 1262.21 177.15C1264.05 176.05 1266.23 175.5 1268.76 175.5ZM598.551 263V236.75H602.101V263H598.551ZM600.351 230.95C599.617 230.95 599.001 230.7 598.501 230.2C598.001 229.7 597.751 229.1 597.751 228.4C597.751 227.7 598.001 227.117 598.501 226.65C599.001 226.15 599.617 225.9 600.351 225.9C601.084 225.9 601.701 226.133 602.201 226.6C602.701 227.067 602.951 227.65 602.951 228.35C602.951 229.083 602.701 229.7 602.201 230.2C601.734 230.7 601.117 230.95 600.351 230.95ZM625.378 236.5C627.512 236.5 629.378 236.917 630.978 237.75C632.612 238.55 633.878 239.783 634.778 241.45C635.712 243.117 636.178 245.217 636.178 247.75V263H632.628V248.1C632.628 245.333 631.928 243.25 630.528 241.85C629.162 240.417 627.228 239.7 624.728 239.7C622.862 239.7 621.228 240.083 619.828 240.85C618.462 241.583 617.395 242.667 616.628 244.1C615.895 245.5 615.528 247.2 615.528 249.2V263H611.978V236.75H615.378V243.95L614.828 242.6C615.662 240.7 616.995 239.217 618.828 238.15C620.662 237.05 622.845 236.5 625.378 236.5ZM664.203 263L654.303 236.75H657.703L666.703 261.1H665.153L674.403 236.75H677.453L686.603 261.1H685.053L694.203 236.75H697.453L687.503 263H684.153L675.353 240.1H676.403L667.553 263H664.203ZM716.199 236.5C718.332 236.5 720.199 236.917 721.799 237.75C723.432 238.55 724.699 239.783 725.599 241.45C726.532 243.117 726.999 245.217 726.999 247.75V263H723.449V248.1C723.449 245.333 722.749 243.25 721.349 241.85C719.982 240.417 718.049 239.7 715.549 239.7C713.682 239.7 712.049 240.083 710.649 240.85C709.282 241.583 708.215 242.667 707.449 244.1C706.715 245.5 706.349 247.2 706.349 249.2V263H702.799V225.9H706.349V243.95L705.649 242.6C706.482 240.7 707.815 239.217 709.649 238.15C711.482 237.05 713.665 236.5 716.199 236.5ZM736.588 263V236.75H740.138V263H736.588ZM738.388 230.95C737.654 230.95 737.038 230.7 736.538 230.2C736.038 229.7 735.788 229.1 735.788 228.4C735.788 227.7 736.038 227.117 736.538 226.65C737.038 226.15 737.654 225.9 738.388 225.9C739.121 225.9 739.738 226.133 740.238 226.6C740.738 227.067 740.988 227.65 740.988 228.35C740.988 229.083 740.738 229.7 740.238 230.2C739.771 230.7 739.154 230.95 738.388 230.95ZM760.915 263.25C758.315 263.25 755.982 262.683 753.915 261.55C751.882 260.383 750.282 258.8 749.115 256.8C747.949 254.767 747.365 252.45 747.365 249.85C747.365 247.217 747.949 244.9 749.115 242.9C750.282 240.9 751.882 239.333 753.915 238.2C755.982 237.067 758.315 236.5 760.915 236.5C763.149 236.5 765.165 236.933 766.965 237.8C768.765 238.667 770.182 239.967 771.215 241.7L768.565 243.5C767.665 242.167 766.549 241.183 765.215 240.55C763.882 239.917 762.432 239.6 760.865 239.6C758.999 239.6 757.315 240.033 755.815 240.9C754.315 241.733 753.132 242.917 752.265 244.45C751.399 245.983 750.965 247.783 750.965 249.85C750.965 251.917 751.399 253.717 752.265 255.25C753.132 256.783 754.315 257.983 755.815 258.85C757.315 259.683 758.999 260.1 760.865 260.1C762.432 260.1 763.882 259.783 765.215 259.15C766.549 258.517 767.665 257.55 768.565 256.25L771.215 258.05C770.182 259.75 768.765 261.05 766.965 261.95C765.165 262.817 763.149 263.25 760.915 263.25ZM791.199 236.5C793.332 236.5 795.199 236.917 796.799 237.75C798.432 238.55 799.699 239.783 800.599 241.45C801.532 243.117 801.999 245.217 801.999 247.75V263H798.449V248.1C798.449 245.333 797.749 243.25 796.349 241.85C794.982 240.417 793.049 239.7 790.549 239.7C788.682 239.7 787.049 240.083 785.649 240.85C784.282 241.583 783.215 242.667 782.449 244.1C781.715 245.5 781.349 247.2 781.349 249.2V263H777.799V225.9H781.349V243.95L780.649 242.6C781.482 240.7 782.815 239.217 784.649 238.15C786.482 237.05 788.665 236.5 791.199 236.5ZM830.024 263L820.124 236.75H823.524L832.524 261.1H830.974L840.224 236.75H843.274L852.424 261.1H850.874L860.024 236.75H863.274L853.324 263H849.974L841.174 240.1H842.224L833.374 263H830.024ZM879.037 263.25C876.303 263.25 873.903 262.683 871.837 261.55C869.77 260.383 868.153 258.8 866.987 256.8C865.82 254.767 865.237 252.45 865.237 249.85C865.237 247.25 865.787 244.95 866.887 242.95C868.02 240.95 869.553 239.383 871.487 238.25C873.453 237.083 875.653 236.5 878.087 236.5C880.553 236.5 882.737 237.067 884.637 238.2C886.57 239.3 888.087 240.867 889.187 242.9C890.287 244.9 890.837 247.217 890.837 249.85C890.837 250.017 890.82 250.2 890.787 250.4C890.787 250.567 890.787 250.75 890.787 250.95H867.937V248.3H888.887L887.487 249.35C887.487 247.45 887.07 245.767 886.237 244.3C885.437 242.8 884.337 241.633 882.937 240.8C881.537 239.967 879.92 239.55 878.087 239.55C876.287 239.55 874.67 239.967 873.237 240.8C871.803 241.633 870.687 242.8 869.887 244.3C869.087 245.8 868.687 247.517 868.687 249.45V250C868.687 252 869.12 253.767 869.987 255.3C870.887 256.8 872.12 257.983 873.687 258.85C875.287 259.683 877.103 260.1 879.137 260.1C880.737 260.1 882.22 259.817 883.587 259.25C884.987 258.683 886.187 257.817 887.187 256.65L889.187 258.95C888.02 260.35 886.553 261.417 884.787 262.15C883.053 262.883 881.137 263.25 879.037 263.25ZM924.698 263.25C922.432 263.25 920.382 262.733 918.548 261.7C916.715 260.633 915.248 259.117 914.148 257.15C913.082 255.15 912.548 252.717 912.548 249.85C912.548 246.983 913.082 244.567 914.148 242.6C915.215 240.6 916.665 239.083 918.498 238.05C920.332 237.017 922.398 236.5 924.698 236.5C927.198 236.5 929.432 237.067 931.398 238.2C933.398 239.3 934.965 240.867 936.098 242.9C937.232 244.9 937.798 247.217 937.798 249.85C937.798 252.517 937.232 254.85 936.098 256.85C934.965 258.85 933.398 260.417 931.398 261.55C929.432 262.683 927.198 263.25 924.698 263.25ZM911.148 272.7V236.75H914.548V244.65L914.198 249.9L914.698 255.2V272.7H911.148ZM924.448 260.1C926.315 260.1 927.982 259.683 929.448 258.85C930.915 257.983 932.082 256.783 932.948 255.25C933.815 253.683 934.248 251.883 934.248 249.85C934.248 247.817 933.815 246.033 932.948 244.5C932.082 242.967 930.915 241.767 929.448 240.9C927.982 240.033 926.315 239.6 924.448 239.6C922.582 239.6 920.898 240.033 919.398 240.9C917.932 241.767 916.765 242.967 915.898 244.5C915.065 246.033 914.648 247.817 914.648 249.85C914.648 251.883 915.065 253.683 915.898 255.25C916.765 256.783 917.932 257.983 919.398 258.85C920.898 259.683 922.582 260.1 924.448 260.1ZM945.035 263V236.75H948.435V243.9L948.085 242.65C948.818 240.65 950.052 239.133 951.785 238.1C953.518 237.033 955.668 236.5 958.235 236.5V239.95C958.102 239.95 957.968 239.95 957.835 239.95C957.702 239.917 957.568 239.9 957.435 239.9C954.668 239.9 952.502 240.75 950.935 242.45C949.368 244.117 948.585 246.5 948.585 249.6V263H945.035ZM975.619 263.25C972.885 263.25 970.485 262.683 968.419 261.55C966.352 260.383 964.735 258.8 963.569 256.8C962.402 254.767 961.819 252.45 961.819 249.85C961.819 247.25 962.369 244.95 963.469 242.95C964.602 240.95 966.135 239.383 968.069 238.25C970.035 237.083 972.235 236.5 974.669 236.5C977.135 236.5 979.319 237.067 981.219 238.2C983.152 239.3 984.669 240.867 985.769 242.9C986.869 244.9 987.419 247.217 987.419 249.85C987.419 250.017 987.402 250.2 987.369 250.4C987.369 250.567 987.369 250.75 987.369 250.95H964.519V248.3H985.469L984.069 249.35C984.069 247.45 983.652 245.767 982.819 244.3C982.019 242.8 980.919 241.633 979.519 240.8C978.119 239.967 976.502 239.55 974.669 239.55C972.869 239.55 971.252 239.967 969.819 240.8C968.385 241.633 967.269 242.8 966.469 244.3C965.669 245.8 965.269 247.517 965.269 249.45V250C965.269 252 965.702 253.767 966.569 255.3C967.469 256.8 968.702 257.983 970.269 258.85C971.869 259.683 973.685 260.1 975.719 260.1C977.319 260.1 978.802 259.817 980.169 259.25C981.569 258.683 982.769 257.817 983.769 256.65L985.769 258.95C984.602 260.35 983.135 261.417 981.369 262.15C979.635 262.883 977.719 263.25 975.619 263.25ZM1008.19 263.25C1005.93 263.25 1003.88 262.733 1002.04 261.7C1000.21 260.633 998.744 259.117 997.644 257.15C996.578 255.15 996.044 252.717 996.044 249.85C996.044 246.983 996.578 244.567 997.644 242.6C998.711 240.6 1000.16 239.083 1001.99 238.05C1003.83 237.017 1005.89 236.5 1008.19 236.5C1010.69 236.5 1012.93 237.067 1014.89 238.2C1016.89 239.3 1018.46 240.867 1019.59 242.9C1020.73 244.9 1021.29 247.217 1021.29 249.85C1021.29 252.517 1020.73 254.85 1019.59 256.85C1018.46 258.85 1016.89 260.417 1014.89 261.55C1012.93 262.683 1010.69 263.25 1008.19 263.25ZM994.644 272.7V236.75H998.044V244.65L997.694 249.9L998.194 255.2V272.7H994.644ZM1007.94 260.1C1009.81 260.1 1011.48 259.683 1012.94 258.85C1014.41 257.983 1015.58 256.783 1016.44 255.25C1017.31 253.683 1017.74 251.883 1017.74 249.85C1017.74 247.817 1017.31 246.033 1016.44 244.5C1015.58 242.967 1014.41 241.767 1012.94 240.9C1011.48 240.033 1009.81 239.6 1007.94 239.6C1006.08 239.6 1004.39 240.033 1002.89 240.9C1001.43 241.767 1000.26 242.967 999.394 244.5C998.561 246.033 998.144 247.817 998.144 249.85C998.144 251.883 998.561 253.683 999.394 255.25C1000.26 256.783 1001.43 257.983 1002.89 258.85C1004.39 259.683 1006.08 260.1 1007.94 260.1ZM1044.83 263V257.2L1044.68 256.25V246.55C1044.68 244.317 1044.05 242.6 1042.78 241.4C1041.55 240.2 1039.7 239.6 1037.23 239.6C1035.53 239.6 1033.92 239.883 1032.38 240.45C1030.85 241.017 1029.55 241.767 1028.48 242.7L1026.88 240.05C1028.22 238.917 1029.82 238.05 1031.68 237.45C1033.55 236.817 1035.52 236.5 1037.58 236.5C1040.98 236.5 1043.6 237.35 1045.43 239.05C1047.3 240.717 1048.23 243.267 1048.23 246.7V263H1044.83ZM1035.78 263.25C1033.82 263.25 1032.1 262.933 1030.63 262.3C1029.2 261.633 1028.1 260.733 1027.33 259.6C1026.57 258.433 1026.18 257.1 1026.18 255.6C1026.18 254.233 1026.5 253 1027.13 251.9C1027.8 250.767 1028.87 249.867 1030.33 249.2C1031.83 248.5 1033.83 248.15 1036.33 248.15H1045.38V250.8H1036.43C1033.9 250.8 1032.13 251.25 1031.13 252.15C1030.17 253.05 1029.68 254.167 1029.68 255.5C1029.68 257 1030.27 258.2 1031.43 259.1C1032.6 260 1034.23 260.45 1036.33 260.45C1038.33 260.45 1040.05 260 1041.48 259.1C1042.95 258.167 1044.02 256.833 1044.68 255.1L1045.48 257.55C1044.82 259.283 1043.65 260.667 1041.98 261.7C1040.35 262.733 1038.28 263.25 1035.78 263.25ZM1057.88 263V236.75H1061.28V243.9L1060.93 242.65C1061.66 240.65 1062.89 239.133 1064.63 238.1C1066.36 237.033 1068.51 236.5 1071.08 236.5V239.95C1070.94 239.95 1070.81 239.95 1070.68 239.95C1070.54 239.917 1070.41 239.9 1070.28 239.9C1067.51 239.9 1065.34 240.75 1063.78 242.45C1062.21 244.117 1061.43 246.5 1061.43 249.6V263H1057.88ZM1088.46 263.25C1085.73 263.25 1083.33 262.683 1081.26 261.55C1079.19 260.383 1077.58 258.8 1076.41 256.8C1075.24 254.767 1074.66 252.45 1074.66 249.85C1074.66 247.25 1075.21 244.95 1076.31 242.95C1077.44 240.95 1078.98 239.383 1080.91 238.25C1082.88 237.083 1085.08 236.5 1087.51 236.5C1089.98 236.5 1092.16 237.067 1094.06 238.2C1095.99 239.3 1097.51 240.867 1098.61 242.9C1099.71 244.9 1100.26 247.217 1100.26 249.85C1100.26 250.017 1100.24 250.2 1100.21 250.4C1100.21 250.567 1100.21 250.75 1100.21 250.95H1077.36V248.3H1098.31L1096.91 249.35C1096.91 247.45 1096.49 245.767 1095.66 244.3C1094.86 242.8 1093.76 241.633 1092.36 240.8C1090.96 239.967 1089.34 239.55 1087.51 239.55C1085.71 239.55 1084.09 239.967 1082.66 240.8C1081.23 241.633 1080.11 242.8 1079.31 244.3C1078.51 245.8 1078.11 247.517 1078.11 249.45V250C1078.11 252 1078.54 253.767 1079.41 255.3C1080.31 256.8 1081.54 257.983 1083.11 258.85C1084.71 259.683 1086.53 260.1 1088.56 260.1C1090.16 260.1 1091.64 259.817 1093.01 259.25C1094.41 258.683 1095.61 257.817 1096.61 256.65L1098.61 258.95C1097.44 260.35 1095.98 261.417 1094.21 262.15C1092.48 262.883 1090.56 263.25 1088.46 263.25ZM1131.02 263.25C1128.52 263.25 1126.27 262.683 1124.27 261.55C1122.31 260.417 1120.76 258.85 1119.62 256.85C1118.49 254.817 1117.92 252.483 1117.92 249.85C1117.92 247.183 1118.49 244.85 1119.62 242.85C1120.76 240.85 1122.31 239.3 1124.27 238.2C1126.27 237.067 1128.52 236.5 1131.02 236.5C1133.32 236.5 1135.37 237.017 1137.17 238.05C1139.01 239.083 1140.46 240.6 1141.52 242.6C1142.62 244.567 1143.17 246.983 1143.17 249.85C1143.17 252.683 1142.64 255.1 1141.57 257.1C1140.51 259.1 1139.06 260.633 1137.22 261.7C1135.42 262.733 1133.36 263.25 1131.02 263.25ZM1131.27 260.1C1133.14 260.1 1134.81 259.683 1136.27 258.85C1137.77 257.983 1138.94 256.783 1139.77 255.25C1140.64 253.683 1141.07 251.883 1141.07 249.85C1141.07 247.783 1140.64 245.983 1139.77 244.45C1138.94 242.917 1137.77 241.733 1136.27 240.9C1134.81 240.033 1133.14 239.6 1131.27 239.6C1129.44 239.6 1127.79 240.033 1126.32 240.9C1124.86 241.733 1123.69 242.917 1122.82 244.45C1121.96 245.983 1121.52 247.783 1121.52 249.85C1121.52 251.883 1121.96 253.683 1122.82 255.25C1123.69 256.783 1124.86 257.983 1126.32 258.85C1127.79 259.683 1129.44 260.1 1131.27 260.1ZM1141.17 263V255.1L1141.52 249.8L1141.02 244.5V225.9H1144.57V263H1141.17ZM1154.46 263V236.75H1158.01V263H1154.46ZM1156.26 230.95C1155.53 230.95 1154.91 230.7 1154.41 230.2C1153.91 229.7 1153.66 229.1 1153.66 228.4C1153.66 227.7 1153.91 227.117 1154.41 226.65C1154.91 226.15 1155.53 225.9 1156.26 225.9C1156.99 225.9 1157.61 226.133 1158.11 226.6C1158.61 227.067 1158.86 227.65 1158.86 228.35C1158.86 229.083 1158.61 229.7 1158.11 230.2C1157.64 230.7 1157.03 230.95 1156.26 230.95ZM1174.94 263.25C1172.77 263.25 1170.72 262.95 1168.79 262.35C1166.85 261.717 1165.34 260.933 1164.24 260L1165.84 257.2C1166.9 258 1168.27 258.7 1169.94 259.3C1171.6 259.867 1173.35 260.15 1175.19 260.15C1177.69 260.15 1179.49 259.767 1180.59 259C1181.69 258.2 1182.24 257.15 1182.24 255.85C1182.24 254.883 1181.92 254.133 1181.29 253.6C1180.69 253.033 1179.89 252.617 1178.89 252.35C1177.89 252.05 1176.77 251.8 1175.54 251.6C1174.3 251.4 1173.07 251.167 1171.84 250.9C1170.64 250.633 1169.54 250.25 1168.54 249.75C1167.54 249.217 1166.72 248.5 1166.09 247.6C1165.49 246.7 1165.19 245.5 1165.19 244C1165.19 242.567 1165.59 241.283 1166.39 240.15C1167.19 239.017 1168.35 238.133 1169.89 237.5C1171.45 236.833 1173.35 236.5 1175.59 236.5C1177.29 236.5 1178.99 236.733 1180.69 237.2C1182.39 237.633 1183.79 238.217 1184.89 238.95L1183.34 241.8C1182.17 241 1180.92 240.433 1179.59 240.1C1178.25 239.733 1176.92 239.55 1175.59 239.55C1173.22 239.55 1171.47 239.967 1170.34 240.8C1169.24 241.6 1168.69 242.633 1168.69 243.9C1168.69 244.9 1168.99 245.683 1169.59 246.25C1170.22 246.817 1171.04 247.267 1172.04 247.6C1173.07 247.9 1174.19 248.15 1175.39 248.35C1176.62 248.55 1177.84 248.8 1179.04 249.1C1180.27 249.367 1181.39 249.75 1182.39 250.25C1183.42 250.717 1184.24 251.4 1184.84 252.3C1185.47 253.167 1185.79 254.317 1185.79 255.75C1185.79 257.283 1185.35 258.617 1184.49 259.75C1183.65 260.85 1182.42 261.717 1180.79 262.35C1179.19 262.95 1177.24 263.25 1174.94 263.25ZM1205.7 236.5C1207.83 236.5 1209.7 236.917 1211.3 237.75C1212.93 238.55 1214.2 239.783 1215.1 241.45C1216.03 243.117 1216.5 245.217 1216.5 247.75V263H1212.95V248.1C1212.95 245.333 1212.25 243.25 1210.85 241.85C1209.48 240.417 1207.55 239.7 1205.05 239.7C1203.18 239.7 1201.55 240.083 1200.15 240.85C1198.78 241.583 1197.72 242.667 1196.95 244.1C1196.22 245.5 1195.85 247.2 1195.85 249.2V263H1192.3V225.9H1195.85V243.95L1195.15 242.6C1195.98 240.7 1197.32 239.217 1199.15 238.15C1200.98 237.05 1203.17 236.5 1205.7 236.5ZM1237.24 263.25C1234.51 263.25 1232.11 262.683 1230.04 261.55C1227.97 260.383 1226.36 258.8 1225.19 256.8C1224.02 254.767 1223.44 252.45 1223.44 249.85C1223.44 247.25 1223.99 244.95 1225.09 242.95C1226.22 240.95 1227.76 239.383 1229.69 238.25C1231.66 237.083 1233.86 236.5 1236.29 236.5C1238.76 236.5 1240.94 237.067 1242.84 238.2C1244.77 239.3 1246.29 240.867 1247.39 242.9C1248.49 244.9 1249.04 247.217 1249.04 249.85C1249.04 250.017 1249.02 250.2 1248.99 250.4C1248.99 250.567 1248.99 250.75 1248.99 250.95H1226.14V248.3H1247.09L1245.69 249.35C1245.69 247.45 1245.27 245.767 1244.44 244.3C1243.64 242.8 1242.54 241.633 1241.14 240.8C1239.74 239.967 1238.12 239.55 1236.29 239.55C1234.49 239.55 1232.87 239.967 1231.44 240.8C1230.01 241.633 1228.89 242.8 1228.09 244.3C1227.29 245.8 1226.89 247.517 1226.89 249.45V250C1226.89 252 1227.32 253.767 1228.19 255.3C1229.09 256.8 1230.32 257.983 1231.89 258.85C1233.49 259.683 1235.31 260.1 1237.34 260.1C1238.94 260.1 1240.42 259.817 1241.79 259.25C1243.19 258.683 1244.39 257.817 1245.39 256.65L1247.39 258.95C1246.22 260.35 1244.76 261.417 1242.99 262.15C1241.26 262.883 1239.34 263.25 1237.24 263.25ZM1263.32 263.25C1261.15 263.25 1259.1 262.95 1257.17 262.35C1255.23 261.717 1253.72 260.933 1252.62 260L1254.22 257.2C1255.28 258 1256.65 258.7 1258.32 259.3C1259.98 259.867 1261.73 260.15 1263.57 260.15C1266.07 260.15 1267.87 259.767 1268.97 259C1270.07 258.2 1270.62 257.15 1270.62 255.85C1270.62 254.883 1270.3 254.133 1269.67 253.6C1269.07 253.033 1268.27 252.617 1267.27 252.35C1266.27 252.05 1265.15 251.8 1263.92 251.6C1262.68 251.4 1261.45 251.167 1260.22 250.9C1259.02 250.633 1257.92 250.25 1256.92 249.75C1255.92 249.217 1255.1 248.5 1254.47 247.6C1253.87 246.7 1253.57 245.5 1253.57 244C1253.57 242.567 1253.97 241.283 1254.77 240.15C1255.57 239.017 1256.73 238.133 1258.27 237.5C1259.83 236.833 1261.73 236.5 1263.97 236.5C1265.67 236.5 1267.37 236.733 1269.07 237.2C1270.77 237.633 1272.17 238.217 1273.27 238.95L1271.72 241.8C1270.55 241 1269.3 240.433 1267.97 240.1C1266.63 239.733 1265.3 239.55 1263.97 239.55C1261.6 239.55 1259.85 239.967 1258.72 240.8C1257.62 241.6 1257.07 242.633 1257.07 243.9C1257.07 244.9 1257.37 245.683 1257.97 246.25C1258.6 246.817 1259.42 247.267 1260.42 247.6C1261.45 247.9 1262.57 248.15 1263.77 248.35C1265 248.55 1266.22 248.8 1267.42 249.1C1268.65 249.367 1269.77 249.75 1270.77 250.25C1271.8 250.717 1272.62 251.4 1273.22 252.3C1273.85 253.167 1274.17 254.317 1274.17 255.75C1274.17 257.283 1273.73 258.617 1272.87 259.75C1272.03 260.85 1270.8 261.717 1269.17 262.35C1267.57 262.95 1265.62 263.25 1263.32 263.25ZM1304.67 263.25C1302.07 263.25 1299.73 262.683 1297.67 261.55C1295.63 260.383 1294.03 258.8 1292.87 256.8C1291.7 254.767 1291.12 252.45 1291.12 249.85C1291.12 247.217 1291.7 244.9 1292.87 242.9C1294.03 240.9 1295.63 239.333 1297.67 238.2C1299.73 237.067 1302.07 236.5 1304.67 236.5C1306.9 236.5 1308.92 236.933 1310.72 237.8C1312.52 238.667 1313.93 239.967 1314.97 241.7L1312.32 243.5C1311.42 242.167 1310.3 241.183 1308.97 240.55C1307.63 239.917 1306.18 239.6 1304.62 239.6C1302.75 239.6 1301.07 240.033 1299.57 240.9C1298.07 241.733 1296.88 242.917 1296.02 244.45C1295.15 245.983 1294.72 247.783 1294.72 249.85C1294.72 251.917 1295.15 253.717 1296.02 255.25C1296.88 256.783 1298.07 257.983 1299.57 258.85C1301.07 259.683 1302.75 260.1 1304.62 260.1C1306.18 260.1 1307.63 259.783 1308.97 259.15C1310.3 258.517 1311.42 257.55 1312.32 256.25L1314.97 258.05C1313.93 259.75 1312.52 261.05 1310.72 261.95C1308.92 262.817 1306.9 263.25 1304.67 263.25ZM1338.39 263V257.2L1338.24 256.25V246.55C1338.24 244.317 1337.61 242.6 1336.34 241.4C1335.11 240.2 1333.26 239.6 1330.79 239.6C1329.09 239.6 1327.47 239.883 1325.94 240.45C1324.41 241.017 1323.11 241.767 1322.04 242.7L1320.44 240.05C1321.77 238.917 1323.37 238.05 1325.24 237.45C1327.11 236.817 1329.07 236.5 1331.14 236.5C1334.54 236.5 1337.16 237.35 1338.99 239.05C1340.86 240.717 1341.79 243.267 1341.79 246.7V263H1338.39ZM1329.34 263.25C1327.37 263.25 1325.66 262.933 1324.19 262.3C1322.76 261.633 1321.66 260.733 1320.89 259.6C1320.12 258.433 1319.74 257.1 1319.74 255.6C1319.74 254.233 1320.06 253 1320.69 251.9C1321.36 250.767 1322.42 249.867 1323.89 249.2C1325.39 248.5 1327.39 248.15 1329.89 248.15H1338.94V250.8H1329.99C1327.46 250.8 1325.69 251.25 1324.69 252.15C1323.72 253.05 1323.24 254.167 1323.24 255.5C1323.24 257 1323.82 258.2 1324.99 259.1C1326.16 260 1327.79 260.45 1329.89 260.45C1331.89 260.45 1333.61 260 1335.04 259.1C1336.51 258.167 1337.57 256.833 1338.24 255.1L1339.04 257.55C1338.37 259.283 1337.21 260.667 1335.54 261.7C1333.91 262.733 1331.84 263.25 1329.34 263.25ZM1351.43 263V225.9H1354.98V263H1351.43ZM1364.86 263V225.9H1368.41V263H1364.86ZM1389.44 263.25C1386.7 263.25 1384.3 262.683 1382.24 261.55C1380.17 260.383 1378.55 258.8 1377.39 256.8C1376.22 254.767 1375.64 252.45 1375.64 249.85C1375.64 247.25 1376.19 244.95 1377.29 242.95C1378.42 240.95 1379.95 239.383 1381.89 238.25C1383.85 237.083 1386.05 236.5 1388.49 236.5C1390.95 236.5 1393.14 237.067 1395.04 238.2C1396.97 239.3 1398.49 240.867 1399.59 242.9C1400.69 244.9 1401.24 247.217 1401.24 249.85C1401.24 250.017 1401.22 250.2 1401.19 250.4C1401.19 250.567 1401.19 250.75 1401.19 250.95H1378.34V248.3H1399.29L1397.89 249.35C1397.89 247.45 1397.47 245.767 1396.64 244.3C1395.84 242.8 1394.74 241.633 1393.34 240.8C1391.94 239.967 1390.32 239.55 1388.49 239.55C1386.69 239.55 1385.07 239.967 1383.64 240.8C1382.2 241.633 1381.09 242.8 1380.29 244.3C1379.49 245.8 1379.09 247.517 1379.09 249.45V250C1379.09 252 1379.52 253.767 1380.39 255.3C1381.29 256.8 1382.52 257.983 1384.09 258.85C1385.69 259.683 1387.5 260.1 1389.54 260.1C1391.14 260.1 1392.62 259.817 1393.99 259.25C1395.39 258.683 1396.59 257.817 1397.59 256.65L1399.59 258.95C1398.42 260.35 1396.95 261.417 1395.19 262.15C1393.45 262.883 1391.54 263.25 1389.44 263.25ZM1418.91 263.25C1416.41 263.25 1414.16 262.683 1412.16 261.55C1410.2 260.417 1408.65 258.85 1407.51 256.85C1406.38 254.817 1405.81 252.483 1405.81 249.85C1405.81 247.183 1406.38 244.85 1407.51 242.85C1408.65 240.85 1410.2 239.3 1412.16 238.2C1414.16 237.067 1416.41 236.5 1418.91 236.5C1421.21 236.5 1423.26 237.017 1425.06 238.05C1426.9 239.083 1428.35 240.6 1429.41 242.6C1430.51 244.567 1431.06 246.983 1431.06 249.85C1431.06 252.683 1430.53 255.1 1429.46 257.1C1428.4 259.1 1426.95 260.633 1425.11 261.7C1423.31 262.733 1421.25 263.25 1418.91 263.25ZM1419.16 260.1C1421.03 260.1 1422.7 259.683 1424.16 258.85C1425.66 257.983 1426.83 256.783 1427.66 255.25C1428.53 253.683 1428.96 251.883 1428.96 249.85C1428.96 247.783 1428.53 245.983 1427.66 244.45C1426.83 242.917 1425.66 241.733 1424.16 240.9C1422.7 240.033 1421.03 239.6 1419.16 239.6C1417.33 239.6 1415.68 240.033 1414.21 240.9C1412.75 241.733 1411.58 242.917 1410.71 244.45C1409.85 245.983 1409.41 247.783 1409.41 249.85C1409.41 251.883 1409.85 253.683 1410.71 255.25C1411.58 256.783 1412.75 257.983 1414.21 258.85C1415.68 259.683 1417.33 260.1 1419.16 260.1ZM1429.06 263V255.1L1429.41 249.8L1428.91 244.5V225.9H1432.46V263H1429.06ZM890.784 297.5C892.917 297.5 894.784 297.917 896.384 298.75C898.017 299.55 899.284 300.783 900.184 302.45C901.117 304.117 901.584 306.217 901.584 308.75V324H898.034V309.1C898.034 306.333 897.334 304.25 895.934 302.85C894.567 301.417 892.634 300.7 890.134 300.7C888.267 300.7 886.634 301.083 885.234 301.85C883.867 302.583 882.8 303.667 882.034 305.1C881.3 306.5 880.934 308.2 880.934 310.2V324H877.384V286.9H880.934V304.95L880.234 303.6C881.067 301.7 882.4 300.217 884.234 299.15C886.067 298.05 888.25 297.5 890.784 297.5ZM927.623 324V318.2L927.473 317.25V307.55C927.473 305.317 926.839 303.6 925.573 302.4C924.339 301.2 922.489 300.6 920.023 300.6C918.323 300.6 916.706 300.883 915.173 301.45C913.639 302.017 912.339 302.767 911.273 303.7L909.673 301.05C911.006 299.917 912.606 299.05 914.473 298.45C916.339 297.817 918.306 297.5 920.373 297.5C923.773 297.5 926.389 298.35 928.223 300.05C930.089 301.717 931.023 304.267 931.023 307.7V324H927.623ZM918.573 324.25C916.606 324.25 914.889 323.933 913.423 323.3C911.989 322.633 910.889 321.733 910.123 320.6C909.356 319.433 908.973 318.1 908.973 316.6C908.973 315.233 909.289 314 909.923 312.9C910.589 311.767 911.656 310.867 913.123 310.2C914.623 309.5 916.623 309.15 919.123 309.15H928.173V311.8H919.223C916.689 311.8 914.923 312.25 913.923 313.15C912.956 314.05 912.473 315.167 912.473 316.5C912.473 318 913.056 319.2 914.223 320.1C915.389 321 917.023 321.45 919.123 321.45C921.123 321.45 922.839 321 924.273 320.1C925.739 319.167 926.806 317.833 927.473 316.1L928.273 318.55C927.606 320.283 926.439 321.667 924.773 322.7C923.139 323.733 921.073 324.25 918.573 324.25ZM954.215 324.25C951.948 324.25 949.898 323.733 948.065 322.7C946.232 321.633 944.765 320.117 943.665 318.15C942.598 316.15 942.065 313.717 942.065 310.85C942.065 307.983 942.598 305.567 943.665 303.6C944.732 301.6 946.182 300.083 948.015 299.05C949.848 298.017 951.915 297.5 954.215 297.5C956.715 297.5 958.948 298.067 960.915 299.2C962.915 300.3 964.482 301.867 965.615 303.9C966.748 305.9 967.315 308.217 967.315 310.85C967.315 313.517 966.748 315.85 965.615 317.85C964.482 319.85 962.915 321.417 960.915 322.55C958.948 323.683 956.715 324.25 954.215 324.25ZM940.665 333.7V297.75H944.065V305.65L943.715 310.9L944.215 316.2V333.7H940.665ZM953.965 321.1C955.832 321.1 957.498 320.683 958.965 319.85C960.432 318.983 961.598 317.783 962.465 316.25C963.332 314.683 963.765 312.883 963.765 310.85C963.765 308.817 963.332 307.033 962.465 305.5C961.598 303.967 960.432 302.767 958.965 301.9C957.498 301.033 955.832 300.6 953.965 300.6C952.098 300.6 950.415 301.033 948.915 301.9C947.448 302.767 946.282 303.967 945.415 305.5C944.582 307.033 944.165 308.817 944.165 310.85C944.165 312.883 944.582 314.683 945.415 316.25C946.282 317.783 947.448 318.983 948.915 319.85C950.415 320.683 952.098 321.1 953.965 321.1ZM988.102 324.25C985.835 324.25 983.785 323.733 981.952 322.7C980.118 321.633 978.652 320.117 977.552 318.15C976.485 316.15 975.952 313.717 975.952 310.85C975.952 307.983 976.485 305.567 977.552 303.6C978.618 301.6 980.068 300.083 981.902 299.05C983.735 298.017 985.802 297.5 988.102 297.5C990.602 297.5 992.835 298.067 994.802 299.2C996.802 300.3 998.368 301.867 999.502 303.9C1000.63 305.9 1001.2 308.217 1001.2 310.85C1001.2 313.517 1000.63 315.85 999.502 317.85C998.368 319.85 996.802 321.417 994.802 322.55C992.835 323.683 990.602 324.25 988.102 324.25ZM974.552 333.7V297.75H977.952V305.65L977.602 310.9L978.102 316.2V333.7H974.552ZM987.852 321.1C989.718 321.1 991.385 320.683 992.852 319.85C994.318 318.983 995.485 317.783 996.352 316.25C997.218 314.683 997.652 312.883 997.652 310.85C997.652 308.817 997.218 307.033 996.352 305.5C995.485 303.967 994.318 302.767 992.852 301.9C991.385 301.033 989.718 300.6 987.852 300.6C985.985 300.6 984.302 301.033 982.802 301.9C981.335 302.767 980.168 303.967 979.302 305.5C978.468 307.033 978.052 308.817 978.052 310.85C978.052 312.883 978.468 314.683 979.302 316.25C980.168 317.783 981.335 318.983 982.802 319.85C984.302 320.683 985.985 321.1 987.852 321.1ZM1008.44 324V297.75H1011.99V324H1008.44ZM1010.24 291.95C1009.5 291.95 1008.89 291.7 1008.39 291.2C1007.89 290.7 1007.64 290.1 1007.64 289.4C1007.64 288.7 1007.89 288.117 1008.39 287.65C1008.89 287.15 1009.5 286.9 1010.24 286.9C1010.97 286.9 1011.59 287.133 1012.09 287.6C1012.59 288.067 1012.84 288.65 1012.84 289.35C1012.84 290.083 1012.59 290.7 1012.09 291.2C1011.62 291.7 1011 291.95 1010.24 291.95ZM1035.27 297.5C1037.4 297.5 1039.27 297.917 1040.87 298.75C1042.5 299.55 1043.77 300.783 1044.67 302.45C1045.6 304.117 1046.07 306.217 1046.07 308.75V324H1042.52V309.1C1042.52 306.333 1041.82 304.25 1040.42 302.85C1039.05 301.417 1037.12 300.7 1034.62 300.7C1032.75 300.7 1031.12 301.083 1029.72 301.85C1028.35 302.583 1027.28 303.667 1026.52 305.1C1025.78 306.5 1025.42 308.2 1025.42 310.2V324H1021.87V297.75H1025.27V304.95L1024.72 303.6C1025.55 301.7 1026.88 300.217 1028.72 299.15C1030.55 298.05 1032.73 297.5 1035.27 297.5ZM1066.81 324.25C1064.07 324.25 1061.67 323.683 1059.61 322.55C1057.54 321.383 1055.92 319.8 1054.76 317.8C1053.59 315.767 1053.01 313.45 1053.01 310.85C1053.01 308.25 1053.56 305.95 1054.66 303.95C1055.79 301.95 1057.32 300.383 1059.26 299.25C1061.22 298.083 1063.42 297.5 1065.86 297.5C1068.32 297.5 1070.51 298.067 1072.41 299.2C1074.34 300.3 1075.86 301.867 1076.96 303.9C1078.06 305.9 1078.61 308.217 1078.61 310.85C1078.61 311.017 1078.59 311.2 1078.56 311.4C1078.56 311.567 1078.56 311.75 1078.56 311.95H1055.71V309.3H1076.66L1075.26 310.35C1075.26 308.45 1074.84 306.767 1074.01 305.3C1073.21 303.8 1072.11 302.633 1070.71 301.8C1069.31 300.967 1067.69 300.55 1065.86 300.55C1064.06 300.55 1062.44 300.967 1061.01 301.8C1059.57 302.633 1058.46 303.8 1057.66 305.3C1056.86 306.8 1056.46 308.517 1056.46 310.45V311C1056.46 313 1056.89 314.767 1057.76 316.3C1058.66 317.8 1059.89 318.983 1061.46 319.85C1063.06 320.683 1064.87 321.1 1066.91 321.1C1068.51 321.1 1069.99 320.817 1071.36 320.25C1072.76 319.683 1073.96 318.817 1074.96 317.65L1076.96 319.95C1075.79 321.35 1074.32 322.417 1072.56 323.15C1070.82 323.883 1068.91 324.25 1066.81 324.25ZM1092.88 324.25C1090.71 324.25 1088.66 323.95 1086.73 323.35C1084.8 322.717 1083.28 321.933 1082.18 321L1083.78 318.2C1084.85 319 1086.21 319.7 1087.88 320.3C1089.55 320.867 1091.3 321.15 1093.13 321.15C1095.63 321.15 1097.43 320.767 1098.53 320C1099.63 319.2 1100.18 318.15 1100.18 316.85C1100.18 315.883 1099.86 315.133 1099.23 314.6C1098.63 314.033 1097.83 313.617 1096.83 313.35C1095.83 313.05 1094.71 312.8 1093.48 312.6C1092.25 312.4 1091.01 312.167 1089.78 311.9C1088.58 311.633 1087.48 311.25 1086.48 310.75C1085.48 310.217 1084.66 309.5 1084.03 308.6C1083.43 307.7 1083.13 306.5 1083.13 305C1083.13 303.567 1083.53 302.283 1084.33 301.15C1085.13 300.017 1086.3 299.133 1087.83 298.5C1089.4 297.833 1091.3 297.5 1093.53 297.5C1095.23 297.5 1096.93 297.733 1098.63 298.2C1100.33 298.633 1101.73 299.217 1102.83 299.95L1101.28 302.8C1100.11 302 1098.86 301.433 1097.53 301.1C1096.2 300.733 1094.86 300.55 1093.53 300.55C1091.16 300.55 1089.41 300.967 1088.28 301.8C1087.18 302.6 1086.63 303.633 1086.63 304.9C1086.63 305.9 1086.93 306.683 1087.53 307.25C1088.16 307.817 1088.98 308.267 1089.98 308.6C1091.01 308.9 1092.13 309.15 1093.33 309.35C1094.56 309.55 1095.78 309.8 1096.98 310.1C1098.21 310.367 1099.33 310.75 1100.33 311.25C1101.36 311.717 1102.18 312.4 1102.78 313.3C1103.41 314.167 1103.73 315.317 1103.73 316.75C1103.73 318.283 1103.3 319.617 1102.43 320.75C1101.6 321.85 1100.36 322.717 1098.73 323.35C1097.13 323.95 1095.18 324.25 1092.88 324.25ZM1117.29 324.25C1115.13 324.25 1113.08 323.95 1111.14 323.35C1109.21 322.717 1107.69 321.933 1106.59 321L1108.19 318.2C1109.26 319 1110.63 319.7 1112.29 320.3C1113.96 320.867 1115.71 321.15 1117.54 321.15C1120.04 321.15 1121.84 320.767 1122.94 320C1124.04 319.2 1124.59 318.15 1124.59 316.85C1124.59 315.883 1124.28 315.133 1123.64 314.6C1123.04 314.033 1122.24 313.617 1121.24 313.35C1120.24 313.05 1119.13 312.8 1117.89 312.6C1116.66 312.4 1115.43 312.167 1114.19 311.9C1112.99 311.633 1111.89 311.25 1110.89 310.75C1109.89 310.217 1109.08 309.5 1108.44 308.6C1107.84 307.7 1107.54 306.5 1107.54 305C1107.54 303.567 1107.94 302.283 1108.74 301.15C1109.54 300.017 1110.71 299.133 1112.24 298.5C1113.81 297.833 1115.71 297.5 1117.94 297.5C1119.64 297.5 1121.34 297.733 1123.04 298.2C1124.74 298.633 1126.14 299.217 1127.24 299.95L1125.69 302.8C1124.53 302 1123.28 301.433 1121.94 301.1C1120.61 300.733 1119.28 300.55 1117.94 300.55C1115.58 300.55 1113.83 300.967 1112.69 301.8C1111.59 302.6 1111.04 303.633 1111.04 304.9C1111.04 305.9 1111.34 306.683 1111.94 307.25C1112.58 307.817 1113.39 308.267 1114.39 308.6C1115.43 308.9 1116.54 309.15 1117.74 309.35C1118.98 309.55 1120.19 309.8 1121.39 310.1C1122.63 310.367 1123.74 310.75 1124.74 311.25C1125.78 311.717 1126.59 312.4 1127.19 313.3C1127.83 314.167 1128.14 315.317 1128.14 316.75C1128.14 318.283 1127.71 319.617 1126.84 320.75C1126.01 321.85 1124.78 322.717 1123.14 323.35C1121.54 323.95 1119.59 324.25 1117.29 324.25ZM1135.01 324.25C1134.28 324.25 1133.64 323.983 1133.11 323.45C1132.61 322.917 1132.36 322.267 1132.36 321.5C1132.36 320.7 1132.61 320.05 1133.11 319.55C1133.64 319.05 1134.28 318.8 1135.01 318.8C1135.74 318.8 1136.36 319.05 1136.86 319.55C1137.39 320.05 1137.66 320.7 1137.66 321.5C1137.66 322.267 1137.39 322.917 1136.86 323.45C1136.36 323.983 1135.74 324.25 1135.01 324.25ZM1142.27 299.1L1144.47 289.9L1144.87 292C1144.11 292 1143.46 291.767 1142.92 291.3C1142.42 290.8 1142.17 290.15 1142.17 289.35C1142.17 288.55 1142.42 287.9 1142.92 287.4C1143.46 286.9 1144.09 286.65 1144.82 286.65C1145.59 286.65 1146.21 286.917 1146.67 287.45C1147.17 287.95 1147.42 288.583 1147.42 289.35C1147.42 289.617 1147.41 289.883 1147.37 290.15C1147.34 290.417 1147.27 290.717 1147.17 291.05C1147.11 291.35 1146.99 291.733 1146.82 292.2L1144.67 299.1H1142.27ZM1150.77 299.1L1152.97 289.9L1153.37 292C1152.61 292 1151.96 291.767 1151.42 291.3C1150.92 290.8 1150.67 290.15 1150.67 289.35C1150.67 288.55 1150.92 287.9 1151.42 287.4C1151.96 286.9 1152.59 286.65 1153.32 286.65C1154.09 286.65 1154.71 286.917 1155.17 287.45C1155.67 287.95 1155.92 288.583 1155.92 289.35C1155.92 289.617 1155.91 289.883 1155.87 290.15C1155.84 290.417 1155.77 290.717 1155.67 291.05C1155.61 291.35 1155.49 291.733 1155.32 292.2L1153.17 299.1H1150.77Z" fill="black"/>
<path d="M1237.87 447V426H1245.73C1247.51 426 1249.04 426.29 1250.32 426.87C1251.6 427.43 1252.58 428.25 1253.26 429.33C1253.96 430.39 1254.31 431.68 1254.31 433.2C1254.31 434.68 1253.96 435.96 1253.26 437.04C1252.58 438.1 1251.6 438.92 1250.32 439.5C1249.04 440.08 1247.51 440.37 1245.73 440.37H1239.1L1240.09 439.32V447H1237.87ZM1240.09 439.5L1239.1 438.42H1245.67C1247.77 438.42 1249.36 437.97 1250.44 437.07C1251.54 436.15 1252.09 434.86 1252.09 433.2C1252.09 431.52 1251.54 430.22 1250.44 429.3C1249.36 428.38 1247.77 427.92 1245.67 427.92H1239.1L1240.09 426.87V439.5ZM1268.39 447V443.52L1268.3 442.95V437.13C1268.3 435.79 1267.92 434.76 1267.16 434.04C1266.42 433.32 1265.31 432.96 1263.83 432.96C1262.81 432.96 1261.84 433.13 1260.92 433.47C1260 433.81 1259.22 434.26 1258.58 434.82L1257.62 433.23C1258.42 432.55 1259.38 432.03 1260.5 431.67C1261.62 431.29 1262.8 431.1 1264.04 431.1C1266.08 431.1 1267.65 431.61 1268.75 432.63C1269.87 433.63 1270.43 435.16 1270.43 437.22V447H1268.39ZM1262.96 447.15C1261.78 447.15 1260.75 446.96 1259.87 446.58C1259.01 446.18 1258.35 445.64 1257.89 444.96C1257.43 444.26 1257.2 443.46 1257.2 442.56C1257.2 441.74 1257.39 441 1257.77 440.34C1258.17 439.66 1258.81 439.12 1259.69 438.72C1260.59 438.3 1261.79 438.09 1263.29 438.09H1268.72V439.68H1263.35C1261.83 439.68 1260.77 439.95 1260.17 440.49C1259.59 441.03 1259.3 441.7 1259.3 442.5C1259.3 443.4 1259.65 444.12 1260.35 444.66C1261.05 445.2 1262.03 445.47 1263.29 445.47C1264.49 445.47 1265.52 445.2 1266.38 444.66C1267.26 444.1 1267.9 443.3 1268.3 442.26L1268.78 443.73C1268.38 444.77 1267.68 445.6 1266.68 446.22C1265.7 446.84 1264.46 447.15 1262.96 447.15ZM1282.72 447.15C1281.38 447.15 1280.21 446.9 1279.21 446.4C1278.21 445.9 1277.43 445.15 1276.87 444.15C1276.33 443.15 1276.06 441.9 1276.06 440.4V431.25H1278.19V440.16C1278.19 441.84 1278.6 443.11 1279.42 443.97C1280.26 444.81 1281.43 445.23 1282.93 445.23C1284.03 445.23 1284.98 445.01 1285.78 444.57C1286.6 444.11 1287.22 443.45 1287.64 442.59C1288.08 441.73 1288.3 440.7 1288.3 439.5V431.25H1290.43V447H1288.39V442.68L1288.72 443.46C1288.22 444.62 1287.44 445.53 1286.38 446.19C1285.34 446.83 1284.12 447.15 1282.72 447.15ZM1296.37 447V424.74H1298.5V447H1296.37ZM1312.73 447V426H1321.79C1324.13 426 1325.94 426.47 1327.22 427.41C1328.52 428.35 1329.17 429.68 1329.17 431.4C1329.17 432.54 1328.9 433.5 1328.36 434.28C1327.84 435.06 1327.12 435.65 1326.2 436.05C1325.3 436.45 1324.31 436.65 1323.23 436.65L1323.74 435.93C1325.08 435.93 1326.23 436.14 1327.19 436.56C1328.17 436.96 1328.93 437.57 1329.47 438.39C1330.01 439.19 1330.28 440.19 1330.28 441.39C1330.28 443.17 1329.62 444.55 1328.3 445.53C1327 446.51 1325.03 447 1322.39 447H1312.73ZM1314.95 445.17H1322.36C1324.2 445.17 1325.61 444.86 1326.59 444.24C1327.57 443.6 1328.06 442.59 1328.06 441.21C1328.06 439.85 1327.57 438.86 1326.59 438.24C1325.61 437.6 1324.2 437.28 1322.36 437.28H1314.71V435.45H1321.64C1323.32 435.45 1324.62 435.13 1325.54 434.49C1326.48 433.85 1326.95 432.9 1326.95 431.64C1326.95 430.36 1326.48 429.41 1325.54 428.79C1324.62 428.15 1323.32 427.83 1321.64 427.83H1314.95V445.17ZM1341.31 447.15C1339.79 447.15 1338.42 446.81 1337.2 446.13C1336 445.43 1335.05 444.48 1334.35 443.28C1333.65 442.06 1333.3 440.67 1333.3 439.11C1333.3 437.53 1333.65 436.14 1334.35 434.94C1335.05 433.74 1336 432.8 1337.2 432.12C1338.4 431.44 1339.77 431.1 1341.31 431.1C1342.87 431.1 1344.25 431.44 1345.45 432.12C1346.67 432.8 1347.62 433.74 1348.3 434.94C1349 436.14 1349.35 437.53 1349.35 439.11C1349.35 440.67 1349 442.06 1348.3 443.28C1347.62 444.48 1346.67 445.43 1345.45 446.13C1344.23 446.81 1342.85 447.15 1341.31 447.15ZM1341.31 445.26C1342.45 445.26 1343.46 445.01 1344.34 444.51C1345.22 443.99 1345.91 443.27 1346.41 442.35C1346.93 441.41 1347.19 440.33 1347.19 439.11C1347.19 437.87 1346.93 436.79 1346.41 435.87C1345.91 434.95 1345.22 434.24 1344.34 433.74C1343.46 433.22 1342.46 432.96 1341.34 432.96C1340.22 432.96 1339.22 433.22 1338.34 433.74C1337.46 434.24 1336.76 434.95 1336.24 435.87C1335.72 436.79 1335.46 437.87 1335.46 439.11C1335.46 440.33 1335.72 441.41 1336.24 442.35C1336.76 443.27 1337.46 443.99 1338.34 444.51C1339.22 445.01 1340.21 445.26 1341.31 445.26ZM1360.24 447.15C1358.68 447.15 1357.28 446.81 1356.04 446.13C1354.82 445.43 1353.86 444.48 1353.16 443.28C1352.46 442.06 1352.11 440.67 1352.11 439.11C1352.11 437.53 1352.46 436.14 1353.16 434.94C1353.86 433.74 1354.82 432.8 1356.04 432.12C1357.28 431.44 1358.68 431.1 1360.24 431.1C1361.58 431.1 1362.79 431.36 1363.87 431.88C1364.95 432.4 1365.8 433.18 1366.42 434.22L1364.83 435.3C1364.29 434.5 1363.62 433.91 1362.82 433.53C1362.02 433.15 1361.15 432.96 1360.21 432.96C1359.09 432.96 1358.08 433.22 1357.18 433.74C1356.28 434.24 1355.57 434.95 1355.05 435.87C1354.53 436.79 1354.27 437.87 1354.27 439.11C1354.27 440.35 1354.53 441.43 1355.05 442.35C1355.57 443.27 1356.28 443.99 1357.18 444.51C1358.08 445.01 1359.09 445.26 1360.21 445.26C1361.15 445.26 1362.02 445.07 1362.82 444.69C1363.62 444.31 1364.29 443.73 1364.83 442.95L1366.42 444.03C1365.8 445.05 1364.95 445.83 1363.87 446.37C1362.79 446.89 1361.58 447.15 1360.24 447.15ZM1377.12 447.15C1375.78 447.15 1374.61 446.9 1373.61 446.4C1372.61 445.9 1371.83 445.15 1371.27 444.15C1370.73 443.15 1370.46 441.9 1370.46 440.4V431.25H1372.59V440.16C1372.59 441.84 1373 443.11 1373.82 443.97C1374.66 444.81 1375.83 445.23 1377.33 445.23C1378.43 445.23 1379.38 445.01 1380.18 444.57C1381 444.11 1381.62 443.45 1382.04 442.59C1382.48 441.73 1382.7 440.7 1382.7 439.5V431.25H1384.83V447H1382.79V442.68L1383.12 443.46C1382.62 444.62 1381.84 445.53 1380.78 446.19C1379.74 446.83 1378.52 447.15 1377.12 447.15ZM1394.99 447.15C1393.69 447.15 1392.46 446.97 1391.3 446.61C1390.14 446.23 1389.23 445.76 1388.57 445.2L1389.53 443.52C1390.17 444 1390.99 444.42 1391.99 444.78C1392.99 445.12 1394.04 445.29 1395.14 445.29C1396.64 445.29 1397.72 445.06 1398.38 444.6C1399.04 444.12 1399.37 443.49 1399.37 442.71C1399.37 442.13 1399.18 441.68 1398.8 441.36C1398.44 441.02 1397.96 440.77 1397.36 440.61C1396.76 440.43 1396.09 440.28 1395.35 440.16C1394.61 440.04 1393.87 439.9 1393.13 439.74C1392.41 439.58 1391.75 439.35 1391.15 439.05C1390.55 438.73 1390.06 438.3 1389.68 437.76C1389.32 437.22 1389.14 436.5 1389.14 435.6C1389.14 434.74 1389.38 433.97 1389.86 433.29C1390.34 432.61 1391.04 432.08 1391.96 431.7C1392.9 431.3 1394.04 431.1 1395.38 431.1C1396.4 431.1 1397.42 431.24 1398.44 431.52C1399.46 431.78 1400.3 432.13 1400.96 432.57L1400.03 434.28C1399.33 433.8 1398.58 433.46 1397.78 433.26C1396.98 433.04 1396.18 432.93 1395.38 432.93C1393.96 432.93 1392.91 433.18 1392.23 433.68C1391.57 434.16 1391.24 434.78 1391.24 435.54C1391.24 436.14 1391.42 436.61 1391.78 436.95C1392.16 437.29 1392.65 437.56 1393.25 437.76C1393.87 437.94 1394.54 438.09 1395.26 438.21C1396 438.33 1396.73 438.48 1397.45 438.66C1398.19 438.82 1398.86 439.05 1399.46 439.35C1400.08 439.63 1400.57 440.04 1400.93 440.58C1401.31 441.1 1401.5 441.79 1401.5 442.65C1401.5 443.57 1401.24 444.37 1400.72 445.05C1400.22 445.71 1399.48 446.23 1398.5 446.61C1397.54 446.97 1396.37 447.15 1394.99 447.15ZM1412.1 447.15C1410.46 447.15 1409.02 446.81 1407.78 446.13C1406.54 445.43 1405.57 444.48 1404.87 443.28C1404.17 442.06 1403.82 440.67 1403.82 439.11C1403.82 437.55 1404.15 436.17 1404.81 434.97C1405.49 433.77 1406.41 432.83 1407.57 432.15C1408.75 431.45 1410.07 431.1 1411.53 431.1C1413.01 431.1 1414.32 431.44 1415.46 432.12C1416.62 432.78 1417.53 433.72 1418.19 434.94C1418.85 436.14 1419.18 437.53 1419.18 439.11C1419.18 439.21 1419.17 439.32 1419.15 439.44C1419.15 439.54 1419.15 439.65 1419.15 439.77H1405.44V438.18H1418.01L1417.17 438.81C1417.17 437.67 1416.92 436.66 1416.42 435.78C1415.94 434.88 1415.28 434.18 1414.44 433.68C1413.6 433.18 1412.63 432.93 1411.53 432.93C1410.45 432.93 1409.48 433.18 1408.62 433.68C1407.76 434.18 1407.09 434.88 1406.61 435.78C1406.13 436.68 1405.89 437.71 1405.89 438.87V439.2C1405.89 440.4 1406.15 441.46 1406.67 442.38C1407.21 443.28 1407.95 443.99 1408.89 444.51C1409.85 445.01 1410.94 445.26 1412.16 445.26C1413.12 445.26 1414.01 445.09 1414.83 444.75C1415.67 444.41 1416.39 443.89 1416.99 443.19L1418.19 444.57C1417.49 445.41 1416.61 446.05 1415.55 446.49C1414.51 446.93 1413.36 447.15 1412.1 447.15Z" fill="black"/>
</g>
<defs>
<clipPath id="clip0_411_4">
<rect width="1500" height="500" fill="white"/>
</clipPath>
</defs>
</svg>
