<svg width="444" height="208" viewBox="0 0 444 208" fill="none" xmlns="http://www.w3.org/2000/svg">
<path d="M47.0259 68.2336C36.7445 69.0497 27.282 72.5859 19.2298 78.6157C10.9046 84.8721 4.12618 95.2089 1.35112 105.999C-0.605072 113.525 -0.423101 124.542 1.80605 131.977C10.0857 159.451 38.7462 174.367 65.9055 165.39C81.7825 160.131 93.9291 147.21 98.4783 130.753C100.071 125.04 100.48 115.248 99.3882 109.399C95.1574 87.0483 77.3697 70.6818 54.7597 68.415C52.0756 68.143 49.619 67.9616 49.3461 68.007C49.0731 68.0523 48.0268 68.143 47.0259 68.2336ZM58.9451 71.3165C77.0057 74.7168 91.063 87.7737 96.2492 105.818C97.432 110.034 97.523 110.805 97.4775 118.467C97.432 125.947 97.341 126.944 96.2037 130.707C94.6569 135.876 92.0183 141.407 89.1523 145.578C86.8322 148.933 81.1456 154.872 80.6906 154.464C80.4177 154.146 82.0099 144.58 82.9653 140.908C84.1481 136.42 84.1481 136.465 79.0074 132.294C72.5019 127.035 71.4101 125.992 70.4547 123.771C69.9998 122.728 69.4084 121.867 69.1809 121.867C68.5895 121.867 69.09 116.789 69.7723 115.973C70.0908 115.61 70.5002 114.885 70.6367 114.341C70.8187 113.797 71.4101 113.162 72.047 112.89C73.0933 112.391 74.0487 110.351 73.4573 109.762C73.3208 109.626 73.5938 108.946 74.0942 108.266C74.5946 107.54 75.004 106.407 75.004 105.636C75.004 103.959 73.1843 101.919 71.6376 101.919C71.0007 101.919 69.9998 101.42 69.3629 100.785C68.726 100.151 67.7707 99.6519 67.2247 99.6519C66.3149 99.6519 66.2694 99.4705 66.5424 97.7931C67.0428 94.7555 68.5895 91.582 69.6814 91.3553C70.6822 91.1739 70.6822 91.1739 69.6814 91.0833C68.3166 91.0379 66.5424 93.6674 65.9055 96.7957C65.587 98.1104 65.314 99.1985 65.2231 99.1985C64.8136 99.1985 60.8558 97.4304 56.0335 95.0275C50.3924 92.262 49.528 91.4459 51.0748 90.1765C52.0756 89.3151 52.4396 84.9175 51.6207 83.6934C50.6199 82.288 50.7108 80.7919 51.8027 79.7038C53.0765 78.4344 54.8962 78.5704 56.4429 80.0211C57.4438 80.9732 57.7167 81.0639 57.7167 80.4745C57.7167 79.5678 59.4455 78.3437 60.7193 78.3437C62.0386 78.3437 64.5407 80.4292 64.5407 81.5172C64.5407 82.2426 64.8591 82.3786 66.4059 82.288C68.817 82.1973 70.2273 83.6481 69.8633 85.9149C69.6814 87.003 69.7723 87.411 70.2273 87.411C71.2736 87.411 71.9105 89.0431 71.3646 90.2219C70.8642 91.2193 70.9097 91.2193 71.5466 90.4032C72.5019 89.2245 72.4564 88.2271 71.3646 86.8216C70.8642 86.1869 70.4547 85.1442 70.4547 84.5095C70.4547 82.7413 68.908 81.4266 66.9973 81.6079C65.6325 81.6986 65.3595 81.5626 64.6317 80.1572C63.3124 77.4823 60.1734 76.7569 58.0807 78.661C57.3073 79.3411 57.2163 79.3411 56.4429 78.661C54.6232 77.0289 51.6662 77.9357 50.6199 80.4292C50.0739 81.7893 50.0739 82.1973 50.6654 83.6027C51.6207 85.9149 51.5297 88.091 50.3469 89.9045C49.3461 91.3553 49.2096 91.4459 47.3444 91.1739C45.7066 90.9473 45.2062 91.0833 44.2964 91.9446C42.9316 93.2141 42.8406 95.0729 43.9324 96.977C44.7058 98.2918 44.7058 98.2918 43.25 99.6065C41.9307 100.831 41.8397 101.103 42.0672 103.007C42.3402 104.82 42.2037 105.319 40.6114 107.767L38.8372 110.487L36.972 110.261C35.1068 109.989 33.1506 110.623 33.1506 111.439C33.1506 111.711 33.4691 111.893 33.833 111.893C35.1523 111.893 35.5162 113.525 34.6974 115.928C33.6965 119.011 34.3334 120.779 37.336 123.408C38.5643 124.496 39.4286 125.494 39.2012 125.63C38.9737 125.766 37.245 126.31 35.4253 126.808L32.0588 127.761L30.421 126.627C25.7808 123.318 23.8246 121.504 23.4606 120.28C23.1422 119.056 23.2787 118.693 24.8709 116.97C26.4632 115.248 26.8726 115.066 28.7378 115.066C29.9206 115.066 30.876 114.84 30.876 114.613C30.876 114.341 30.603 114.16 30.2391 114.16C29.8751 114.16 29.4202 113.525 29.2837 112.663C28.4194 108.765 25.0529 105.047 21.5499 104.095C20.1397 103.732 19.5028 103.279 19.5028 102.78C19.5028 100.876 16.7732 100.468 16.3183 102.281C16.1363 103.052 15.4994 103.551 13.9071 104.095C12.7243 104.548 11.0411 105.455 10.1312 106.18C8.35702 107.586 6.30984 111.394 6.30984 113.344C6.30984 114.296 6.08238 114.568 5.08153 114.704C4.44463 114.794 3.80773 115.112 3.67125 115.384C3.53478 115.837 4.49013 115.973 7.35617 115.973C11.0866 115.973 11.2686 116.018 13.9526 117.786C16.5002 119.509 16.7277 119.781 17.2281 122.003C18.2745 126.854 18.3199 129.529 17.4556 130.481C16.5002 131.523 16.7732 132.929 18.1835 134.742C18.9568 135.694 19.4118 135.921 20.2761 135.694C21.186 135.468 21.9139 135.921 24.325 138.143C26.1447 139.865 27.9189 141.089 29.1018 141.407C30.6485 141.906 30.876 142.132 30.6485 142.903C30.4665 143.447 30.2391 145.895 30.1026 148.389L29.8751 152.968L31.7858 154.282C33.651 155.597 33.742 155.597 41.4758 155.779C49.892 156.005 56.5339 155.325 62.448 153.602C64.1767 153.104 65.7235 152.832 65.9055 152.922C66.0874 153.058 66.3604 153.784 66.5424 154.6C66.6788 155.37 67.4522 157.003 68.2256 158.227C69.0445 159.451 69.5904 160.494 69.4994 160.584C68.908 161.128 63.2669 163.214 59.9914 164.075C54.7597 165.481 42.6131 165.617 37.1085 164.347C33.8785 163.576 33.4691 163.35 32.9232 162.08C32.5137 161.219 32.2863 160.947 32.2408 161.4C32.2408 162.579 31.6494 162.443 27.646 160.312C11.4505 151.789 1.39661 134.153 2.35196 115.746C2.98886 103.097 7.67462 92.806 16.8187 83.9654C23.8246 77.1649 31.4219 73.1753 40.7024 71.3619C45.0242 70.5005 54.4868 70.5005 58.9451 71.3165ZM61.1742 98.2918C63.9038 99.5159 66.3149 100.831 66.5424 101.148C67.2702 102.281 66.4059 104.911 64.7681 106.407C63.1759 107.858 62.7665 108.855 63.6308 109.399C63.9038 109.535 64.0857 110.397 64.0857 111.258C64.0857 112.119 64.3132 112.799 64.5407 112.799C64.8136 112.799 64.9956 112.391 64.9956 111.893C64.9956 110.85 66.8608 109.49 68.0436 109.717C69.1355 109.898 70.0908 112.029 69.7269 113.434C69.3174 115.112 67.9071 116.381 66.7243 116.154C65.7235 115.973 65.7235 115.973 66.8153 116.517C68.3166 117.242 68.635 117.741 68.635 119.283C68.635 120.824 66.9063 121.957 62.4935 123.272C60.1734 123.998 58.8086 124.723 57.4893 125.992C55.1691 128.214 50.6199 130.027 47.4354 130.027C44.7513 130.027 43.2955 129.121 41.5213 126.355C40.9299 125.358 39.5651 123.952 38.5188 123.227C35.9257 121.368 35.2888 120.28 35.3343 117.877C35.3343 115.338 35.9712 114.613 37.1995 115.701C38.4733 116.834 41.9762 117.786 45.0242 117.786C48.0268 117.786 50.2104 118.421 49.71 119.192C49.528 119.555 48.3452 119.645 46.2526 119.509C43.614 119.283 43.159 119.373 43.341 119.917C43.4775 120.28 43.614 120.733 43.614 120.96C43.614 121.187 43.9324 121.685 44.3419 122.048C45.8431 123.59 50.3469 122.411 51.4842 120.189C52.758 117.741 57.7622 115.701 60.5828 116.472C61.5381 116.744 62.448 116.834 62.5845 116.744C63.1304 116.2 59.7639 113.207 58.0807 112.754C55.7151 112.165 54.3048 112.527 52.3486 114.205C51.1658 115.248 50.4834 115.52 49.6645 115.293C48.8001 115.112 48.4817 115.248 48.2997 115.928C47.8903 117.469 44.0689 117.514 44.0689 115.928C44.0689 115.474 43.7959 115.066 43.432 115.066C42.6586 115.066 42.2492 114.069 42.2492 112.346C42.2492 110.533 43.5685 109.943 46.844 110.17C49.3006 110.351 50.3469 109.989 48.9821 109.49C48.5272 109.309 48.5272 109.173 48.9821 108.674C49.2551 108.356 49.528 107.812 49.528 107.45C49.528 107.132 49.0276 107.404 48.4362 108.084C47.5264 109.127 46.9804 109.354 44.9788 109.445C42.5221 109.49 41.3393 110.306 41.3393 111.802C41.3393 112.346 41.2028 112.346 40.6569 111.893C39.5651 110.986 39.8836 109.535 41.5668 107.404C42.4312 106.316 43.159 104.956 43.159 104.412C43.159 103.097 44.0234 102.372 46.0706 102.055C47.9813 101.737 48.1178 101.375 46.7075 100.423C45.6611 99.7425 45.7066 99.6972 47.3444 99.7425C49.1186 99.7879 50.8928 98.6998 50.8928 97.521C50.8928 97.2037 51.3477 96.9317 51.9392 96.9317C52.5306 96.9317 53.3949 96.6143 53.8953 96.2516C54.9417 95.4809 54.9872 95.4809 61.1742 98.2918ZM23.0512 105.5C26.0992 107.042 29.1472 111.893 27.646 112.799C27.3275 113.026 22.5963 113.207 17.1826 113.253L7.26519 113.298L7.72012 111.802C8.448 109.218 10.4952 106.815 13.1338 105.41C15.3174 104.276 15.9998 104.14 18.3654 104.322C19.9122 104.412 21.9594 104.956 23.0512 105.5ZM28.6013 114.069C28.6013 114.568 7.72012 115.157 7.03772 114.704C6.76477 114.522 8.40251 114.25 10.6317 114.114C17.4556 113.706 28.6013 113.661 28.6013 114.069ZM24.507 116.2C24.507 116.562 24.0975 117.106 23.5971 117.424C22.5508 118.104 22.4598 119.147 23.1877 121.187C23.6881 122.547 23.5971 122.819 21.8229 125.403C20.8221 126.899 19.7757 128.259 19.5483 128.395C19.0933 128.713 18.138 124.904 18.138 122.774C18.138 120.597 17.4556 119.464 15.1355 117.786L12.9063 116.2L17.9105 115.928C20.6856 115.792 23.2787 115.656 23.7336 115.61C24.143 115.565 24.507 115.837 24.507 116.2ZM50.5744 120.28C50.2559 121.187 48.0723 122.32 46.6165 122.32C45.3882 122.32 43.9324 121.141 44.3419 120.461C44.4783 120.235 45.2517 120.144 46.0251 120.28C46.844 120.416 48.1178 120.325 48.8456 120.099C50.7563 119.509 50.8928 119.509 50.5744 120.28ZM69.2719 123.454C69.6814 124.043 69.9998 124.723 69.9998 124.95C69.9998 125.494 57.3073 131.523 53.6224 132.748C51.9846 133.292 50.4834 133.881 50.2559 134.108C50.0285 134.334 50.3469 135.105 51.0748 135.921C51.9392 137.009 52.2576 137.871 52.2576 139.367C52.2576 140.455 52.1666 141.361 52.0301 141.361C51.2568 141.361 49.0276 139.865 47.9813 138.596L46.7985 137.191L45.8431 138.369C44.7968 139.684 42.7041 140.908 41.5213 140.908C40.4295 140.908 41.0209 138.415 42.7041 136.057C43.4775 135.014 44.0689 134.062 44.0689 133.881C44.0689 133.745 43.5685 132.929 42.9771 132.158C42.2492 131.206 42.0217 130.435 42.2037 129.846C42.4766 129.121 42.8406 129.347 44.5693 131.523C45.6611 132.974 46.753 134.108 47.0259 134.108C47.5264 134.108 55.4876 128.486 58.0352 126.355C59.4455 125.176 60.1279 124.859 64.7681 123.318C68.3166 122.139 68.4076 122.139 69.2719 123.454ZM27.0091 124.904L29.1927 126.536L24.8254 130.798C22.4143 133.11 20.1852 135.014 19.8212 135.014C19.4573 135.014 18.7294 134.334 18.229 133.473L17.3191 131.931L18.9114 130.435C19.7757 129.574 21.3225 127.625 22.3688 126.083C23.4151 124.496 24.416 123.227 24.5525 123.227C24.6889 123.227 25.8263 123.952 27.0091 124.904ZM40.7024 126.899C41.5213 127.67 41.6578 128.169 41.4758 129.619C41.2483 131.161 41.3848 131.614 42.5221 132.793L43.7959 134.108L42.2947 135.649C41.0664 136.919 40.7024 137.689 40.5205 139.503C40.3385 141.498 40.4295 141.815 41.1119 141.815C41.6578 141.815 41.7943 142.042 41.5668 142.586C40.7479 144.58 40.4295 147.754 40.7024 151.2L40.9754 154.962H37.9729C34.7884 154.962 32.4227 154.237 31.3764 153.013C30.967 152.514 30.785 151.154 30.785 149.114C30.8305 145.532 32.1953 140.908 34.7429 135.921C36.5171 132.385 36.79 131.387 35.3798 133.428C34.2424 135.105 32.2408 139.457 32.2408 140.273C32.2408 141.906 28.5103 140.636 25.0529 137.871C21.5954 135.06 21.6409 134.969 25.9173 130.617C29.6477 126.899 29.7387 126.854 30.4665 127.715C31.2399 128.622 31.2399 128.622 34.9703 127.579C37.0175 126.99 38.7917 126.355 38.9282 126.219C39.3831 125.811 39.6106 125.902 40.7024 126.899ZM76.3688 131.07C81.0091 134.924 82.5558 136.465 82.6468 137.372C82.7378 138.052 82.2829 140.455 81.646 142.812C81.0091 145.124 80.4632 147.482 80.4632 148.026C80.4632 149.477 79.7353 149.341 77.6881 147.482C76.7327 146.621 74.7311 145.306 73.2298 144.58L70.5457 143.22L71.1826 140.817C71.5011 139.503 71.774 138.188 71.774 137.961C71.7285 137.1 69.9543 141.543 68.8625 145.351C67.0883 151.472 65.587 152.56 56.5339 154.01C50.6199 154.962 42.5221 155.37 41.8852 154.781C41.7488 154.6 41.5213 152.469 41.4303 150.021C41.2028 144.308 41.7033 142.676 44.2964 140.908C45.3882 140.183 46.3435 139.321 46.48 139.004C46.6165 138.596 47.2079 138.868 48.2087 139.82C49.983 141.452 51.3932 142.268 52.5306 142.268C53.7134 142.268 53.2584 136.692 51.9392 135.377L50.9383 134.425L54.8962 133.11C57.0798 132.385 61.3107 130.481 64.3132 128.939C67.3157 127.352 69.8633 126.038 69.9998 125.992C70.1363 125.992 73.0023 128.259 76.3688 131.07ZM49.528 131.841C47.6628 133.382 47.3899 133.473 46.2526 132.43C45.0242 131.297 45.2517 130.798 46.9349 131.115C47.7083 131.251 48.7092 131.161 49.0731 130.934C50.6654 129.891 51.0293 130.571 49.528 131.841ZM72.4109 144.807C73.2298 145.215 75.1405 146.485 76.7327 147.573C79.3258 149.386 79.5988 149.749 79.3258 150.791C79.0074 152.061 77.4151 154.509 76.9147 154.509C76.5508 154.509 74.8221 153.058 71.5466 149.93L69.09 147.663L69.5904 145.85C70.2273 143.855 70.3638 143.81 72.4109 144.807ZM73.0478 153.648C72.5929 154.373 72.6384 154.6 73.0933 154.917C74.1397 155.552 73.5028 156.912 71.6376 157.864L69.9088 158.816L68.817 157.456C68.2256 156.685 67.4977 155.37 67.2247 154.464C66.7698 153.104 66.8608 152.514 67.6797 150.701L68.635 148.525L71.0916 150.655C73.3208 152.514 73.5483 152.877 73.0478 153.648Z" fill="black"/>
<path d="M53.5313 98.5184C53.3494 98.6998 53.5313 99.2892 53.8953 99.8785C54.2592 100.423 54.4412 101.193 54.3047 101.511C54.1228 102.009 54.4412 102.145 55.7605 102.009C56.8523 101.919 58.1261 102.191 59.218 102.735C60.4918 103.415 60.9012 103.505 60.9012 103.007C60.9012 101.919 59.9458 100.332 58.763 99.4705C57.5802 98.6091 54.0773 97.9744 53.5313 98.5184Z" fill="black"/>
<path d="M45.9795 104.276C45.6611 104.594 45.4336 105.319 45.4336 105.908C45.4336 107.359 46.9804 107.087 47.1623 105.591C47.3898 104.276 46.7074 103.551 45.9795 104.276Z" fill="black"/>
<path d="M54.9873 106.407C54.9873 107.994 55.6697 108.583 56.2611 107.54C56.807 106.543 56.4431 105.092 55.6242 105.092C55.2148 105.092 54.9873 105.591 54.9873 106.407Z" fill="black"/>
<path d="M43.9322 143.356C43.6138 144.082 43.9777 144.535 44.8421 144.535C45.1606 144.535 45.4335 144.127 45.4335 143.628C45.4335 142.586 44.2962 142.404 43.9322 143.356Z" fill="black"/>
<path d="M43.6143 147.935C43.6143 148.298 44.0237 148.615 44.5241 148.615C45.0245 148.615 45.434 148.298 45.434 147.935C45.434 147.573 45.0245 147.255 44.5241 147.255C44.0237 147.255 43.6143 147.573 43.6143 147.935Z" fill="black"/>
<path d="M44.1599 152.514C44.3419 153.466 45.1607 153.557 45.3427 152.56C45.4337 152.106 45.2062 151.789 44.7513 151.789C44.2964 151.789 44.0689 152.061 44.1599 152.514Z" fill="black"/>
<path d="M155.568 130.1C155.168 130.5 154.552 131.067 153.718 131.8C152.918 132.5 152.068 133.167 151.168 133.8C150.302 134.433 149.568 134.833 148.968 135C148.268 135.2 147.635 135.417 147.068 135.65C146.502 135.883 145.885 136.083 145.218 136.25C144.552 136.45 143.718 136.55 142.718 136.55C141.318 136.55 139.818 136.3 138.218 135.8C136.618 135.333 135.118 134.75 133.718 134.05C132.318 133.383 131.185 132.733 130.318 132.1C128.585 130.8 127.252 129.05 126.318 126.85C125.418 124.617 124.968 122 124.968 119C124.968 118.167 125.052 117.267 125.218 116.3C125.385 115.3 125.585 114.367 125.818 113.5C126.052 112.6 126.285 111.883 126.518 111.35C127.218 109.75 128.068 108.183 129.068 106.65C130.102 105.117 131.435 103.833 133.068 102.8C133.935 102.233 135.035 101.65 136.368 101.05C137.702 100.417 139.452 100.1 141.618 100.1C141.918 100.1 142.235 100.117 142.568 100.15C142.902 100.15 143.235 100.167 143.568 100.2C145.402 100.4 147.018 100.967 148.418 101.9C149.852 102.833 150.968 103.817 151.768 104.85C152.135 105.317 152.452 105.933 152.718 106.7C152.985 107.467 153.118 108.283 153.118 109.15C153.118 109.55 153.085 109.95 153.018 110.35C152.985 110.75 152.885 111.15 152.718 111.55C152.318 112.783 151.768 113.933 151.068 115C150.402 116.067 149.568 116.933 148.568 117.6C147.568 118.233 146.368 118.55 144.968 118.55C143.735 118.55 142.785 118.467 142.118 118.3C141.452 118.133 140.902 117.867 140.468 117.5C140.035 117.1 139.535 116.567 138.968 115.9C138.502 115.333 138.185 114.7 138.018 114C137.852 113.267 137.768 112.583 137.768 111.95C137.768 111.317 137.768 110.867 137.768 110.6C137.768 109.8 138.102 109 138.768 108.2C139.468 107.367 140.285 106.667 141.218 106.1C142.185 105.533 143.035 105.25 143.768 105.25C144.435 105.25 144.968 105.517 145.368 106.05C145.768 106.55 146.052 107.117 146.218 107.75C146.418 108.383 146.518 108.883 146.518 109.25C146.518 109.75 146.452 110.317 146.318 110.95C146.185 111.583 145.735 112.183 144.968 112.75C144.835 112.883 144.702 112.95 144.568 112.95C144.335 112.95 144.218 112.783 144.218 112.45C144.218 112.283 144.268 112.083 144.368 111.85C144.468 111.617 144.635 111.417 144.868 111.25C145.135 111.05 145.302 110.817 145.368 110.55C145.435 110.283 145.468 110.033 145.468 109.8C145.468 109.6 145.452 109.417 145.418 109.25C145.418 109.05 145.418 108.883 145.418 108.75C145.418 108.483 145.268 108.117 144.968 107.65C144.668 107.15 144.268 106.9 143.768 106.9C143.268 106.9 142.668 107.1 141.968 107.5C141.302 107.867 140.718 108.333 140.218 108.9C139.718 109.467 139.468 110.033 139.468 110.6C139.468 110.933 139.668 111.45 140.068 112.15C140.502 112.85 140.985 113.533 141.518 114.2C141.952 114.7 142.252 115.1 142.418 115.4C142.618 115.7 142.885 115.917 143.218 116.05C143.585 116.15 144.252 116.2 145.218 116.2C146.885 116.2 148.152 115.7 149.018 114.7C149.885 113.667 150.585 112.433 151.118 111C151.318 110.333 151.418 109.7 151.418 109.1C151.418 108.433 151.318 107.817 151.118 107.25C150.952 106.683 150.735 106.233 150.468 105.9C149.802 105 149.018 104.333 148.118 103.9C147.218 103.433 145.985 103.133 144.418 103C144.118 102.967 143.818 102.95 143.518 102.95C143.252 102.917 142.985 102.9 142.718 102.9C140.718 102.9 139.118 103.2 137.918 103.8C136.752 104.4 135.735 104.95 134.868 105.45C133.368 106.35 132.168 107.5 131.268 108.9C130.368 110.3 129.585 111.733 128.918 113.2C128.718 113.667 128.502 114.317 128.268 115.15C128.068 115.983 127.902 116.85 127.768 117.75C127.635 118.65 127.568 119.467 127.568 120.2C127.568 122.867 127.802 125 128.268 126.6C128.735 128.2 129.752 129.583 131.318 130.75C132.152 131.35 133.218 131.967 134.518 132.6C135.818 133.233 137.185 133.767 138.618 134.2C140.085 134.667 141.452 134.9 142.718 134.9C144.085 134.9 145.152 134.717 145.918 134.35C146.685 134.017 147.535 133.7 148.468 133.4C149.035 133.233 149.752 132.9 150.618 132.4C151.485 131.9 152.318 131.367 153.118 130.8C153.952 130.233 154.552 129.783 154.918 129.45C155.152 129.217 155.385 129.1 155.618 129.1C155.818 129.1 155.918 129.2 155.918 129.4C155.918 129.633 155.802 129.867 155.568 130.1ZM171.46 129.85C170.593 130.883 169.843 131.6 169.21 132C168.577 132.4 168.027 132.6 167.56 132.6C166.96 132.6 166.443 132.367 166.01 131.9C165.61 131.4 165.26 130.867 164.96 130.3C164.693 129.733 164.477 129.333 164.31 129.1C163.677 129.667 162.927 130.267 162.06 130.9C161.193 131.5 160.477 131.8 159.91 131.8C158.843 131.8 158.01 131.533 157.41 131C156.81 130.433 156.51 129.617 156.51 128.55C156.51 127.45 156.643 126.15 156.91 124.65C157.21 123.15 157.577 121.667 158.01 120.2C158.443 118.7 158.86 117.45 159.26 116.45C159.36 116.15 159.56 115.9 159.86 115.7C160.193 115.5 160.527 115.4 160.86 115.4C161.26 115.4 161.527 115.5 161.66 115.7C161.793 115.9 161.86 116.133 161.86 116.4C161.86 116.733 161.793 117.067 161.66 117.4C161.56 117.7 161.51 117.85 161.51 117.85C161.11 118.983 160.643 120.167 160.11 121.4C159.61 122.633 159.143 124.033 158.71 125.6C158.677 125.8 158.627 126.083 158.56 126.45C158.527 126.817 158.51 127.2 158.51 127.6C158.51 128.167 158.577 128.7 158.71 129.2C158.877 129.667 159.177 129.9 159.61 129.9C159.977 129.9 160.46 129.683 161.06 129.25C161.693 128.817 162.327 128.217 162.96 127.45C163.593 126.683 164.093 125.8 164.46 124.8C164.793 123.9 165.093 122.917 165.36 121.85C165.627 120.783 165.86 119.783 166.06 118.85C166.293 117.883 166.51 117.133 166.71 116.6C166.81 116.367 166.96 116.25 167.16 116.25C167.427 116.25 167.66 116.35 167.86 116.55C168.093 116.75 168.177 116.933 168.11 117.1C167.977 117.433 167.793 117.983 167.56 118.75C167.327 119.517 167.093 120.367 166.86 121.3C166.627 122.233 166.41 123.15 166.21 124.05C166.01 124.917 165.843 125.65 165.71 126.25C165.577 126.85 165.51 127.183 165.51 127.25C165.51 127.75 165.56 128.2 165.66 128.6C165.76 129 165.927 129.433 166.16 129.9C166.327 130.167 166.527 130.467 166.76 130.8C167.027 131.1 167.293 131.25 167.56 131.25C168.193 131.25 168.793 131.033 169.36 130.6C169.96 130.133 170.41 129.683 170.71 129.25C170.943 128.883 171.16 128.7 171.36 128.7C171.56 128.7 171.66 128.883 171.66 129.25C171.66 129.517 171.593 129.717 171.46 129.85ZM184.666 128.5C184.399 129.1 183.816 129.817 182.916 130.65C182.049 131.483 181.016 132.217 179.816 132.85C178.649 133.45 177.466 133.75 176.266 133.75C174.532 133.75 173.366 133.25 172.766 132.25C172.166 131.217 171.866 129.833 171.866 128.1C171.866 126.933 171.966 125.5 172.166 123.8C172.366 122.1 172.666 120.267 173.066 118.3C173.466 116.333 173.966 114.35 174.566 112.35C175.166 110.45 175.816 108.6 176.516 106.8C177.216 105 178.266 103.433 179.666 102.1C179.899 101.733 180.199 101.55 180.566 101.55C180.866 101.55 181.132 101.683 181.366 101.95C181.599 102.183 181.699 102.467 181.666 102.8C181.666 102.8 181.649 103.217 181.616 104.05C181.616 104.883 181.566 105.9 181.466 107.1C181.366 108.267 181.216 109.383 181.016 110.45C180.716 112.25 180.166 114.15 179.366 116.15C178.599 118.15 177.782 119.967 176.916 121.6C176.216 122.967 175.649 123.95 175.216 124.55C174.816 125.15 174.499 125.583 174.266 125.85C174.066 126.117 173.916 126.467 173.816 126.9C173.782 127.133 173.749 127.4 173.716 127.7C173.716 127.967 173.716 128.25 173.716 128.55C173.716 129.15 173.749 129.733 173.816 130.3C173.916 130.833 174.032 131.183 174.166 131.35C174.532 131.717 174.932 131.983 175.366 132.15C175.799 132.317 176.232 132.4 176.666 132.4C177.032 132.4 177.366 132.35 177.666 132.25C178.799 131.917 179.949 131.367 181.116 130.6C182.316 129.833 183.166 129.083 183.666 128.35C183.899 128.017 184.082 127.8 184.216 127.7C184.382 127.567 184.516 127.5 184.616 127.5C184.782 127.5 184.866 127.617 184.866 127.85C184.866 127.917 184.849 128.017 184.816 128.15C184.782 128.25 184.732 128.367 184.666 128.5ZM180.116 104.9C179.782 104.833 179.249 105.567 178.516 107.1C177.816 108.633 177.082 110.717 176.316 113.35C176.082 114.15 175.816 115.167 175.516 116.4C175.249 117.633 174.982 118.917 174.716 120.25C174.449 121.55 174.249 122.733 174.116 123.8C175.182 121.633 176.149 119.683 177.016 117.95C177.882 116.217 178.549 114.6 179.016 113.1C179.449 111.9 179.766 110.617 179.966 109.25C180.199 107.883 180.316 106.8 180.316 106C180.316 105.367 180.249 105 180.116 104.9ZM193.671 112.8C193.438 112.8 193.205 112.767 192.971 112.7C192.771 112.6 192.571 112.483 192.371 112.35C191.938 112.15 191.721 111.717 191.721 111.05C191.721 110.75 191.788 110.417 191.921 110.05C192.088 109.683 192.338 109.333 192.671 109C192.905 108.767 193.188 108.65 193.521 108.65C193.821 108.65 194.105 108.767 194.371 109C194.505 109.133 194.588 109.35 194.621 109.65C194.688 109.917 194.721 110.217 194.721 110.55C194.721 110.95 194.688 111.35 194.621 111.75C194.555 112.117 194.438 112.383 194.271 112.55C194.038 112.717 193.838 112.8 193.671 112.8ZM188.571 132.45C187.338 132.45 186.488 132.167 186.021 131.6C185.555 131.033 185.321 130.35 185.321 129.55C185.321 129.183 185.355 128.817 185.421 128.45C185.488 128.083 185.571 127.717 185.671 127.35C185.338 127.95 184.821 128.65 184.121 129.45C183.421 130.217 182.771 130.833 182.171 131.3C182.038 131.4 181.905 131.45 181.771 131.45C181.571 131.45 181.471 131.333 181.471 131.1C181.471 130.833 181.571 130.6 181.771 130.4C183.171 128.933 184.238 127.75 184.971 126.85C185.705 125.917 186.271 125.133 186.671 124.5C187.071 123.867 187.455 123.283 187.821 122.75C188.121 121.783 188.388 120.85 188.621 119.95C188.888 119.017 189.288 118.067 189.821 117.1C189.988 116.8 190.321 116.65 190.821 116.65C191.155 116.65 191.455 116.733 191.721 116.9C191.988 117.067 192.121 117.35 192.121 117.75C192.121 117.95 192.071 118.183 191.971 118.45C191.605 119.483 191.205 120.367 190.771 121.1C190.371 121.8 189.838 122.7 189.171 123.8C188.471 124.933 187.905 126.033 187.471 127.1C187.071 128.167 186.871 129.067 186.871 129.8C186.871 130.267 186.971 130.65 187.171 130.95C187.405 131.25 187.738 131.4 188.171 131.4C189.105 131.433 189.821 131.283 190.321 130.95C190.821 130.583 191.238 130.233 191.571 129.9C192.005 129.433 192.371 129 192.671 128.6C193.005 128.2 193.305 127.85 193.571 127.55C193.771 127.35 193.871 127.383 193.871 127.65C193.871 127.817 193.821 128.033 193.721 128.3C193.655 128.567 193.571 128.767 193.471 128.9C193.138 129.367 192.738 129.883 192.271 130.45C191.838 131.017 191.321 131.5 190.721 131.9C190.121 132.267 189.405 132.45 188.571 132.45ZM202.05 123.9C202.05 124.667 201.983 125.233 201.85 125.6C201.75 125.967 201.6 126.267 201.4 126.5C201.233 126.733 201.05 127 200.85 127.3C200.65 127.6 200.483 128.05 200.35 128.65C200.25 129.217 200.2 130.05 200.2 131.15C200.2 131.583 200.367 131.933 200.7 132.2C201.033 132.467 201.417 132.6 201.85 132.6C202.05 132.6 202.15 132.667 202.15 132.8C202.15 132.967 202.017 133.167 201.75 133.4C201.517 133.667 201.3 133.8 201.1 133.8C200.367 133.8 199.833 133.517 199.5 132.95C199.167 132.35 199 131.717 199 131.05C199 129.95 199.033 129.083 199.1 128.45C199.167 127.783 199.233 127.167 199.3 126.6C199.367 126 199.383 125.267 199.35 124.4C199.317 123.8 199.233 123.333 199.1 123C198.967 122.633 198.617 122.45 198.05 122.45C197.75 122.45 197.533 122.5 197.4 122.6C197.3 122.7 197.167 122.867 197 123.1C196.633 123.633 196.317 124.383 196.05 125.35C195.817 126.283 195.617 127.283 195.45 128.35C195.317 129.383 195.183 130.317 195.05 131.15C194.95 131.95 194.85 132.483 194.75 132.75C194.65 132.983 194.517 133.15 194.35 133.25C194.217 133.35 194.067 133.4 193.9 133.4C193.767 133.4 193.633 133.367 193.5 133.3C193.4 133.267 193.317 133.233 193.25 133.2C193.083 133.1 193 132.933 193 132.7C193 132.467 193.05 132.2 193.15 131.9C193.283 131.567 193.383 131.267 193.45 131C193.517 130.733 193.617 130.267 193.75 129.6C193.917 128.9 194.083 128.183 194.25 127.45C194.417 126.683 194.55 126.033 194.65 125.5C194.783 124.933 194.85 124.65 194.85 124.65C194.683 124.65 194.517 124.667 194.35 124.7C194.183 124.7 194.017 124.7 193.85 124.7C193.35 124.7 193.1 124.5 193.1 124.1C193.1 123.833 193.2 123.433 193.4 122.9C193.6 122.367 193.967 121.667 194.5 120.8C194.667 120.533 195 120.2 195.5 119.8C196 119.4 196.417 119.233 196.75 119.3C196.883 119.233 197 119.2 197.1 119.2C197.2 119.2 197.283 119.2 197.35 119.2C197.717 119.2 197.917 119.333 197.95 119.6C198.017 119.833 198.033 120.083 198 120.35C197.967 120.583 197.983 120.683 198.05 120.65C198.517 120.45 198.983 120.35 199.45 120.35C200.15 120.35 200.75 120.633 201.25 121.2C201.783 121.733 202.05 122.633 202.05 123.9ZM222.234 129.1C222.334 129 222.467 128.95 222.634 128.95C222.867 128.95 222.984 129.067 222.984 129.3C222.984 129.433 222.9 129.633 222.734 129.9C222.6 130.167 222.3 130.483 221.834 130.85C221.367 131.25 220.884 131.617 220.384 131.95C219.917 132.283 219.267 132.45 218.434 132.45C217.534 132.45 216.817 132.283 216.284 131.95C215.784 131.617 215.417 131.25 215.184 130.85C214.984 130.417 214.85 130.083 214.784 129.85C214.384 130.15 213.967 130.55 213.534 131.05C213.134 131.517 212.55 131.95 211.784 132.35C211.017 132.717 209.917 132.9 208.484 132.9C207.684 132.9 206.95 132.717 206.284 132.35C205.65 131.95 205.334 131.1 205.334 129.8C205.334 129.433 205.35 129.05 205.384 128.65C205.45 128.217 205.55 127.75 205.684 127.25C206.084 125.683 206.55 124.45 207.084 123.55C207.617 122.65 208.417 121.983 209.484 121.55C210.15 121.283 210.967 121.033 211.934 120.8C212.9 120.567 213.75 120.367 214.484 120.2C214.717 120.133 214.917 119.917 215.084 119.55C215.284 119.15 215.5 118.783 215.734 118.45C215.867 118.283 216.017 118.15 216.184 118.05C216.35 117.917 216.534 117.85 216.734 117.85C216.9 117.85 217.117 117.933 217.384 118.1C217.617 118.267 217.767 118.583 217.834 119.05C217.934 119.517 217.984 119.95 217.984 120.35C217.95 120.55 217.867 120.8 217.734 121.1C217.634 121.367 217.55 121.667 217.484 122C217.417 122.433 217.25 123.05 216.984 123.85C216.717 124.65 216.584 125.317 216.584 125.85C216.584 126.317 216.55 126.9 216.484 127.6C216.417 128.267 216.417 128.733 216.484 129C216.85 129.8 217.367 130.333 218.034 130.6C218.7 130.833 219.284 130.9 219.784 130.8C220.15 130.733 220.567 130.517 221.034 130.15C221.5 129.783 221.9 129.433 222.234 129.1ZM214.134 123.4C214.067 123.133 213.9 122.85 213.634 122.55C213.4 122.25 213.1 122.1 212.734 122.1C212.667 122.1 212.534 122.133 212.334 122.2C211.767 122.4 211.167 122.783 210.534 123.35C209.9 123.883 209.35 124.583 208.884 125.45C208.417 126.317 208.15 127.333 208.084 128.5C208.084 128.833 208.184 129.267 208.384 129.8C208.617 130.333 208.917 130.783 209.284 131.15C209.65 131.517 210.017 131.617 210.384 131.45C211.184 131.117 211.85 130.65 212.384 130.05C212.95 129.417 213.417 128.65 213.784 127.75C213.95 127.317 214.067 126.867 214.134 126.4C214.234 125.9 214.284 125.433 214.284 125C214.284 124.6 214.267 124.267 214.234 124C214.2 123.7 214.167 123.5 214.134 123.4Z" fill="black"/>
</svg>
