<svg width="25" height="25" viewBox="0 0 25 25" fill="none" xmlns="http://www.w3.org/2000/svg">
<path d="M25 23.4831L17.6237 16.1003C18.9779 14.4076 19.7917 12.2526 19.7917 9.90885C19.7917 4.43359 15.3581 0 9.89583 0C4.42708 0 0 4.4401 0 9.90885C0 15.3776 4.43359 19.8177 9.89583 19.8177C12.2526 19.8177 14.4141 18.9909 16.1133 17.6172L23.4831 25L25 23.4831ZM3.63281 16.1849C1.95963 14.5117 1.04167 12.2852 1.04167 9.91536C1.04167 7.54557 1.96615 5.31901 3.63281 3.64583C5.29948 1.97266 7.53255 1.04167 9.89583 1.04167C12.2591 1.04167 14.4857 1.96615 16.1589 3.63932C17.832 5.3125 18.75 7.53906 18.75 9.90885C18.75 12.2786 17.8255 14.5052 16.1589 16.1784C14.4857 17.8516 12.2591 18.776 9.89583 18.776C7.53255 18.7826 5.30599 17.8581 3.63281 16.1849Z" fill="black"/>
</svg>
