<svg width="287" height="18" viewBox="0 0 287 18" fill="none" xmlns="http://www.w3.org/2000/svg">
<path d="M21.4856 3.2C22.0556 3.2 22.5506 3.26 22.9706 3.38C23.4006 3.5 23.7556 3.675 24.0356 3.905C24.3156 4.125 24.5206 4.39 24.6506 4.7C24.7906 5.01 24.8606 5.355 24.8606 5.735V6.065C24.8606 6.425 24.8156 6.75 24.7256 7.04C24.6456 7.33 24.5006 7.605 24.2906 7.865C24.0806 8.115 23.7956 8.38 23.4356 8.66C23.0756 8.94 22.6156 9.255 22.0556 9.605C21.4756 9.975 21.0056 10.3 20.6456 10.58C20.2956 10.86 20.0256 11.13 19.8356 11.39C19.6456 11.64 19.5156 11.91 19.4456 12.2C19.3856 12.49 19.3556 12.83 19.3556 13.22L18.9356 12.92H19.9706L19.1456 13.055C19.3756 12.975 19.5956 12.91 19.8056 12.86C20.0156 12.81 20.2556 12.775 20.5256 12.755C20.7956 12.725 21.1306 12.71 21.5306 12.71H24.9206C24.9706 12.71 25.0106 12.725 25.0406 12.755C25.0706 12.785 25.0856 12.825 25.0856 12.875C25.0856 12.905 25.0856 12.96 25.0856 13.04C25.0856 13.11 25.0856 13.195 25.0856 13.295C25.0856 13.385 25.0856 13.48 25.0856 13.58C25.0856 13.68 25.0856 13.765 25.0856 13.835C25.0856 13.905 25.0856 13.96 25.0856 14C25.0656 14 24.9256 14 24.6656 14C24.4056 14 24.0706 14 23.6606 14C23.2606 14 22.8206 14 22.3406 14C21.8606 14 21.3806 14 20.9006 14C20.4206 14 19.9806 14 19.5806 14C19.1806 14 18.8506 14 18.5906 14C18.3306 14 18.1906 14 18.1706 14C18.1406 14 18.1106 13.995 18.0806 13.985C18.0606 13.965 18.0406 13.945 18.0206 13.925C18.0106 13.905 18.0056 13.875 18.0056 13.835V12.98C18.0056 12.35 18.1106 11.8 18.3206 11.33C18.5406 10.85 18.8856 10.395 19.3556 9.965C19.8356 9.525 20.4656 9.06 21.2456 8.57C21.7456 8.25 22.1406 7.98 22.4306 7.76C22.7306 7.53 22.9556 7.325 23.1056 7.145C23.2656 6.965 23.3656 6.79 23.4056 6.62C23.4556 6.44 23.4806 6.25 23.4806 6.05V5.915C23.4806 5.715 23.4506 5.54 23.3906 5.39C23.3406 5.23 23.2556 5.09 23.1356 4.97C23.0056 4.82 22.8006 4.71 22.5206 4.64C22.2506 4.56 21.8706 4.52 21.3806 4.52C20.8206 4.52 20.3106 4.61 19.8506 4.79C19.3906 4.96 18.9456 5.23 18.5156 5.6H18.2906C18.2906 5.56 18.2906 5.5 18.2906 5.42C18.2906 5.34 18.2906 5.25 18.2906 5.15C18.2906 5.04 18.2906 4.94 18.2906 4.85C18.2906 4.75 18.2906 4.665 18.2906 4.595C18.2906 4.515 18.2906 4.46 18.2906 4.43C18.2906 4.37 18.2956 4.325 18.3056 4.295C18.3256 4.265 18.3506 4.23 18.3806 4.19C18.6606 3.93 19.0656 3.7 19.5956 3.5C20.1256 3.3 20.7556 3.2 21.4856 3.2ZM30.5398 3.2C31.2398 3.2 31.8448 3.37 32.3548 3.71C32.8748 4.05 33.2748 4.53 33.5548 5.15C33.8348 5.77 33.9748 6.495 33.9748 7.325V10.175C33.9748 11.035 33.8298 11.775 33.5398 12.395C33.2498 13.005 32.8448 13.475 32.3248 13.805C31.8048 14.135 31.1948 14.3 30.4948 14.3C29.9648 14.3 29.4848 14.2 29.0548 14C28.6348 13.81 28.2748 13.535 27.9748 13.175C27.6748 12.805 27.4448 12.37 27.2848 11.87C27.1248 11.36 27.0448 10.795 27.0448 10.175V7.325C27.0448 6.465 27.1898 5.73 27.4798 5.12C27.7698 4.5 28.1748 4.025 28.6948 3.695C29.2148 3.365 29.8298 3.2 30.5398 3.2ZM30.5098 4.49C30.0798 4.49 29.7048 4.59 29.3848 4.79C29.0748 4.98 28.8348 5.285 28.6648 5.705C28.4948 6.115 28.4098 6.655 28.4098 7.325V10.175C28.4098 10.445 28.4248 10.7 28.4548 10.94C28.4848 11.17 28.5248 11.38 28.5748 11.57C28.6348 11.75 28.7048 11.91 28.7848 12.05C28.9548 12.36 29.1798 12.6 29.4598 12.77C29.7498 12.93 30.0898 13.01 30.4798 13.01C30.9098 13.01 31.2848 12.91 31.6048 12.71C31.9248 12.5 32.1698 12.19 32.3398 11.78C32.5198 11.36 32.6098 10.825 32.6098 10.175V7.295C32.6098 6.935 32.5798 6.61 32.5198 6.32C32.4698 6.03 32.3948 5.78 32.2948 5.57C32.1948 5.35 32.0748 5.165 31.9348 5.015C31.7648 4.835 31.5548 4.705 31.3048 4.625C31.0648 4.535 30.7998 4.49 30.5098 4.49ZM39.4739 3.2C40.0439 3.2 40.5389 3.26 40.9589 3.38C41.3889 3.5 41.7439 3.675 42.0239 3.905C42.3039 4.125 42.5089 4.39 42.6389 4.7C42.7789 5.01 42.8489 5.355 42.8489 5.735V6.065C42.8489 6.425 42.8039 6.75 42.7139 7.04C42.6339 7.33 42.4889 7.605 42.2789 7.865C42.0689 8.115 41.7839 8.38 41.4239 8.66C41.0639 8.94 40.6039 9.255 40.0439 9.605C39.4639 9.975 38.9939 10.3 38.6339 10.58C38.2839 10.86 38.0139 11.13 37.8239 11.39C37.6339 11.64 37.5039 11.91 37.4339 12.2C37.3739 12.49 37.3439 12.83 37.3439 13.22L36.9239 12.92H37.9589L37.1339 13.055C37.3639 12.975 37.5839 12.91 37.7939 12.86C38.0039 12.81 38.2439 12.775 38.5139 12.755C38.7839 12.725 39.1189 12.71 39.5189 12.71H42.9089C42.9589 12.71 42.9989 12.725 43.0289 12.755C43.0589 12.785 43.0739 12.825 43.0739 12.875C43.0739 12.905 43.0739 12.96 43.0739 13.04C43.0739 13.11 43.0739 13.195 43.0739 13.295C43.0739 13.385 43.0739 13.48 43.0739 13.58C43.0739 13.68 43.0739 13.765 43.0739 13.835C43.0739 13.905 43.0739 13.96 43.0739 14C43.0539 14 42.9139 14 42.6539 14C42.3939 14 42.0589 14 41.6489 14C41.2489 14 40.8089 14 40.3289 14C39.8489 14 39.3689 14 38.8889 14C38.4089 14 37.9689 14 37.5689 14C37.1689 14 36.8389 14 36.5789 14C36.3189 14 36.1789 14 36.1589 14C36.1289 14 36.0989 13.995 36.0689 13.985C36.0489 13.965 36.0289 13.945 36.0089 13.925C35.9989 13.905 35.9939 13.875 35.9939 13.835V12.98C35.9939 12.35 36.0989 11.8 36.3089 11.33C36.5289 10.85 36.8739 10.395 37.3439 9.965C37.8239 9.525 38.4539 9.06 39.2339 8.57C39.7339 8.25 40.1289 7.98 40.4189 7.76C40.7189 7.53 40.9439 7.325 41.0939 7.145C41.2539 6.965 41.3539 6.79 41.3939 6.62C41.4439 6.44 41.4689 6.25 41.4689 6.05V5.915C41.4689 5.715 41.4389 5.54 41.3789 5.39C41.3289 5.23 41.2439 5.09 41.1239 4.97C40.9939 4.82 40.7889 4.71 40.5089 4.64C40.2389 4.56 39.8589 4.52 39.3689 4.52C38.8089 4.52 38.2989 4.61 37.8389 4.79C37.3789 4.96 36.9339 5.23 36.5039 5.6H36.2789C36.2789 5.56 36.2789 5.5 36.2789 5.42C36.2789 5.34 36.2789 5.25 36.2789 5.15C36.2789 5.04 36.2789 4.94 36.2789 4.85C36.2789 4.75 36.2789 4.665 36.2789 4.595C36.2789 4.515 36.2789 4.46 36.2789 4.43C36.2789 4.37 36.2839 4.325 36.2939 4.295C36.3139 4.265 36.3389 4.23 36.3689 4.19C36.6489 3.93 37.0539 3.7 37.5839 3.5C38.1139 3.3 38.7439 3.2 39.4739 3.2ZM49.083 3.5C49.133 3.5 49.198 3.5 49.278 3.5C49.368 3.5 49.463 3.5 49.563 3.5C49.673 3.5 49.778 3.5 49.878 3.5C49.978 3.5 50.073 3.5 50.163 3.5C50.253 3.5 50.313 3.5 50.343 3.5V3.725C50.063 4.175 49.778 4.63 49.488 5.09C49.208 5.54 48.923 6 48.633 6.47C48.343 6.93 48.048 7.4 47.748 7.88C47.448 8.35 47.143 8.835 46.833 9.335C46.523 9.825 46.203 10.335 45.873 10.865L46.158 10.01V10.985L45.738 10.745C46.088 10.655 46.433 10.59 46.773 10.55C47.113 10.5 47.468 10.47 47.838 10.46C48.208 10.44 48.618 10.43 49.068 10.43H52.233C52.273 10.43 52.303 10.44 52.323 10.46C52.343 10.47 52.358 10.485 52.368 10.505C52.388 10.525 52.398 10.555 52.398 10.595C52.398 10.625 52.398 10.68 52.398 10.76C52.398 10.83 52.398 10.91 52.398 11C52.398 11.08 52.398 11.17 52.398 11.27C52.398 11.36 52.398 11.44 52.398 11.51C52.398 11.58 52.398 11.635 52.398 11.675H44.898C44.868 11.675 44.838 11.67 44.808 11.66C44.788 11.64 44.768 11.62 44.748 11.6C44.738 11.57 44.733 11.54 44.733 11.51V10.43C44.733 10.43 44.783 10.345 44.883 10.175C44.983 10.005 45.118 9.775 45.288 9.485C45.468 9.185 45.673 8.845 45.903 8.465C46.133 8.085 46.373 7.685 46.623 7.265C46.873 6.835 47.128 6.405 47.388 5.975C47.648 5.545 47.898 5.13 48.138 4.73C48.378 4.32 48.598 3.955 48.798 3.635C48.828 3.595 48.858 3.565 48.888 3.545C48.918 3.525 48.948 3.515 48.978 3.515C49.018 3.505 49.053 3.5 49.083 3.5ZM50.058 8.03C50.108 8.03 50.178 8.03 50.268 8.03C50.368 8.03 50.468 8.03 50.568 8.03C50.668 8.03 50.763 8.03 50.853 8.03C50.953 8.03 51.023 8.03 51.063 8.03C51.103 8.03 51.133 8.04 51.153 8.06C51.173 8.07 51.188 8.085 51.198 8.105C51.218 8.125 51.228 8.155 51.228 8.195V12.515C51.228 12.605 51.228 12.725 51.228 12.875C51.228 13.015 51.228 13.165 51.228 13.325C51.228 13.475 51.228 13.615 51.228 13.745C51.228 13.865 51.228 13.95 51.228 14C51.198 14 51.143 14 51.063 14C50.983 14 50.893 14 50.793 14C50.693 14 50.588 14 50.478 14C50.378 14 50.288 14 50.208 14C50.128 14 50.068 14 50.028 14C49.978 14 49.938 13.985 49.908 13.955C49.878 13.925 49.863 13.885 49.863 13.835C49.863 13.715 49.863 13.545 49.863 13.325C49.863 13.105 49.863 12.865 49.863 12.605C49.863 12.345 49.863 12.085 49.863 11.825C49.863 11.565 49.863 11.33 49.863 11.12C49.863 10.9 49.863 10.725 49.863 10.595C49.883 10.405 49.903 10.19 49.923 9.95C49.943 9.71 49.963 9.47 49.983 9.23C50.003 8.99 50.018 8.765 50.028 8.555C50.048 8.345 50.058 8.17 50.058 8.03ZM62.4843 14.3C61.8243 14.3 61.2443 14.21 60.7443 14.03C60.2443 13.85 59.8243 13.59 59.4843 13.25C59.1443 12.9 58.8893 12.48 58.7193 11.99C58.5493 11.49 58.4643 10.925 58.4643 10.295V7.145C58.4643 6.535 58.5493 5.99 58.7193 5.51C58.8893 5.03 59.1443 4.62 59.4843 4.28C59.8243 3.93 60.2393 3.665 60.7293 3.485C61.2193 3.295 61.7743 3.2 62.3943 3.2C62.8943 3.2 63.3393 3.245 63.7293 3.335C64.1193 3.425 64.4493 3.55 64.7193 3.71C64.9993 3.86 65.2243 4.02 65.3943 4.19C65.4143 4.2 65.4293 4.22 65.4393 4.25C65.4493 4.27 65.4543 4.295 65.4543 4.325C65.4643 4.345 65.4693 4.365 65.4693 4.385C65.4693 4.745 65.4693 5.135 65.4693 5.555C65.4693 5.975 65.4693 6.375 65.4693 6.755C65.2793 6.755 65.0893 6.755 64.8993 6.755C64.7093 6.755 64.5193 6.755 64.3293 6.755C64.2793 6.755 64.2393 6.74 64.2093 6.71C64.1793 6.68 64.1643 6.64 64.1643 6.59C64.1643 6.38 64.1643 6.165 64.1643 5.945C64.1643 5.725 64.1643 5.495 64.1643 5.255C64.1643 5.015 64.1643 4.755 64.1643 4.475L64.5393 5.18C64.2293 4.93 63.9043 4.755 63.5643 4.655C63.2243 4.555 62.8293 4.505 62.3793 4.505C61.8693 4.505 61.4293 4.605 61.0593 4.805C60.6893 5.005 60.4043 5.305 60.2043 5.705C60.0043 6.095 59.9043 6.595 59.9043 7.205V10.175C59.9043 10.655 59.9593 11.08 60.0693 11.45C60.1893 11.82 60.3743 12.135 60.6243 12.395C60.8443 12.615 61.1143 12.775 61.4343 12.875C61.7543 12.965 62.1043 13.01 62.4843 13.01C63.0543 13.01 63.5493 12.935 63.9693 12.785C64.3993 12.625 64.8343 12.38 65.2743 12.05H65.5143C65.5143 12.15 65.5143 12.25 65.5143 12.35C65.5143 12.44 65.5143 12.53 65.5143 12.62C65.5143 12.71 65.5143 12.8 65.5143 12.89C65.5143 12.98 65.5143 13.07 65.5143 13.16C65.5143 13.2 65.5043 13.235 65.4843 13.265C65.4743 13.295 65.4593 13.32 65.4393 13.34C65.2493 13.53 65.0093 13.695 64.7193 13.835C64.4293 13.975 64.0943 14.085 63.7143 14.165C63.3343 14.255 62.9243 14.3 62.4843 14.3ZM69.0784 6.02C69.1184 6.02 69.1484 6.03 69.1684 6.05C69.1884 6.06 69.2034 6.075 69.2134 6.095C69.2334 6.115 69.2434 6.145 69.2434 6.185C69.2434 6.635 69.2434 7.095 69.2434 7.565C69.2434 8.025 69.2434 8.49 69.2434 8.96C69.2434 9.42 69.2434 9.875 69.2434 10.325C69.2434 10.775 69.2434 11.215 69.2434 11.645C69.2434 12.025 69.3384 12.315 69.5284 12.515C69.7284 12.705 69.9934 12.8 70.3234 12.8C70.5634 12.8 70.7934 12.77 71.0134 12.71C71.2334 12.65 71.4484 12.56 71.6584 12.44C71.8784 12.31 72.0934 12.15 72.3034 11.96C72.5234 11.76 72.7434 11.525 72.9634 11.255V12.665H72.5284C72.2984 12.965 72.0584 13.23 71.8084 13.46C71.5584 13.69 71.2834 13.865 70.9834 13.985C70.6834 14.105 70.3484 14.165 69.9784 14.165C69.6484 14.165 69.3534 14.11 69.0934 14C68.8334 13.89 68.6134 13.735 68.4334 13.535C68.2534 13.335 68.1134 13.105 68.0134 12.845C67.9234 12.575 67.8784 12.28 67.8784 11.96C67.8784 11.51 67.8784 11.065 67.8784 10.625C67.8784 10.175 67.8784 9.725 67.8784 9.275C67.8784 8.815 67.8784 8.365 67.8784 7.925C67.8784 7.605 67.8784 7.29 67.8784 6.98C67.8784 6.66 67.8784 6.34 67.8784 6.02C68.0784 6.02 68.2784 6.02 68.4784 6.02C68.6784 6.02 68.8784 6.02 69.0784 6.02ZM73.9534 6.02C73.9934 6.02 74.0234 6.03 74.0434 6.05C74.0634 6.06 74.0784 6.075 74.0884 6.095C74.1084 6.115 74.1184 6.145 74.1184 6.185C74.1184 6.885 74.1184 7.59 74.1184 8.3C74.1184 9 74.1184 9.705 74.1184 10.415C74.1184 11.115 74.1184 11.815 74.1184 12.515C74.1184 12.725 74.1184 12.925 74.1184 13.115C74.1184 13.295 74.1184 13.465 74.1184 13.625C74.1184 13.775 74.1184 13.9 74.1184 14C73.9784 14 73.8384 14 73.6984 14C73.5684 14 73.4334 14 73.2934 14C73.1634 14 73.0334 14 72.9034 14C72.8734 14 72.8434 13.995 72.8134 13.985C72.7934 13.965 72.7734 13.945 72.7534 13.925C72.7434 13.905 72.7384 13.875 72.7384 13.835C72.7384 12.965 72.7384 12.095 72.7384 11.225C72.7384 10.355 72.7384 9.485 72.7384 8.615C72.7384 7.745 72.7384 6.88 72.7384 6.02C72.8884 6.02 73.0284 6.02 73.1584 6.02C73.2884 6.02 73.4184 6.02 73.5484 6.02C73.6884 6.02 73.8234 6.02 73.9534 6.02ZM77.0975 4.595C77.0975 4.265 77.0975 3.95 77.0975 3.65C77.0975 3.34 77.0975 3.04 77.0975 2.75C77.2475 2.75 77.3625 2.75 77.4425 2.75C77.5225 2.75 77.5825 2.75 77.6225 2.75C77.6725 2.75 77.7175 2.75 77.7575 2.75C77.8075 2.75 77.8675 2.75 77.9375 2.75C78.0175 2.75 78.1375 2.75 78.2975 2.75C78.3375 2.75 78.3675 2.76 78.3875 2.78C78.4075 2.79 78.4225 2.81 78.4325 2.84C78.4525 2.86 78.4625 2.885 78.4625 2.915C78.4625 3.505 78.4625 4.095 78.4625 4.685C78.4625 5.275 78.4625 5.865 78.4625 6.455C78.4625 7.045 78.4625 7.635 78.4625 8.225C78.4625 8.815 78.4625 9.405 78.4625 9.995C78.4625 10.585 78.4625 11.175 78.4625 11.765C78.4625 11.945 78.4775 12.095 78.5075 12.215C78.5375 12.325 78.5875 12.42 78.6575 12.5C78.7375 12.57 78.8325 12.625 78.9425 12.665C79.0625 12.695 79.2125 12.71 79.3925 12.71C79.4225 12.71 79.4575 12.71 79.4975 12.71C79.5475 12.71 79.5975 12.71 79.6475 12.71C79.6975 12.71 79.7425 12.71 79.7825 12.71C79.8225 12.71 79.8575 12.71 79.8875 12.71H80.0525C80.0525 12.88 80.0525 13.065 80.0525 13.265C80.0525 13.465 80.0525 13.655 80.0525 13.835C80.0525 13.895 80.0375 13.94 80.0075 13.97C79.9775 13.99 79.9375 14 79.8875 14C79.8475 14 79.8125 14 79.7825 14C79.7525 14 79.7075 14 79.6475 14C79.5975 14 79.5275 14 79.4375 14C79.3575 14 79.2475 14 79.1075 14C78.7675 14 78.4675 13.96 78.2075 13.88C77.9575 13.79 77.7475 13.66 77.5775 13.49C77.4175 13.31 77.2975 13.085 77.2175 12.815C77.1375 12.535 77.0975 12.21 77.0975 11.84C77.0975 11.24 77.0975 10.64 77.0975 10.04C77.0975 9.43 77.0975 8.825 77.0975 8.225C77.0975 7.615 77.0975 7.01 77.0975 6.41C77.0975 5.81 77.0975 5.205 77.0975 4.595ZM82.4726 13.835C82.4726 13.465 82.4726 13.06 82.4726 12.62C82.4726 12.18 82.4726 11.725 82.4726 11.255C82.4726 10.785 82.4726 10.315 82.4726 9.845C82.4726 9.375 82.4726 8.925 82.4726 8.495C82.4726 8.055 82.4726 7.645 82.4726 7.265H82.2626C82.1826 7.265 82.0926 7.265 81.9926 7.265C81.9026 7.265 81.8076 7.265 81.7076 7.265C81.6076 7.265 81.5076 7.265 81.4076 7.265C81.3176 7.265 81.2226 7.265 81.1226 7.265C81.0826 7.265 81.0426 7.25 81.0026 7.22C80.9726 7.19 80.9576 7.15 80.9576 7.1C80.9576 6.93 80.9576 6.755 80.9576 6.575C80.9576 6.385 80.9576 6.2 80.9576 6.02C81.1276 6.02 81.3026 6.02 81.4826 6.02C81.6726 6.02 81.8676 6.02 82.0676 6.02C82.2676 6.02 82.4626 6.02 82.6526 6.02C82.8426 6.02 83.0226 6.02 83.1926 6.02C83.3726 6.02 83.5376 6.02 83.6876 6.02C83.7176 6.02 83.7426 6.03 83.7626 6.05C83.7926 6.06 83.8126 6.08 83.8226 6.11C83.8426 6.13 83.8526 6.155 83.8526 6.185C83.8526 6.695 83.8526 7.225 83.8526 7.775C83.8526 8.315 83.8526 8.86 83.8526 9.41C83.8526 9.96 83.8526 10.505 83.8526 11.045C83.8526 11.585 83.8526 12.11 83.8526 12.62C83.8526 12.77 83.8526 12.925 83.8526 13.085C83.8526 13.235 83.8526 13.385 83.8526 13.535C83.8526 13.685 83.8526 13.84 83.8526 14C83.6326 14 83.4276 14 83.2376 14C83.0576 14 82.8576 14 82.6376 14C82.5976 14 82.5576 13.985 82.5176 13.955C82.4876 13.915 82.4726 13.875 82.4726 13.835ZM82.2026 2.39C82.3426 2.39 82.4826 2.39 82.6226 2.39C82.7726 2.39 82.9176 2.39 83.0576 2.39C83.2076 2.39 83.3526 2.39 83.4926 2.39C83.6426 2.39 83.7876 2.39 83.9276 2.39C83.9776 2.39 84.0176 2.405 84.0476 2.435C84.0776 2.465 84.0926 2.505 84.0926 2.555V4.025C83.9526 4.025 83.8076 4.025 83.6576 4.025C83.5176 4.025 83.3726 4.025 83.2226 4.025C83.0826 4.025 82.9376 4.025 82.7876 4.025C82.6476 4.025 82.5076 4.025 82.3676 4.025C82.3176 4.025 82.2776 4.01 82.2476 3.98C82.2176 3.95 82.2026 3.91 82.2026 3.86V2.39ZM93.2217 14C93.0017 14 92.7967 14 92.6067 14C92.4267 14 92.2267 14 92.0067 14C91.9767 14 91.9467 13.995 91.9167 13.985C91.8967 13.965 91.8767 13.945 91.8567 13.925C91.8467 13.905 91.8417 13.875 91.8417 13.835C91.8417 13.225 91.8417 12.62 91.8417 12.02C91.8417 11.41 91.8417 10.805 91.8417 10.205C91.8417 9.595 91.8417 8.985 91.8417 8.375C91.8417 7.965 91.7417 7.665 91.5417 7.475C91.3517 7.275 91.0767 7.175 90.7167 7.175C90.5067 7.175 90.2917 7.21 90.0717 7.28C89.8517 7.34 89.6317 7.435 89.4117 7.565C89.1917 7.695 88.9667 7.86 88.7367 8.06C88.5167 8.26 88.2917 8.5 88.0617 8.78V7.355H88.5117C88.7417 7.055 88.9867 6.795 89.2467 6.575C89.5167 6.345 89.8067 6.17 90.1167 6.05C90.4267 5.92 90.7567 5.855 91.1067 5.855C91.4467 5.855 91.7467 5.91 92.0067 6.02C92.2767 6.13 92.4967 6.285 92.6667 6.485C92.8467 6.685 92.9817 6.925 93.0717 7.205C93.1717 7.475 93.2217 7.775 93.2217 8.105C93.2217 8.585 93.2217 9.065 93.2217 9.545C93.2217 10.025 93.2217 10.51 93.2217 11C93.2217 11.48 93.2217 11.965 93.2217 12.455C93.2217 12.715 93.2217 12.975 93.2217 13.235C93.2217 13.485 93.2217 13.74 93.2217 14ZM88.2867 14C88.1467 14 88.0117 14 87.8817 14C87.7517 14 87.6217 14 87.4917 14C87.3617 14 87.2217 14 87.0717 14C87.0417 14 87.0167 14 86.9967 14C86.9767 13.99 86.9567 13.98 86.9367 13.97C86.9267 13.95 86.9167 13.93 86.9067 13.91C86.9067 13.89 86.9067 13.865 86.9067 13.835C86.9067 13.305 86.9067 12.775 86.9067 12.245C86.9067 11.715 86.9067 11.19 86.9067 10.67C86.9067 10.15 86.9067 9.625 86.9067 9.095C86.9067 8.565 86.9067 8.035 86.9067 7.505C86.9067 7.185 86.9067 6.9 86.9067 6.65C86.9067 6.39 86.9067 6.18 86.9067 6.02C87.0667 6.02 87.2117 6.02 87.3417 6.02C87.4817 6.02 87.6117 6.02 87.7317 6.02C87.8617 6.02 87.9917 6.02 88.1217 6.02C88.1617 6.02 88.1917 6.03 88.2117 6.05C88.2317 6.06 88.2467 6.075 88.2567 6.095C88.2767 6.115 88.2867 6.145 88.2867 6.185C88.2867 7.045 88.2867 7.91 88.2867 8.78C88.2867 9.65 88.2867 10.52 88.2867 11.39C88.2867 12.26 88.2867 13.13 88.2867 14ZM101.961 8.735C101.961 9.015 101.961 9.295 101.961 9.575C101.961 9.855 101.961 10.14 101.961 10.43C101.961 10.71 101.961 10.99 101.961 11.27C101.961 11.55 101.961 11.83 101.961 12.11C101.961 12.24 101.971 12.35 101.991 12.44C102.021 12.53 102.061 12.6 102.111 12.65C102.161 12.7 102.221 12.735 102.291 12.755C102.361 12.775 102.446 12.785 102.546 12.785C102.566 12.785 102.586 12.785 102.606 12.785C102.636 12.785 102.666 12.785 102.696 12.785H102.921C102.921 12.965 102.921 13.14 102.921 13.31C102.921 13.48 102.921 13.655 102.921 13.835C102.921 13.895 102.906 13.94 102.876 13.97C102.846 13.99 102.806 14 102.756 14C102.706 14 102.626 14 102.516 14C102.416 14 102.321 14 102.231 14C102.001 14 101.786 13.965 101.586 13.895C101.386 13.825 101.211 13.72 101.061 13.58C100.911 13.44 100.796 13.27 100.716 13.07C100.636 12.86 100.596 12.615 100.596 12.335C100.596 11.985 100.596 11.625 100.596 11.255C100.596 10.875 100.596 10.51 100.596 10.16C100.596 10 100.596 9.84 100.596 9.68C100.596 9.52 100.596 9.36 100.596 9.2C100.596 9.04 100.596 8.88 100.596 8.72C100.596 8.32 100.536 8.01 100.416 7.79C100.306 7.56 100.116 7.4 99.8459 7.31C99.5759 7.21 99.2109 7.16 98.7509 7.16C98.4609 7.16 98.1809 7.175 97.9109 7.205C97.6409 7.235 97.3759 7.285 97.1159 7.355C96.8659 7.415 96.6109 7.495 96.3509 7.595H96.1259C96.1259 7.415 96.1259 7.235 96.1259 7.055C96.1259 6.875 96.1259 6.695 96.1259 6.515C96.1259 6.485 96.1309 6.46 96.1409 6.44C96.1509 6.42 96.1609 6.405 96.1709 6.395C96.2209 6.335 96.3709 6.265 96.6209 6.185C96.8809 6.105 97.1959 6.035 97.5659 5.975C97.9459 5.905 98.3409 5.87 98.7509 5.87C99.3109 5.87 99.7909 5.925 100.191 6.035C100.601 6.135 100.936 6.3 101.196 6.53C101.456 6.76 101.646 7.055 101.766 7.415C101.896 7.775 101.961 8.215 101.961 8.735ZM96.9359 11.87C96.9359 12.21 97.0309 12.47 97.2209 12.65C97.4209 12.82 97.7159 12.905 98.1059 12.905C98.4459 12.905 98.7659 12.86 99.0659 12.77C99.3759 12.68 99.6759 12.53 99.9659 12.32C100.256 12.1 100.556 11.8 100.866 11.42V12.725H100.431C100.261 13.035 100.051 13.295 99.8009 13.505C99.5609 13.715 99.2759 13.875 98.9459 13.985C98.6159 14.095 98.2509 14.15 97.8509 14.15C97.3809 14.15 96.9759 14.065 96.6359 13.895C96.2959 13.715 96.0309 13.47 95.8409 13.16C95.6509 12.84 95.5559 12.46 95.5559 12.02V11.54C95.5559 11.21 95.6109 10.915 95.7209 10.655C95.8309 10.385 95.9859 10.16 96.1859 9.98C96.3959 9.8 96.6459 9.66 96.9359 9.56C97.2259 9.46 97.5509 9.41 97.9109 9.41C98.2609 9.41 98.5959 9.41 98.9159 9.41C99.2459 9.41 99.5709 9.41 99.8909 9.41C100.211 9.41 100.536 9.41 100.866 9.41C100.956 9.41 101.016 9.465 101.046 9.575C101.086 9.675 101.111 9.8 101.121 9.95C101.131 10.1 101.136 10.245 101.136 10.385C100.766 10.385 100.421 10.385 100.101 10.385C99.7909 10.385 99.4759 10.385 99.1559 10.385C98.8359 10.385 98.4859 10.385 98.1059 10.385C97.8959 10.385 97.7159 10.41 97.5659 10.46C97.4259 10.5 97.3059 10.575 97.2059 10.685C97.1159 10.765 97.0459 10.87 96.9959 11C96.9559 11.12 96.9359 11.26 96.9359 11.42V11.87ZM110.202 13.835C110.202 13.465 110.202 13.06 110.202 12.62C110.202 12.18 110.202 11.725 110.202 11.255C110.202 10.785 110.202 10.315 110.202 9.845C110.202 9.375 110.202 8.925 110.202 8.495C110.202 8.055 110.202 7.645 110.202 7.265H109.992C109.912 7.265 109.822 7.265 109.722 7.265C109.632 7.265 109.537 7.265 109.437 7.265C109.337 7.265 109.237 7.265 109.137 7.265C109.047 7.265 108.952 7.265 108.852 7.265C108.812 7.265 108.772 7.25 108.732 7.22C108.702 7.19 108.687 7.15 108.687 7.1C108.687 6.93 108.687 6.755 108.687 6.575C108.687 6.385 108.687 6.2 108.687 6.02C108.857 6.02 109.032 6.02 109.212 6.02C109.402 6.02 109.597 6.02 109.797 6.02C109.997 6.02 110.192 6.02 110.382 6.02C110.572 6.02 110.752 6.02 110.922 6.02C111.102 6.02 111.267 6.02 111.417 6.02C111.447 6.02 111.472 6.03 111.492 6.05C111.522 6.06 111.542 6.08 111.552 6.11C111.572 6.13 111.582 6.155 111.582 6.185C111.582 6.695 111.582 7.225 111.582 7.775C111.582 8.315 111.582 8.86 111.582 9.41C111.582 9.96 111.582 10.505 111.582 11.045C111.582 11.585 111.582 12.11 111.582 12.62C111.582 12.77 111.582 12.925 111.582 13.085C111.582 13.235 111.582 13.385 111.582 13.535C111.582 13.685 111.582 13.84 111.582 14C111.362 14 111.157 14 110.967 14C110.787 14 110.587 14 110.367 14C110.327 14 110.287 13.985 110.247 13.955C110.217 13.915 110.202 13.875 110.202 13.835ZM109.932 2.39C110.072 2.39 110.212 2.39 110.352 2.39C110.502 2.39 110.647 2.39 110.787 2.39C110.937 2.39 111.082 2.39 111.222 2.39C111.372 2.39 111.517 2.39 111.657 2.39C111.707 2.39 111.747 2.405 111.777 2.435C111.807 2.465 111.822 2.505 111.822 2.555V4.025C111.682 4.025 111.537 4.025 111.387 4.025C111.247 4.025 111.102 4.025 110.952 4.025C110.812 4.025 110.667 4.025 110.517 4.025C110.377 4.025 110.237 4.025 110.097 4.025C110.047 4.025 110.007 4.01 109.977 3.98C109.947 3.95 109.932 3.91 109.932 3.86V2.39ZM120.951 14C120.731 14 120.526 14 120.336 14C120.156 14 119.956 14 119.736 14C119.706 14 119.676 13.995 119.646 13.985C119.626 13.965 119.606 13.945 119.586 13.925C119.576 13.905 119.571 13.875 119.571 13.835C119.571 13.225 119.571 12.62 119.571 12.02C119.571 11.41 119.571 10.805 119.571 10.205C119.571 9.595 119.571 8.985 119.571 8.375C119.571 7.965 119.471 7.665 119.271 7.475C119.081 7.275 118.806 7.175 118.446 7.175C118.236 7.175 118.021 7.21 117.801 7.28C117.581 7.34 117.361 7.435 117.141 7.565C116.921 7.695 116.696 7.86 116.466 8.06C116.246 8.26 116.021 8.5 115.791 8.78V7.355H116.241C116.471 7.055 116.716 6.795 116.976 6.575C117.246 6.345 117.536 6.17 117.846 6.05C118.156 5.92 118.486 5.855 118.836 5.855C119.176 5.855 119.476 5.91 119.736 6.02C120.006 6.13 120.226 6.285 120.396 6.485C120.576 6.685 120.711 6.925 120.801 7.205C120.901 7.475 120.951 7.775 120.951 8.105C120.951 8.585 120.951 9.065 120.951 9.545C120.951 10.025 120.951 10.51 120.951 11C120.951 11.48 120.951 11.965 120.951 12.455C120.951 12.715 120.951 12.975 120.951 13.235C120.951 13.485 120.951 13.74 120.951 14ZM116.016 14C115.876 14 115.741 14 115.611 14C115.481 14 115.351 14 115.221 14C115.091 14 114.951 14 114.801 14C114.771 14 114.746 14 114.726 14C114.706 13.99 114.686 13.98 114.666 13.97C114.656 13.95 114.646 13.93 114.636 13.91C114.636 13.89 114.636 13.865 114.636 13.835C114.636 13.305 114.636 12.775 114.636 12.245C114.636 11.715 114.636 11.19 114.636 10.67C114.636 10.15 114.636 9.625 114.636 9.095C114.636 8.565 114.636 8.035 114.636 7.505C114.636 7.185 114.636 6.9 114.636 6.65C114.636 6.39 114.636 6.18 114.636 6.02C114.796 6.02 114.941 6.02 115.071 6.02C115.211 6.02 115.341 6.02 115.461 6.02C115.591 6.02 115.721 6.02 115.851 6.02C115.891 6.02 115.921 6.03 115.941 6.05C115.961 6.06 115.976 6.075 115.986 6.095C116.006 6.115 116.016 6.145 116.016 6.185C116.016 7.045 116.016 7.91 116.016 8.78C116.016 9.65 116.016 10.52 116.016 11.39C116.016 12.26 116.016 13.13 116.016 14ZM126.81 5.855C127.19 5.855 127.52 5.885 127.8 5.945C128.09 6.005 128.325 6.08 128.505 6.17C128.685 6.25 128.805 6.32 128.865 6.38C128.895 6.41 128.91 6.435 128.91 6.455C128.92 6.475 128.925 6.505 128.925 6.545C128.925 6.725 128.925 6.91 128.925 7.1C128.925 7.28 128.925 7.46 128.925 7.64H128.7C128.47 7.51 128.2 7.4 127.89 7.31C127.59 7.21 127.225 7.16 126.795 7.16C126.335 7.16 125.945 7.245 125.625 7.415C125.305 7.575 125.06 7.83 124.89 8.18C124.72 8.52 124.635 8.945 124.635 9.455V10.685C124.635 11.045 124.68 11.365 124.77 11.645C124.87 11.915 125.015 12.145 125.205 12.335C125.385 12.505 125.61 12.635 125.88 12.725C126.15 12.815 126.455 12.86 126.795 12.86C127.085 12.86 127.34 12.845 127.56 12.815C127.79 12.775 127.995 12.725 128.175 12.665C128.365 12.595 128.54 12.515 128.7 12.425H128.925C128.925 12.615 128.925 12.805 128.925 12.995C128.925 13.175 128.925 13.355 128.925 13.535C128.925 13.555 128.92 13.575 128.91 13.595C128.91 13.615 128.9 13.635 128.88 13.655C128.81 13.725 128.685 13.8 128.505 13.88C128.335 13.96 128.11 14.025 127.83 14.075C127.55 14.135 127.205 14.165 126.795 14.165C126.235 14.165 125.735 14.09 125.295 13.94C124.855 13.79 124.48 13.57 124.17 13.28C123.86 12.99 123.625 12.635 123.465 12.215C123.315 11.785 123.24 11.295 123.24 10.745V9.41C123.24 8.65 123.395 8.005 123.705 7.475C124.015 6.945 124.435 6.545 124.965 6.275C125.505 5.995 126.12 5.855 126.81 5.855ZM132.765 14.105C132.545 14.105 132.335 14.105 132.135 14.105C131.945 14.105 131.75 14.105 131.55 14.105C131.35 14.105 131.14 14.105 130.92 14.105C130.89 14.105 130.86 14.095 130.83 14.075C130.81 14.065 130.79 14.045 130.77 14.015C130.76 13.995 130.755 13.97 130.755 13.94V12.05C130.975 12.05 131.185 12.05 131.385 12.05C131.585 12.05 131.78 12.05 131.97 12.05C132.17 12.05 132.38 12.05 132.6 12.05C132.64 12.05 132.67 12.06 132.69 12.08C132.71 12.09 132.725 12.105 132.735 12.125C132.755 12.145 132.765 12.175 132.765 12.215V14.105ZM141.096 9.83H144.906C145.026 9.83 145.141 9.83 145.251 9.83C145.371 9.83 145.486 9.83 145.596 9.83L146.016 9.68L146.166 10.385L146.316 11.045H141.246C141.216 11.045 141.186 11.04 141.156 11.03C141.136 11.01 141.116 10.99 141.096 10.97C141.086 10.94 141.081 10.91 141.081 10.88L141.096 9.83ZM140.796 14C140.596 14 140.391 14 140.181 14C139.981 14 139.781 14 139.581 14C139.551 14 139.521 13.995 139.491 13.985C139.471 13.965 139.456 13.94 139.446 13.91C139.446 13.88 139.451 13.84 139.461 13.79C139.581 13.41 139.711 12.995 139.851 12.545C139.991 12.085 140.136 11.595 140.286 11.075C140.436 10.555 140.591 10.025 140.751 9.485C140.921 8.935 141.086 8.39 141.246 7.85C141.406 7.3 141.561 6.76 141.711 6.23C141.871 5.7 142.021 5.2 142.161 4.73C142.311 4.26 142.446 3.82 142.566 3.41C142.956 3.41 143.361 3.41 143.781 3.41C144.211 3.41 144.581 3.41 144.891 3.41C144.931 3.41 144.961 3.42 144.981 3.44C145.011 3.45 145.031 3.47 145.041 3.5C145.051 3.52 145.061 3.545 145.071 3.575C145.271 4.265 145.476 4.97 145.686 5.69C145.906 6.4 146.121 7.13 146.331 7.88C146.551 8.62 146.771 9.38 146.991 10.16C147.221 10.93 147.451 11.715 147.681 12.515C147.741 12.765 147.801 13.015 147.861 13.265C147.931 13.505 147.996 13.75 148.056 14C147.866 14 147.661 14 147.441 14C147.221 14 147.011 14 146.811 14C146.771 14 146.736 13.995 146.706 13.985C146.676 13.965 146.651 13.935 146.631 13.895C146.611 13.855 146.591 13.8 146.571 13.73C146.381 13.03 146.181 12.325 145.971 11.615C145.771 10.895 145.566 10.19 145.356 9.5C145.156 8.81 144.966 8.145 144.786 7.505C144.606 6.865 144.441 6.275 144.291 5.735C144.141 5.195 144.011 4.72 143.901 4.31L144.321 4.58H143.286L143.706 4.325C143.586 4.735 143.446 5.2 143.286 5.72C143.136 6.23 142.966 6.795 142.776 7.415C142.596 8.035 142.396 8.7 142.176 9.41C141.966 10.11 141.746 10.845 141.516 11.615C141.286 12.385 141.046 13.18 140.796 14ZM150.545 4.595C150.545 4.265 150.545 3.95 150.545 3.65C150.545 3.34 150.545 3.04 150.545 2.75C150.695 2.75 150.81 2.75 150.89 2.75C150.97 2.75 151.03 2.75 151.07 2.75C151.12 2.75 151.165 2.75 151.205 2.75C151.255 2.75 151.315 2.75 151.385 2.75C151.465 2.75 151.585 2.75 151.745 2.75C151.785 2.75 151.815 2.76 151.835 2.78C151.855 2.79 151.87 2.81 151.88 2.84C151.9 2.86 151.91 2.885 151.91 2.915C151.91 3.505 151.91 4.095 151.91 4.685C151.91 5.275 151.91 5.865 151.91 6.455C151.91 7.045 151.91 7.635 151.91 8.225C151.91 8.815 151.91 9.405 151.91 9.995C151.91 10.585 151.91 11.175 151.91 11.765C151.91 11.945 151.925 12.095 151.955 12.215C151.985 12.325 152.035 12.42 152.105 12.5C152.185 12.57 152.28 12.625 152.39 12.665C152.51 12.695 152.66 12.71 152.84 12.71C152.87 12.71 152.905 12.71 152.945 12.71C152.995 12.71 153.045 12.71 153.095 12.71C153.145 12.71 153.19 12.71 153.23 12.71C153.27 12.71 153.305 12.71 153.335 12.71H153.5C153.5 12.88 153.5 13.065 153.5 13.265C153.5 13.465 153.5 13.655 153.5 13.835C153.5 13.895 153.485 13.94 153.455 13.97C153.425 13.99 153.385 14 153.335 14C153.295 14 153.26 14 153.23 14C153.2 14 153.155 14 153.095 14C153.045 14 152.975 14 152.885 14C152.805 14 152.695 14 152.555 14C152.215 14 151.915 13.96 151.655 13.88C151.405 13.79 151.195 13.66 151.025 13.49C150.865 13.31 150.745 13.085 150.665 12.815C150.585 12.535 150.545 12.21 150.545 11.84C150.545 11.24 150.545 10.64 150.545 10.04C150.545 9.43 150.545 8.825 150.545 8.225C150.545 7.615 150.545 7.01 150.545 6.41C150.545 5.81 150.545 5.205 150.545 4.595ZM155.789 4.595C155.789 4.265 155.789 3.95 155.789 3.65C155.789 3.34 155.789 3.04 155.789 2.75C155.939 2.75 156.054 2.75 156.134 2.75C156.214 2.75 156.274 2.75 156.314 2.75C156.364 2.75 156.409 2.75 156.449 2.75C156.499 2.75 156.559 2.75 156.629 2.75C156.709 2.75 156.829 2.75 156.989 2.75C157.029 2.75 157.059 2.76 157.079 2.78C157.099 2.79 157.114 2.81 157.124 2.84C157.144 2.86 157.154 2.885 157.154 2.915C157.154 3.505 157.154 4.095 157.154 4.685C157.154 5.275 157.154 5.865 157.154 6.455C157.154 7.045 157.154 7.635 157.154 8.225C157.154 8.815 157.154 9.405 157.154 9.995C157.154 10.585 157.154 11.175 157.154 11.765C157.154 11.945 157.169 12.095 157.199 12.215C157.229 12.325 157.279 12.42 157.349 12.5C157.429 12.57 157.524 12.625 157.634 12.665C157.754 12.695 157.904 12.71 158.084 12.71C158.114 12.71 158.149 12.71 158.189 12.71C158.239 12.71 158.289 12.71 158.339 12.71C158.389 12.71 158.434 12.71 158.474 12.71C158.514 12.71 158.549 12.71 158.579 12.71H158.744C158.744 12.88 158.744 13.065 158.744 13.265C158.744 13.465 158.744 13.655 158.744 13.835C158.744 13.895 158.729 13.94 158.699 13.97C158.669 13.99 158.629 14 158.579 14C158.539 14 158.504 14 158.474 14C158.444 14 158.399 14 158.339 14C158.289 14 158.219 14 158.129 14C158.049 14 157.939 14 157.799 14C157.459 14 157.159 13.96 156.899 13.88C156.649 13.79 156.439 13.66 156.269 13.49C156.109 13.31 155.989 13.085 155.909 12.815C155.829 12.535 155.789 12.21 155.789 11.84C155.789 11.24 155.789 10.64 155.789 10.04C155.789 9.43 155.789 8.825 155.789 8.225C155.789 7.615 155.789 7.01 155.789 6.41C155.789 5.81 155.789 5.205 155.789 4.595ZM166.505 7.43H167C167.2 7.06 167.405 6.76 167.615 6.53C167.825 6.3 168.055 6.135 168.305 6.035C168.555 5.925 168.83 5.87 169.13 5.87C169.31 5.87 169.46 5.885 169.58 5.915C169.7 5.935 169.795 5.965 169.865 6.005C169.915 6.025 169.945 6.055 169.955 6.095C169.975 6.125 169.985 6.17 169.985 6.23C169.985 6.32 169.985 6.415 169.985 6.515C169.985 6.615 169.985 6.715 169.985 6.815C169.985 6.905 169.985 7 169.985 7.1C169.985 7.2 169.985 7.3 169.985 7.4H169.76C169.65 7.37 169.535 7.345 169.415 7.325C169.295 7.305 169.15 7.295 168.98 7.295C168.66 7.295 168.365 7.355 168.095 7.475C167.825 7.585 167.56 7.77 167.3 8.03C167.05 8.28 166.785 8.615 166.505 9.035V7.43ZM166.745 14C166.605 14 166.465 14 166.325 14C166.185 14 166.045 14 165.905 14C165.765 14 165.62 14 165.47 14C165.44 14 165.415 14 165.395 14C165.375 13.99 165.355 13.98 165.335 13.97C165.325 13.95 165.315 13.93 165.305 13.91C165.305 13.89 165.305 13.865 165.305 13.835C165.305 13.625 165.305 13.34 165.305 12.98C165.305 12.62 165.305 12.215 165.305 11.765C165.305 11.305 165.305 10.83 165.305 10.34C165.305 9.84 165.305 9.35 165.305 8.87C165.305 8.38 165.305 7.925 165.305 7.505C165.305 7.185 165.305 6.9 165.305 6.65C165.305 6.39 165.305 6.18 165.305 6.02C165.465 6.02 165.615 6.02 165.755 6.02C165.905 6.02 166.045 6.02 166.175 6.02C166.315 6.02 166.45 6.02 166.58 6.02C166.62 6.02 166.65 6.03 166.67 6.05C166.69 6.06 166.705 6.075 166.715 6.095C166.735 6.115 166.745 6.145 166.745 6.185C166.745 6.445 166.745 6.795 166.745 7.235C166.745 7.675 166.745 8.175 166.745 8.735C166.745 9.295 166.745 9.885 166.745 10.505C166.745 11.115 166.745 11.72 166.745 12.32C166.745 12.92 166.745 13.48 166.745 14ZM172.868 13.835C172.868 13.465 172.868 13.06 172.868 12.62C172.868 12.18 172.868 11.725 172.868 11.255C172.868 10.785 172.868 10.315 172.868 9.845C172.868 9.375 172.868 8.925 172.868 8.495C172.868 8.055 172.868 7.645 172.868 7.265H172.658C172.578 7.265 172.488 7.265 172.388 7.265C172.298 7.265 172.203 7.265 172.103 7.265C172.003 7.265 171.903 7.265 171.803 7.265C171.713 7.265 171.618 7.265 171.518 7.265C171.478 7.265 171.438 7.25 171.398 7.22C171.368 7.19 171.353 7.15 171.353 7.1C171.353 6.93 171.353 6.755 171.353 6.575C171.353 6.385 171.353 6.2 171.353 6.02C171.523 6.02 171.698 6.02 171.878 6.02C172.068 6.02 172.263 6.02 172.463 6.02C172.663 6.02 172.858 6.02 173.048 6.02C173.238 6.02 173.418 6.02 173.588 6.02C173.768 6.02 173.933 6.02 174.083 6.02C174.113 6.02 174.138 6.03 174.158 6.05C174.188 6.06 174.208 6.08 174.218 6.11C174.238 6.13 174.248 6.155 174.248 6.185C174.248 6.695 174.248 7.225 174.248 7.775C174.248 8.315 174.248 8.86 174.248 9.41C174.248 9.96 174.248 10.505 174.248 11.045C174.248 11.585 174.248 12.11 174.248 12.62C174.248 12.77 174.248 12.925 174.248 13.085C174.248 13.235 174.248 13.385 174.248 13.535C174.248 13.685 174.248 13.84 174.248 14C174.028 14 173.823 14 173.633 14C173.453 14 173.253 14 173.033 14C172.993 14 172.953 13.985 172.913 13.955C172.883 13.915 172.868 13.875 172.868 13.835ZM172.598 2.39C172.738 2.39 172.878 2.39 173.018 2.39C173.168 2.39 173.313 2.39 173.453 2.39C173.603 2.39 173.748 2.39 173.888 2.39C174.038 2.39 174.183 2.39 174.323 2.39C174.373 2.39 174.413 2.405 174.443 2.435C174.473 2.465 174.488 2.505 174.488 2.555V4.025C174.348 4.025 174.203 4.025 174.053 4.025C173.913 4.025 173.768 4.025 173.618 4.025C173.478 4.025 173.333 4.025 173.183 4.025C173.043 4.025 172.903 4.025 172.763 4.025C172.713 4.025 172.673 4.01 172.643 3.98C172.613 3.95 172.598 3.91 172.598 3.86V2.39ZM177.602 12.725C177.602 12.515 177.637 12.325 177.707 12.155C177.777 11.975 177.882 11.82 178.022 11.69C178.172 11.55 178.352 11.435 178.562 11.345V10.97L179.357 11.27C179.237 11.42 179.142 11.59 179.072 11.78C179.012 11.97 178.982 12.17 178.982 12.38C178.982 12.57 179.027 12.705 179.117 12.785C179.207 12.865 179.337 12.905 179.507 12.905H181.727C182.277 12.905 182.732 13 183.092 13.19C183.462 13.38 183.737 13.64 183.917 13.97C184.097 14.3 184.187 14.685 184.187 15.125V15.56C184.187 15.87 184.132 16.16 184.022 16.43C183.912 16.7 183.742 16.93 183.512 17.12C183.292 17.32 183.022 17.475 182.702 17.585C182.382 17.695 182.017 17.75 181.607 17.75H178.772C178.252 17.75 177.817 17.67 177.467 17.51C177.127 17.36 176.867 17.145 176.687 16.865C176.517 16.585 176.432 16.26 176.432 15.89V15.635C176.432 15.325 176.492 15.05 176.612 14.81C176.732 14.57 176.907 14.365 177.137 14.195C177.367 14.025 177.637 13.915 177.947 13.865V13.385L178.922 14.03C178.642 14.07 178.417 14.155 178.247 14.285C178.087 14.415 177.972 14.57 177.902 14.75C177.832 14.93 177.797 15.12 177.797 15.32V15.68C177.797 15.87 177.837 16.04 177.917 16.19C177.997 16.34 178.127 16.455 178.307 16.535C178.487 16.625 178.722 16.67 179.012 16.67H181.607C181.827 16.67 182.012 16.635 182.162 16.565C182.322 16.505 182.452 16.425 182.552 16.325C182.652 16.225 182.722 16.11 182.762 15.98C182.802 15.85 182.822 15.705 182.822 15.545V15.2C182.822 14.87 182.732 14.605 182.552 14.405C182.372 14.215 182.057 14.12 181.607 14.12H179.027C178.767 14.12 178.527 14.065 178.307 13.955C178.097 13.835 177.927 13.67 177.797 13.46C177.667 13.25 177.602 13.005 177.602 12.725ZM181.037 7.025L182.297 6.965V7.295C182.637 7.435 182.882 7.64 183.032 7.91C183.182 8.17 183.257 8.465 183.257 8.795V9.11C183.257 9.57 183.132 9.975 182.882 10.325C182.632 10.665 182.267 10.93 181.787 11.12C181.307 11.3 180.727 11.39 180.047 11.39C179.367 11.39 178.782 11.29 178.292 11.09C177.812 10.89 177.442 10.6 177.182 10.22C176.932 9.84 176.807 9.395 176.807 8.885V8.525C176.807 7.985 176.932 7.525 177.182 7.145C177.442 6.755 177.812 6.455 178.292 6.245C178.782 6.025 179.367 5.915 180.047 5.915C180.727 5.915 181.407 5.915 182.087 5.915C182.777 5.915 183.457 5.915 184.127 5.915C184.127 6.085 184.127 6.255 184.127 6.425C184.127 6.595 184.127 6.765 184.127 6.935C184.127 6.975 184.112 7.015 184.082 7.055C184.052 7.085 184.012 7.1 183.962 7.1C183.532 7.1 183.102 7.1 182.672 7.1C182.252 7.1 181.827 7.1 181.397 7.1C180.967 7.1 180.517 7.1 180.047 7.1C179.457 7.1 178.992 7.225 178.652 7.475C178.312 7.725 178.142 8.085 178.142 8.555V8.885C178.142 9.075 178.172 9.245 178.232 9.395C178.292 9.545 178.382 9.68 178.502 9.8C178.662 9.95 178.872 10.07 179.132 10.16C179.392 10.25 179.697 10.295 180.047 10.295C180.647 10.295 181.107 10.17 181.427 9.92C181.757 9.67 181.922 9.315 181.922 8.855V8.495C181.922 8.295 181.892 8.115 181.832 7.955C181.782 7.785 181.692 7.625 181.562 7.475C181.442 7.315 181.267 7.165 181.037 7.025ZM186.461 14C186.431 14 186.401 13.995 186.371 13.985C186.351 13.965 186.331 13.945 186.311 13.925C186.301 13.905 186.296 13.875 186.296 13.835C186.296 13.035 186.296 12.24 186.296 11.45C186.296 10.65 186.296 9.85 186.296 9.05C186.296 8.24 186.296 7.435 186.296 6.635C186.296 5.835 186.296 5.035 186.296 4.235C186.296 3.915 186.296 3.63 186.296 3.38C186.296 3.12 186.296 2.91 186.296 2.75C186.456 2.75 186.601 2.75 186.731 2.75C186.871 2.75 187.001 2.75 187.121 2.75C187.251 2.75 187.381 2.75 187.511 2.75C187.551 2.75 187.581 2.76 187.601 2.78C187.621 2.79 187.636 2.805 187.646 2.825C187.666 2.845 187.676 2.875 187.676 2.915C187.676 3.835 187.676 4.76 187.676 5.69C187.676 6.61 187.676 7.535 187.676 8.465C187.676 9.385 187.676 10.31 187.676 11.24C187.676 12.16 187.676 13.08 187.676 14C187.536 14 187.401 14 187.271 14C187.141 14 187.011 14 186.881 14C186.751 14 186.611 14 186.461 14ZM187.451 8.78V7.355H187.901C188.081 7.135 188.266 6.935 188.456 6.755C188.646 6.565 188.846 6.405 189.056 6.275C189.276 6.135 189.506 6.03 189.746 5.96C189.986 5.89 190.236 5.855 190.496 5.855C190.836 5.855 191.136 5.91 191.396 6.02C191.666 6.13 191.886 6.285 192.056 6.485C192.236 6.685 192.371 6.925 192.461 7.205C192.561 7.475 192.611 7.775 192.611 8.105C192.611 8.585 192.611 9.065 192.611 9.545C192.611 10.025 192.611 10.51 192.611 11C192.611 11.48 192.611 11.965 192.611 12.455C192.611 12.715 192.611 12.975 192.611 13.235C192.611 13.485 192.611 13.74 192.611 14C192.391 14 192.186 14 191.996 14C191.816 14 191.616 14 191.396 14C191.366 14 191.336 13.995 191.306 13.985C191.286 13.965 191.266 13.945 191.246 13.925C191.236 13.905 191.231 13.875 191.231 13.835C191.231 13.225 191.231 12.62 191.231 12.02C191.231 11.41 191.231 10.805 191.231 10.205C191.231 9.595 191.231 8.985 191.231 8.375C191.231 7.965 191.131 7.665 190.931 7.475C190.741 7.275 190.466 7.175 190.106 7.175C189.896 7.175 189.681 7.21 189.461 7.28C189.241 7.34 189.021 7.435 188.801 7.565C188.581 7.695 188.356 7.86 188.126 8.06C187.906 8.26 187.681 8.5 187.451 8.78ZM194.293 6.02H199.948C199.998 6.02 200.038 6.035 200.068 6.065C200.098 6.095 200.113 6.135 200.113 6.185C200.113 6.315 200.113 6.44 200.113 6.56C200.113 6.68 200.113 6.8 200.113 6.92C200.113 7.04 200.113 7.17 200.113 7.31H194.458C194.438 7.31 194.418 7.305 194.398 7.295C194.378 7.285 194.358 7.275 194.338 7.265C194.328 7.245 194.318 7.225 194.308 7.205C194.298 7.185 194.293 7.165 194.293 7.145C194.293 7.005 194.293 6.875 194.293 6.755C194.293 6.635 194.293 6.515 194.293 6.395C194.293 6.275 194.293 6.15 194.293 6.02ZM200.113 12.695C200.113 12.885 200.113 13.075 200.113 13.265C200.113 13.455 200.113 13.645 200.113 13.835C200.113 13.885 200.098 13.925 200.068 13.955C200.048 13.985 200.008 14 199.948 14C199.858 14 199.763 14 199.663 14C199.573 14 199.478 14 199.378 14C199.288 14 199.193 14 199.093 14C199.003 14 198.913 14 198.823 14C198.333 14 197.903 13.945 197.533 13.835C197.163 13.715 196.848 13.535 196.588 13.295C196.328 13.045 196.133 12.73 196.003 12.35C195.873 11.97 195.808 11.51 195.808 10.97C195.808 10.48 195.808 9.99 195.808 9.5C195.808 9.01 195.808 8.52 195.808 8.03C195.808 7.54 195.808 7.05 195.808 6.56C195.808 6.06 195.808 5.565 195.808 5.075C195.808 4.805 195.808 4.54 195.808 4.28C195.808 4.02 195.808 3.76 195.808 3.5C196.018 3.5 196.223 3.5 196.423 3.5C196.623 3.5 196.823 3.5 197.023 3.5C197.053 3.5 197.078 3.51 197.098 3.53C197.128 3.54 197.148 3.56 197.158 3.59C197.178 3.61 197.188 3.635 197.188 3.665C197.188 4.265 197.188 4.865 197.188 5.465C197.188 6.055 197.188 6.65 197.188 7.25C197.188 7.85 197.188 8.45 197.188 9.05C197.188 9.65 197.188 10.25 197.188 10.85C197.188 11.21 197.223 11.51 197.293 11.75C197.363 11.99 197.473 12.185 197.623 12.335C197.763 12.465 197.933 12.56 198.133 12.62C198.343 12.67 198.593 12.695 198.883 12.695C199.003 12.695 199.118 12.695 199.228 12.695C199.348 12.695 199.463 12.695 199.573 12.695C199.683 12.695 199.798 12.695 199.918 12.695H200.113ZM205.108 12.815C205.828 12.815 206.343 12.71 206.653 12.5C206.963 12.29 207.118 12.02 207.118 11.69C207.118 11.51 207.078 11.355 206.998 11.225C206.918 11.085 206.783 10.97 206.593 10.88C206.413 10.78 206.168 10.7 205.858 10.64L204.373 10.34C203.883 10.24 203.478 10.1 203.158 9.92C202.848 9.73 202.618 9.5 202.468 9.23C202.328 8.96 202.258 8.645 202.258 8.285C202.258 7.935 202.328 7.615 202.468 7.325C202.618 7.035 202.838 6.785 203.128 6.575C203.418 6.355 203.778 6.185 204.208 6.065C204.638 5.945 205.138 5.885 205.708 5.885C206.068 5.885 206.388 5.905 206.668 5.945C206.948 5.975 207.193 6.02 207.403 6.08C207.613 6.13 207.783 6.185 207.913 6.245C207.973 6.265 208.013 6.285 208.033 6.305C208.063 6.325 208.078 6.35 208.078 6.38C208.088 6.41 208.093 6.455 208.093 6.515C208.093 6.665 208.093 6.835 208.093 7.025C208.093 7.215 208.093 7.4 208.093 7.58H207.868C207.628 7.49 207.388 7.42 207.148 7.37C206.918 7.31 206.673 7.27 206.413 7.25C206.153 7.22 205.858 7.205 205.528 7.205C205.078 7.205 204.713 7.255 204.433 7.355C204.153 7.445 203.948 7.57 203.818 7.73C203.688 7.88 203.623 8.05 203.623 8.24C203.623 8.41 203.658 8.555 203.728 8.675C203.798 8.785 203.923 8.885 204.103 8.975C204.293 9.055 204.558 9.13 204.898 9.2L206.383 9.5C206.823 9.59 207.198 9.73 207.508 9.92C207.818 10.11 208.053 10.35 208.213 10.64C208.383 10.93 208.468 11.28 208.468 11.69C208.468 12.18 208.333 12.61 208.063 12.98C207.803 13.35 207.423 13.635 206.923 13.835C206.423 14.035 205.823 14.135 205.123 14.135C204.763 14.135 204.428 14.115 204.118 14.075C203.818 14.045 203.538 14 203.278 13.94C203.028 13.88 202.803 13.81 202.603 13.73C202.413 13.64 202.248 13.55 202.108 13.46C202.068 13.43 202.043 13.405 202.033 13.385C202.023 13.365 202.018 13.33 202.018 13.28C202.018 13.11 202.018 12.915 202.018 12.695C202.018 12.475 202.018 12.27 202.018 12.08H202.243C202.453 12.22 202.663 12.335 202.873 12.425C203.083 12.515 203.303 12.59 203.533 12.65C203.763 12.71 204.003 12.755 204.253 12.785C204.513 12.805 204.798 12.815 205.108 12.815ZM216.442 7.43H216.937C217.137 7.06 217.342 6.76 217.552 6.53C217.762 6.3 217.992 6.135 218.242 6.035C218.492 5.925 218.767 5.87 219.067 5.87C219.247 5.87 219.397 5.885 219.517 5.915C219.637 5.935 219.732 5.965 219.802 6.005C219.852 6.025 219.882 6.055 219.892 6.095C219.912 6.125 219.922 6.17 219.922 6.23C219.922 6.32 219.922 6.415 219.922 6.515C219.922 6.615 219.922 6.715 219.922 6.815C219.922 6.905 219.922 7 219.922 7.1C219.922 7.2 219.922 7.3 219.922 7.4H219.697C219.587 7.37 219.472 7.345 219.352 7.325C219.232 7.305 219.087 7.295 218.917 7.295C218.597 7.295 218.302 7.355 218.032 7.475C217.762 7.585 217.497 7.77 217.237 8.03C216.987 8.28 216.722 8.615 216.442 9.035V7.43ZM216.682 14C216.542 14 216.402 14 216.262 14C216.122 14 215.982 14 215.842 14C215.702 14 215.557 14 215.407 14C215.377 14 215.352 14 215.332 14C215.312 13.99 215.292 13.98 215.272 13.97C215.262 13.95 215.252 13.93 215.242 13.91C215.242 13.89 215.242 13.865 215.242 13.835C215.242 13.625 215.242 13.34 215.242 12.98C215.242 12.62 215.242 12.215 215.242 11.765C215.242 11.305 215.242 10.83 215.242 10.34C215.242 9.84 215.242 9.35 215.242 8.87C215.242 8.38 215.242 7.925 215.242 7.505C215.242 7.185 215.242 6.9 215.242 6.65C215.242 6.39 215.242 6.18 215.242 6.02C215.402 6.02 215.552 6.02 215.692 6.02C215.842 6.02 215.982 6.02 216.112 6.02C216.252 6.02 216.387 6.02 216.517 6.02C216.557 6.02 216.587 6.03 216.607 6.05C216.627 6.06 216.642 6.075 216.652 6.095C216.672 6.115 216.682 6.145 216.682 6.185C216.682 6.445 216.682 6.795 216.682 7.235C216.682 7.675 216.682 8.175 216.682 8.735C216.682 9.295 216.682 9.885 216.682 10.505C216.682 11.115 216.682 11.72 216.682 12.32C216.682 12.92 216.682 13.48 216.682 14ZM224.852 5.855C225.442 5.855 225.982 5.98 226.472 6.23C226.962 6.47 227.352 6.84 227.642 7.34C227.942 7.83 228.092 8.46 228.092 9.23V10.325C228.092 10.355 228.082 10.385 228.062 10.415C228.052 10.435 228.037 10.455 228.017 10.475C227.997 10.485 227.967 10.49 227.927 10.49H224.042C223.872 10.49 223.702 10.49 223.532 10.49C223.362 10.49 223.197 10.49 223.037 10.49H222.587L222.392 9.515H226.742C226.742 9.465 226.742 9.415 226.742 9.365C226.742 9.315 226.742 9.265 226.742 9.215C226.742 8.825 226.697 8.49 226.607 8.21C226.527 7.92 226.397 7.685 226.217 7.505C226.057 7.355 225.862 7.245 225.632 7.175C225.402 7.095 225.142 7.055 224.852 7.055C224.202 7.055 223.702 7.23 223.352 7.58C223.002 7.92 222.827 8.48 222.827 9.26V10.835C222.827 11.155 222.872 11.445 222.962 11.705C223.052 11.965 223.177 12.18 223.337 12.35C223.537 12.55 223.797 12.7 224.117 12.8C224.447 12.89 224.827 12.935 225.257 12.935C225.637 12.935 225.962 12.915 226.232 12.875C226.512 12.835 226.772 12.775 227.012 12.695C227.252 12.615 227.497 12.515 227.747 12.395H227.972C227.972 12.555 227.972 12.72 227.972 12.89C227.972 13.06 227.972 13.23 227.972 13.4C227.972 13.42 227.967 13.44 227.957 13.46C227.947 13.48 227.932 13.5 227.912 13.52C227.812 13.62 227.627 13.72 227.357 13.82C227.097 13.92 226.777 14 226.397 14.06C226.027 14.13 225.627 14.165 225.197 14.165C224.627 14.165 224.107 14.095 223.637 13.955C223.177 13.815 222.782 13.605 222.452 13.325C222.132 13.045 221.887 12.7 221.717 12.29C221.547 11.87 221.462 11.385 221.462 10.835V9.275C221.462 8.695 221.547 8.19 221.717 7.76C221.897 7.33 222.142 6.975 222.452 6.695C222.762 6.415 223.122 6.205 223.532 6.065C223.942 5.925 224.382 5.855 224.852 5.855ZM233.306 12.815C234.026 12.815 234.541 12.71 234.851 12.5C235.161 12.29 235.316 12.02 235.316 11.69C235.316 11.51 235.276 11.355 235.196 11.225C235.116 11.085 234.981 10.97 234.791 10.88C234.611 10.78 234.366 10.7 234.056 10.64L232.571 10.34C232.081 10.24 231.676 10.1 231.356 9.92C231.046 9.73 230.816 9.5 230.666 9.23C230.526 8.96 230.456 8.645 230.456 8.285C230.456 7.935 230.526 7.615 230.666 7.325C230.816 7.035 231.036 6.785 231.326 6.575C231.616 6.355 231.976 6.185 232.406 6.065C232.836 5.945 233.336 5.885 233.906 5.885C234.266 5.885 234.586 5.905 234.866 5.945C235.146 5.975 235.391 6.02 235.601 6.08C235.811 6.13 235.981 6.185 236.111 6.245C236.171 6.265 236.211 6.285 236.231 6.305C236.261 6.325 236.276 6.35 236.276 6.38C236.286 6.41 236.291 6.455 236.291 6.515C236.291 6.665 236.291 6.835 236.291 7.025C236.291 7.215 236.291 7.4 236.291 7.58H236.066C235.826 7.49 235.586 7.42 235.346 7.37C235.116 7.31 234.871 7.27 234.611 7.25C234.351 7.22 234.056 7.205 233.726 7.205C233.276 7.205 232.911 7.255 232.631 7.355C232.351 7.445 232.146 7.57 232.016 7.73C231.886 7.88 231.821 8.05 231.821 8.24C231.821 8.41 231.856 8.555 231.926 8.675C231.996 8.785 232.121 8.885 232.301 8.975C232.491 9.055 232.756 9.13 233.096 9.2L234.581 9.5C235.021 9.59 235.396 9.73 235.706 9.92C236.016 10.11 236.251 10.35 236.411 10.64C236.581 10.93 236.666 11.28 236.666 11.69C236.666 12.18 236.531 12.61 236.261 12.98C236.001 13.35 235.621 13.635 235.121 13.835C234.621 14.035 234.021 14.135 233.321 14.135C232.961 14.135 232.626 14.115 232.316 14.075C232.016 14.045 231.736 14 231.476 13.94C231.226 13.88 231.001 13.81 230.801 13.73C230.611 13.64 230.446 13.55 230.306 13.46C230.266 13.43 230.241 13.405 230.231 13.385C230.221 13.365 230.216 13.33 230.216 13.28C230.216 13.11 230.216 12.915 230.216 12.695C230.216 12.475 230.216 12.27 230.216 12.08H230.441C230.651 12.22 230.861 12.335 231.071 12.425C231.281 12.515 231.501 12.59 231.731 12.65C231.961 12.71 232.201 12.755 232.451 12.785C232.711 12.805 232.996 12.815 233.306 12.815ZM242.093 5.855C242.683 5.855 243.223 5.98 243.713 6.23C244.203 6.47 244.593 6.84 244.883 7.34C245.183 7.83 245.333 8.46 245.333 9.23V10.325C245.333 10.355 245.323 10.385 245.303 10.415C245.293 10.435 245.278 10.455 245.258 10.475C245.238 10.485 245.208 10.49 245.168 10.49H241.283C241.113 10.49 240.943 10.49 240.773 10.49C240.603 10.49 240.438 10.49 240.278 10.49H239.828L239.633 9.515H243.983C243.983 9.465 243.983 9.415 243.983 9.365C243.983 9.315 243.983 9.265 243.983 9.215C243.983 8.825 243.938 8.49 243.848 8.21C243.768 7.92 243.638 7.685 243.458 7.505C243.298 7.355 243.103 7.245 242.873 7.175C242.643 7.095 242.383 7.055 242.093 7.055C241.443 7.055 240.943 7.23 240.593 7.58C240.243 7.92 240.068 8.48 240.068 9.26V10.835C240.068 11.155 240.113 11.445 240.203 11.705C240.293 11.965 240.418 12.18 240.578 12.35C240.778 12.55 241.038 12.7 241.358 12.8C241.688 12.89 242.068 12.935 242.498 12.935C242.878 12.935 243.203 12.915 243.473 12.875C243.753 12.835 244.013 12.775 244.253 12.695C244.493 12.615 244.738 12.515 244.988 12.395H245.213C245.213 12.555 245.213 12.72 245.213 12.89C245.213 13.06 245.213 13.23 245.213 13.4C245.213 13.42 245.208 13.44 245.198 13.46C245.188 13.48 245.173 13.5 245.153 13.52C245.053 13.62 244.868 13.72 244.598 13.82C244.338 13.92 244.018 14 243.638 14.06C243.268 14.13 242.868 14.165 242.438 14.165C241.868 14.165 241.348 14.095 240.878 13.955C240.418 13.815 240.023 13.605 239.693 13.325C239.373 13.045 239.128 12.7 238.958 12.29C238.788 11.87 238.703 11.385 238.703 10.835V9.275C238.703 8.695 238.788 8.19 238.958 7.76C239.138 7.33 239.383 6.975 239.693 6.695C240.003 6.415 240.363 6.205 240.773 6.065C241.183 5.925 241.623 5.855 242.093 5.855ZM249.137 7.43H249.632C249.832 7.06 250.037 6.76 250.247 6.53C250.457 6.3 250.687 6.135 250.937 6.035C251.187 5.925 251.462 5.87 251.762 5.87C251.942 5.87 252.092 5.885 252.212 5.915C252.332 5.935 252.427 5.965 252.497 6.005C252.547 6.025 252.577 6.055 252.587 6.095C252.607 6.125 252.617 6.17 252.617 6.23C252.617 6.32 252.617 6.415 252.617 6.515C252.617 6.615 252.617 6.715 252.617 6.815C252.617 6.905 252.617 7 252.617 7.1C252.617 7.2 252.617 7.3 252.617 7.4H252.392C252.282 7.37 252.167 7.345 252.047 7.325C251.927 7.305 251.782 7.295 251.612 7.295C251.292 7.295 250.997 7.355 250.727 7.475C250.457 7.585 250.192 7.77 249.932 8.03C249.682 8.28 249.417 8.615 249.137 9.035V7.43ZM249.377 14C249.237 14 249.097 14 248.957 14C248.817 14 248.677 14 248.537 14C248.397 14 248.252 14 248.102 14C248.072 14 248.047 14 248.027 14C248.007 13.99 247.987 13.98 247.967 13.97C247.957 13.95 247.947 13.93 247.937 13.91C247.937 13.89 247.937 13.865 247.937 13.835C247.937 13.625 247.937 13.34 247.937 12.98C247.937 12.62 247.937 12.215 247.937 11.765C247.937 11.305 247.937 10.83 247.937 10.34C247.937 9.84 247.937 9.35 247.937 8.87C247.937 8.38 247.937 7.925 247.937 7.505C247.937 7.185 247.937 6.9 247.937 6.65C247.937 6.39 247.937 6.18 247.937 6.02C248.097 6.02 248.247 6.02 248.387 6.02C248.537 6.02 248.677 6.02 248.807 6.02C248.947 6.02 249.082 6.02 249.212 6.02C249.252 6.02 249.282 6.03 249.302 6.05C249.322 6.06 249.337 6.075 249.347 6.095C249.367 6.115 249.377 6.145 249.377 6.185C249.377 6.445 249.377 6.795 249.377 7.235C249.377 7.675 249.377 8.175 249.377 8.735C249.377 9.295 249.377 9.885 249.377 10.505C249.377 11.115 249.377 11.72 249.377 12.32C249.377 12.92 249.377 13.48 249.377 14ZM255.335 6.02C255.365 6.02 255.39 6.025 255.41 6.035C255.43 6.045 255.445 6.065 255.455 6.095C255.475 6.115 255.49 6.145 255.5 6.185C255.74 6.875 255.98 7.575 256.22 8.285C256.46 8.995 256.7 9.735 256.94 10.505C257.19 11.275 257.44 12.11 257.69 13.01H257.915C258.075 12.48 258.225 11.965 258.365 11.465C258.515 10.965 258.665 10.485 258.815 10.025C258.965 9.555 259.115 9.095 259.265 8.645C259.415 8.195 259.56 7.755 259.7 7.325C259.85 6.885 259.995 6.45 260.135 6.02C260.345 6.02 260.555 6.02 260.765 6.02C260.975 6.02 261.185 6.02 261.395 6.02C261.435 6.02 261.465 6.03 261.485 6.05C261.515 6.07 261.535 6.095 261.545 6.125C261.555 6.155 261.55 6.195 261.53 6.245C261.31 6.885 261.085 7.53 260.855 8.18C260.635 8.82 260.41 9.465 260.18 10.115C259.96 10.765 259.735 11.415 259.505 12.065C259.285 12.705 259.06 13.35 258.83 14C258.52 14 258.21 14 257.9 14C257.59 14 257.3 14 257.03 14C256.97 14 256.915 13.99 256.865 13.97C256.815 13.95 256.77 13.91 256.73 13.85C256.7 13.79 256.665 13.7 256.625 13.58C256.455 13.11 256.28 12.63 256.1 12.14C255.93 11.65 255.76 11.155 255.59 10.655C255.42 10.145 255.245 9.635 255.065 9.125C254.885 8.605 254.705 8.09 254.525 7.58C254.345 7.06 254.165 6.54 253.985 6.02C254.215 6.02 254.44 6.02 254.66 6.02C254.88 6.02 255.105 6.02 255.335 6.02ZM266.541 5.855C267.131 5.855 267.671 5.98 268.161 6.23C268.651 6.47 269.041 6.84 269.331 7.34C269.631 7.83 269.781 8.46 269.781 9.23V10.325C269.781 10.355 269.771 10.385 269.751 10.415C269.741 10.435 269.726 10.455 269.706 10.475C269.686 10.485 269.656 10.49 269.616 10.49H265.731C265.561 10.49 265.391 10.49 265.221 10.49C265.051 10.49 264.886 10.49 264.726 10.49H264.276L264.081 9.515H268.431C268.431 9.465 268.431 9.415 268.431 9.365C268.431 9.315 268.431 9.265 268.431 9.215C268.431 8.825 268.386 8.49 268.296 8.21C268.216 7.92 268.086 7.685 267.906 7.505C267.746 7.355 267.551 7.245 267.321 7.175C267.091 7.095 266.831 7.055 266.541 7.055C265.891 7.055 265.391 7.23 265.041 7.58C264.691 7.92 264.516 8.48 264.516 9.26V10.835C264.516 11.155 264.561 11.445 264.651 11.705C264.741 11.965 264.866 12.18 265.026 12.35C265.226 12.55 265.486 12.7 265.806 12.8C266.136 12.89 266.516 12.935 266.946 12.935C267.326 12.935 267.651 12.915 267.921 12.875C268.201 12.835 268.461 12.775 268.701 12.695C268.941 12.615 269.186 12.515 269.436 12.395H269.661C269.661 12.555 269.661 12.72 269.661 12.89C269.661 13.06 269.661 13.23 269.661 13.4C269.661 13.42 269.656 13.44 269.646 13.46C269.636 13.48 269.621 13.5 269.601 13.52C269.501 13.62 269.316 13.72 269.046 13.82C268.786 13.92 268.466 14 268.086 14.06C267.716 14.13 267.316 14.165 266.886 14.165C266.316 14.165 265.796 14.095 265.326 13.955C264.866 13.815 264.471 13.605 264.141 13.325C263.821 13.045 263.576 12.7 263.406 12.29C263.236 11.87 263.151 11.385 263.151 10.835V9.275C263.151 8.695 263.236 8.19 263.406 7.76C263.586 7.33 263.831 6.975 264.141 6.695C264.451 6.415 264.811 6.205 265.221 6.065C265.631 5.925 266.071 5.855 266.541 5.855ZM274.635 5.855C274.995 5.855 275.315 5.91 275.595 6.02C275.875 6.12 276.13 6.27 276.36 6.47C276.6 6.67 276.81 6.915 276.99 7.205H277.44V8.84C277.08 8.26 276.695 7.84 276.285 7.58C275.875 7.31 275.445 7.175 274.995 7.175C274.665 7.175 274.375 7.25 274.125 7.4C273.885 7.54 273.695 7.755 273.555 8.045C273.425 8.325 273.36 8.675 273.36 9.095V11C273.36 11.32 273.4 11.6 273.48 11.84C273.57 12.07 273.685 12.26 273.825 12.41C273.965 12.55 274.135 12.655 274.335 12.725C274.535 12.795 274.755 12.83 274.995 12.83C275.285 12.83 275.57 12.78 275.85 12.68C276.13 12.57 276.405 12.395 276.675 12.155C276.945 11.915 277.2 11.6 277.44 11.21V12.785H276.99C276.81 13.075 276.6 13.32 276.36 13.52C276.12 13.72 275.85 13.875 275.55 13.985C275.26 14.095 274.945 14.15 274.605 14.15C274.225 14.15 273.87 14.085 273.54 13.955C273.22 13.815 272.945 13.62 272.715 13.37C272.485 13.12 272.305 12.815 272.175 12.455C272.055 12.095 271.995 11.685 271.995 11.225V8.87C271.995 8.4 272.055 7.98 272.175 7.61C272.305 7.24 272.485 6.925 272.715 6.665C272.955 6.405 273.235 6.205 273.555 6.065C273.885 5.925 274.245 5.855 274.635 5.855ZM278.43 2.75C278.47 2.75 278.5 2.76 278.52 2.78C278.54 2.79 278.555 2.805 278.565 2.825C278.585 2.845 278.595 2.875 278.595 2.915C278.595 3.685 278.595 4.47 278.595 5.27C278.595 6.07 278.595 6.865 278.595 7.655C278.595 8.445 278.595 9.225 278.595 9.995C278.595 10.755 278.595 11.49 278.595 12.2C278.595 12.54 278.595 12.865 278.595 13.175C278.595 13.475 278.595 13.75 278.595 14C278.495 14 278.39 14 278.28 14C278.18 14 278.08 14 277.98 14C277.88 14 277.78 14 277.68 14C277.58 14 277.48 14 277.38 14C277.35 14 277.32 13.995 277.29 13.985C277.27 13.965 277.25 13.945 277.23 13.925C277.22 13.905 277.215 13.875 277.215 13.835C277.215 13.035 277.215 12.235 277.215 11.435C277.215 10.635 277.215 9.84 277.215 9.05C277.215 8.25 277.215 7.45 277.215 6.65C277.215 5.85 277.215 5.05 277.215 4.25C277.215 4.01 277.215 3.765 277.215 3.515C277.215 3.265 277.215 3.01 277.215 2.75C277.315 2.75 277.415 2.75 277.515 2.75C277.615 2.75 277.715 2.75 277.815 2.75C277.915 2.75 278.015 2.75 278.115 2.75C278.225 2.75 278.33 2.75 278.43 2.75Z" fill="#454545"/>
<path d="M7.13672 1.003C5.43281 1.09324 3.87656 1.71785 2.58398 2.82878C2.41406 2.97527 2.04492 3.33972 1.88906 3.5155C1.44844 4.01472 1.09805 4.52917 0.802734 5.11511C0.364453 5.9823 0.118359 6.84363 0.0210938 7.84558C-0.00703125 8.14089 -0.00703125 8.85105 0.0210938 9.14636C0.118359 10.1483 0.364453 11.0096 0.802734 11.8768C1.17891 12.6221 1.63594 13.2468 2.23945 13.8397C2.80078 14.3917 3.3832 14.8135 4.06523 15.1651C4.94297 15.6151 5.82539 15.8706 6.84375 15.969C7.13906 15.9971 7.84922 15.9971 8.14453 15.969C9.16289 15.8706 10.0453 15.6151 10.923 15.1651C11.6051 14.8135 12.1875 14.3917 12.7488 13.8397C13.3523 13.2468 13.8094 12.6221 14.1855 11.8768C14.6238 11.0096 14.8699 10.1483 14.9672 9.14636C14.9953 8.85105 14.9953 8.14089 14.9672 7.84558C14.8699 6.84363 14.6238 5.9823 14.1855 5.11511C13.8094 4.3698 13.3523 3.74519 12.7488 3.15222C12.3633 2.77253 12.0375 2.51003 11.6016 2.22292C10.5609 1.54089 9.41367 1.14246 8.15625 1.02527C7.96641 1.00769 7.31719 0.993627 7.13672 1.003ZM7.98047 2.54871C8.35195 2.58035 8.62617 2.62605 8.9625 2.7116C10.9488 3.21667 12.5391 4.7073 13.1719 6.65613C13.4754 7.59128 13.541 8.62253 13.3594 9.60105C12.9645 11.7303 11.4059 13.501 9.33398 14.1737C8.39883 14.4772 7.36758 14.5428 6.38906 14.3612C4.25977 13.9663 2.48906 12.4077 1.81641 10.3358C1.51289 9.40066 1.44727 8.36941 1.62891 7.39089C1.97109 5.54636 3.20156 3.93972 4.89961 3.12175C5.57109 2.79831 6.28008 2.6073 7.04297 2.54402C7.24219 2.52761 7.76602 2.52996 7.98047 2.54871Z" fill="black"/>
<path d="M7.15431 4.33585C6.96798 4.35109 6.70899 4.38976 6.52735 4.4296C5.18556 4.72843 4.0547 5.69406 3.54259 6.97726C3.18282 7.88195 3.14767 8.89562 3.44649 9.8214C3.82149 10.9862 4.68517 11.9308 5.81954 12.4136C6.38321 12.6538 6.99728 12.7628 7.64649 12.7359C9.15587 12.6761 10.5317 11.7819 11.2149 10.4167C11.3484 10.1519 11.4609 9.85187 11.5254 9.59757C11.5383 9.5425 11.5524 9.48859 11.5559 9.47687C11.5617 9.45812 11.509 9.45695 10.5598 9.45695H9.55782L9.49689 9.57531C9.09962 10.3487 8.31446 10.8292 7.44962 10.828C6.81798 10.8269 6.24024 10.5808 5.80079 10.1226C5.46095 9.76984 5.25235 9.34328 5.18087 8.85812C5.15743 8.69992 5.15626 8.37765 5.1797 8.2171C5.31212 7.28781 5.99415 6.53078 6.90235 6.30695C7.21173 6.2296 7.56564 6.2214 7.88673 6.28234C8.04376 6.31164 8.28282 6.38898 8.43165 6.45929C8.86407 6.66203 9.26134 7.04054 9.4711 7.44718L9.51564 7.53507L10.527 7.53742C11.2418 7.53976 11.5371 7.53742 11.5371 7.52804C11.5371 7.5046 11.4692 7.27257 11.4258 7.14835C11.3063 6.80851 11.1656 6.52492 10.957 6.21085C10.7988 5.97296 10.6664 5.80773 10.4719 5.60968C10.2317 5.36359 10.0231 5.19015 9.76993 5.02374C9.20626 4.65226 8.6086 4.43546 7.92423 4.35226C7.7461 4.33117 7.3336 4.32179 7.15431 4.33585Z" fill="black"/>
</svg>
