<svg width="39" height="38" viewBox="0 0 39 38" fill="none" xmlns="http://www.w3.org/2000/svg">
<ellipse cx="19.5" cy="19" rx="19.5" ry="19" fill="#D9D9D9"/>
<path fill-rule="evenodd" clip-rule="evenodd" d="M19.497 6.48566C13.0195 6.48566 7.76697 11.7371 7.76697 18.2156C7.76697 23.3982 11.128 27.7951 15.7887 29.3462C16.3748 29.4547 16.5901 29.0916 16.5901 28.7819C16.5901 28.5023 16.5794 27.5781 16.5743 26.5979C13.311 27.3076 12.6224 25.214 12.6224 25.214C12.0887 23.8582 11.32 23.4976 11.32 23.4976C10.2556 22.7696 11.4002 22.7846 11.4002 22.7846C12.578 22.8673 13.1983 23.9936 13.1983 23.9936C14.2445 25.7867 15.9424 25.2682 16.6118 24.9685C16.7171 24.2105 17.021 23.6928 17.3565 23.3999C14.7511 23.1034 12.0122 22.0975 12.0122 17.6029C12.0122 16.3224 12.4704 15.2759 13.2209 14.4545C13.0991 14.1589 12.6975 12.9659 13.3345 11.3501C13.3345 11.3501 14.3196 11.035 16.561 12.5527C17.4967 12.2927 18.5002 12.1624 19.497 12.1579C20.4938 12.1624 21.4981 12.2927 22.4355 12.5527C24.6744 11.035 25.6581 11.3501 25.6581 11.3501C26.2965 12.9659 25.8949 14.1589 25.7732 14.4545C26.5253 15.2759 26.9804 16.3223 26.9804 17.6029C26.9804 22.1083 24.2363 23.1002 21.6242 23.3906C22.0449 23.7547 22.4197 24.4685 22.4197 25.5628C22.4197 27.1323 22.4063 28.3955 22.4063 28.7819C22.4063 29.0941 22.6174 29.4599 23.2119 29.3448C27.8702 27.7919 31.227 23.3965 31.227 18.2156C31.227 11.7371 25.9751 6.48566 19.497 6.48566Z" fill="black"/>
</svg>
