<svg width="245" height="100" viewBox="0 0 245 100" fill="none" xmlns="http://www.w3.org/2000/svg">
<path d="M47.0259 0.233633C36.7445 1.04969 27.282 4.58594 19.2298 10.6157C10.9046 16.8721 4.12618 27.2089 1.35112 37.999C-0.605072 45.5249 -0.423101 56.5416 1.80605 63.9768C10.0857 91.4508 38.7462 106.367 65.9055 97.3899C81.7825 92.1308 93.9291 79.2099 98.4783 62.7527C100.071 57.0403 100.48 47.2476 99.3882 41.3992C95.1574 19.0483 77.3697 2.68181 54.7597 0.414979C52.0756 0.14296 49.619 -0.0383864 49.3461 0.00695015C49.0731 0.0522867 48.0268 0.14296 47.0259 0.233633ZM58.9451 3.31652C77.0057 6.71676 91.063 19.7737 96.2492 37.8176C97.432 42.0339 97.523 42.8047 97.4775 50.4665C97.432 57.9471 97.341 58.9445 96.2037 62.7074C94.6569 67.8758 92.0183 73.4068 89.1523 77.5778C86.8322 80.9327 81.1456 86.8718 80.6906 86.4638C80.4177 86.1464 82.0099 76.5804 82.9653 72.9081C84.1481 68.4198 84.1481 68.4651 79.0074 64.2942C72.5019 59.0351 71.4101 57.9924 70.4547 55.7709C69.9998 54.7282 69.4084 53.8668 69.1809 53.8668C68.5895 53.8668 69.09 48.7891 69.7723 47.973C70.0908 47.6103 70.5002 46.8849 70.6367 46.3409C70.8187 45.7969 71.4101 45.1622 72.047 44.8901C73.0933 44.3914 74.0487 42.3513 73.4573 41.7619C73.3208 41.6259 73.5937 40.9459 74.0942 40.2658C74.5946 39.5404 75.004 38.407 75.004 37.6363C75.004 35.9588 73.1843 33.9187 71.6376 33.9187C71.0007 33.9187 69.9998 33.42 69.3629 32.7853C68.726 32.1506 67.7707 31.6519 67.2247 31.6519C66.3149 31.6519 66.2694 31.4705 66.5424 29.7931C67.0428 26.7555 68.5895 23.582 69.6814 23.3553C70.6822 23.1739 70.6822 23.1739 69.6814 23.0833C68.3166 23.0379 66.5424 25.6674 65.9055 28.7957C65.587 30.1104 65.3141 31.1985 65.2231 31.1985C64.8136 31.1985 60.8558 29.4304 56.0335 27.0275C50.3924 24.262 49.528 23.4459 51.0748 22.1765C52.0756 21.3151 52.4396 16.9175 51.6207 15.6934C50.6199 14.288 50.7108 12.7919 51.8027 11.7038C53.0765 10.4344 54.8962 10.5704 56.4429 12.0211C57.4438 12.9732 57.7167 13.0639 57.7167 12.4745C57.7167 11.5678 59.4455 10.3437 60.7193 10.3437C62.0386 10.3437 64.5407 12.4292 64.5407 13.5172C64.5407 14.2426 64.8591 14.3786 66.4059 14.288C68.817 14.1973 70.2273 15.6481 69.8633 17.9149C69.6814 19.003 69.7723 19.411 70.2273 19.411C71.2736 19.411 71.9105 21.0431 71.3646 22.2219C70.8642 23.2193 70.9097 23.2193 71.5466 22.4032C72.5019 21.2245 72.4564 20.2271 71.3646 18.8216C70.8642 18.1869 70.4547 17.1442 70.4547 16.5095C70.4547 14.7413 68.908 13.4266 66.9973 13.6079C65.6325 13.6986 65.3595 13.5626 64.6317 12.1571C63.3124 9.48229 60.1734 8.75691 58.0807 10.661C57.3073 11.3411 57.2163 11.3411 56.4429 10.661C54.6232 9.02892 51.6662 9.93566 50.6199 12.4292C50.0739 13.7893 50.0739 14.1973 50.6654 15.6027C51.6207 17.9149 51.5297 20.091 50.3469 21.9045C49.3461 23.3553 49.2096 23.4459 47.3444 23.1739C45.7066 22.9472 45.2062 23.0833 44.2964 23.9447C42.9316 25.2141 42.8406 27.0729 43.9324 28.977C44.7058 30.2918 44.7058 30.2918 43.25 31.6065C41.9307 32.8306 41.8397 33.1026 42.0672 35.0068C42.3402 36.8202 42.2037 37.3189 40.6114 39.7671L38.8372 42.4873L36.972 42.2606C35.1068 41.9886 33.1506 42.6233 33.1506 43.4394C33.1506 43.7114 33.4691 43.8927 33.833 43.8927C35.1523 43.8927 35.5162 45.5249 34.6974 47.9277C33.6965 51.0106 34.3334 52.7787 37.336 55.4082C38.5643 56.4963 39.4286 57.4937 39.2012 57.6297C38.9737 57.7657 37.245 58.3098 35.4253 58.8085L32.0588 59.7605L30.421 58.6271C25.7808 55.3175 23.8246 53.5041 23.4606 52.28C23.1422 51.0559 23.2787 50.6932 24.8709 48.9704C26.4632 47.2476 26.8726 47.0663 28.7378 47.0663C29.9206 47.0663 30.876 46.8396 30.876 46.6129C30.876 46.3409 30.603 46.1596 30.2391 46.1596C29.8751 46.1596 29.4202 45.5249 29.2837 44.6635C28.4194 40.7645 25.0529 37.0469 21.5499 36.0948C20.1397 35.7322 19.5028 35.2788 19.5028 34.7801C19.5028 32.876 16.7732 32.4679 16.3183 34.2814C16.1363 35.0521 15.4994 35.5508 13.9071 36.0948C12.7243 36.5482 11.0411 37.4549 10.1312 38.1803C8.35702 39.5858 6.30984 43.394 6.30984 45.3435C6.30984 46.2956 6.08238 46.5676 5.08153 46.7036C4.44463 46.7943 3.80773 47.1116 3.67125 47.3837C3.53478 47.837 4.49013 47.973 7.35617 47.973C11.0866 47.973 11.2686 48.0184 13.9526 49.7865C16.5002 51.5093 16.7277 51.7813 17.2281 54.0028C18.2745 58.8538 18.3199 61.5287 17.4556 62.4807C16.5002 63.5235 16.7732 64.9289 18.1835 66.7424C18.9568 67.6944 19.4118 67.9211 20.2761 67.6944C21.186 67.4677 21.9139 67.9211 24.325 70.1426C26.1447 71.8654 27.9189 73.0895 29.1018 73.4068C30.6485 73.9055 30.876 74.1322 30.6485 74.9029C30.4665 75.447 30.2391 77.8952 30.1026 80.3887L29.8751 84.9677L31.7858 86.2824C33.651 87.5972 33.742 87.5972 41.4758 87.7785C49.892 88.0052 56.5339 87.3252 62.448 85.6024C64.1767 85.1037 65.7235 84.8316 65.9055 84.9223C66.0874 85.0583 66.3604 85.7837 66.5424 86.5998C66.6788 87.3705 67.4522 89.0026 68.2256 90.2267C69.0445 91.4508 69.5904 92.4935 69.4994 92.5842C68.908 93.1282 63.2669 95.2137 59.9914 96.0751C54.7597 97.4805 42.6131 97.6166 37.1085 96.3471C33.8785 95.5764 33.4691 95.3497 32.9232 94.0803C32.5137 93.2189 32.2863 92.9469 32.2408 93.4003C32.2408 94.579 31.6494 94.443 27.646 92.3122C11.4505 83.7889 1.39661 66.153 2.35196 47.7463C2.98886 35.0974 7.67462 24.806 16.8187 15.9654C23.8246 9.16493 31.4219 5.17532 40.7024 3.36186C45.0242 2.50046 54.4868 2.50046 58.9451 3.31652ZM61.1742 30.2918C63.9038 31.5159 66.3149 32.8306 66.5424 33.148C67.2702 34.2814 66.4059 36.9109 64.7681 38.407C63.1759 39.8578 62.7665 40.8552 63.6308 41.3992C63.9038 41.5352 64.0857 42.3966 64.0857 43.258C64.0857 44.1194 64.3132 44.7995 64.5407 44.7995C64.8136 44.7995 64.9956 44.3914 64.9956 43.8927C64.9956 42.85 66.8608 41.4899 68.0436 41.7166C69.1354 41.8979 70.0908 44.0287 69.7269 45.4342C69.3174 47.1116 67.9071 48.3811 66.7243 48.1544C65.7235 47.973 65.7235 47.973 66.8153 48.5171C68.3166 49.2424 68.635 49.7412 68.635 51.2826C68.635 52.824 66.9063 53.9574 62.4935 55.2722C60.1734 55.9976 58.8086 56.723 57.4893 57.9924C55.1691 60.2139 50.6199 62.0274 47.4354 62.0274C44.7513 62.0274 43.2955 61.1206 41.5213 58.3551C40.9299 57.3577 39.5651 55.9523 38.5188 55.2269C35.9257 53.3681 35.2888 52.28 35.3343 49.8772C35.3343 47.3383 35.9712 46.6129 37.1995 47.701C38.4733 48.8344 41.9762 49.7865 45.0242 49.7865C48.0268 49.7865 50.2104 50.4212 49.71 51.1919C49.528 51.5546 48.3452 51.6453 46.2526 51.5093C43.614 51.2826 43.159 51.3733 43.341 51.9173C43.4775 52.28 43.614 52.7334 43.614 52.96C43.614 53.1867 43.9324 53.6854 44.3419 54.0481C45.8431 55.5896 50.3469 54.4108 51.4842 52.1893C52.758 49.7412 57.7622 47.701 60.5828 48.4717C61.5381 48.7437 62.448 48.8344 62.5845 48.7437C63.1304 48.1997 59.7639 45.2075 58.0807 44.7541C55.7151 44.1648 54.3048 44.5274 52.3486 46.2049C51.1658 47.2476 50.4834 47.5197 49.6645 47.293C48.8001 47.1116 48.4817 47.2476 48.2997 47.9277C47.8903 49.4691 44.0689 49.5145 44.0689 47.9277C44.0689 47.4743 43.7959 47.0663 43.432 47.0663C42.6586 47.0663 42.2492 46.0689 42.2492 44.3461C42.2492 42.5326 43.5685 41.9433 46.844 42.1699C49.3006 42.3513 50.3469 41.9886 48.9821 41.4899C48.5272 41.3086 48.5272 41.1725 48.9821 40.6738C49.2551 40.3565 49.528 39.8124 49.528 39.4498C49.528 39.1324 49.0276 39.4044 48.4362 40.0845C47.5264 41.1272 46.9804 41.3539 44.9788 41.4446C42.5221 41.4899 41.3393 42.306 41.3393 43.8021C41.3393 44.3461 41.2028 44.3461 40.6569 43.8927C39.5651 42.986 39.8836 41.5352 41.5668 39.4044C42.4312 38.3163 43.159 36.9562 43.159 36.4122C43.159 35.0974 44.0234 34.3721 46.0706 34.0547C47.9813 33.7373 48.1178 33.3747 46.7075 32.4226C45.6611 31.7425 45.7066 31.6972 47.3444 31.7425C49.1186 31.7879 50.8928 30.6998 50.8928 29.521C50.8928 29.2037 51.3477 28.9317 51.9392 28.9317C52.5306 28.9317 53.3949 28.6143 53.8953 28.2516C54.9417 27.4809 54.9872 27.4809 61.1742 30.2918ZM23.0512 37.5003C26.0992 39.0417 29.1472 43.8927 27.646 44.7995C27.3275 45.0261 22.5963 45.2075 17.1826 45.2528L7.26519 45.2982L7.72012 43.8021C8.448 41.2179 10.4952 38.815 13.1338 37.4096C15.3174 36.2762 15.9998 36.1402 18.3654 36.3215C19.9122 36.4122 21.9594 36.9562 23.0512 37.5003ZM28.6013 46.0689C28.6013 46.5676 7.72012 47.157 7.03772 46.7036C6.76477 46.5223 8.40251 46.2502 10.6317 46.1142C17.4556 45.7062 28.6013 45.6609 28.6013 46.0689ZM24.507 48.1997C24.507 48.5624 24.0975 49.1064 23.5971 49.4238C22.5508 50.1038 22.4598 51.1466 23.1877 53.1867C23.6881 54.5468 23.5971 54.8188 21.8229 57.403C20.8221 58.8991 19.7757 60.2592 19.5483 60.3952C19.0933 60.7126 18.138 56.9043 18.138 54.7735C18.138 52.5974 17.4556 51.4639 15.1355 49.7865L12.9063 48.1997L17.9105 47.9277C20.6856 47.7917 23.2787 47.6557 23.7336 47.6103C24.143 47.565 24.507 47.837 24.507 48.1997ZM50.5744 52.28C50.2559 53.1867 48.0723 54.3201 46.6165 54.3201C45.3882 54.3201 43.9324 53.1414 44.3419 52.4613C44.4783 52.2347 45.2517 52.144 46.0251 52.28C46.844 52.416 48.1178 52.3253 48.8456 52.0987C50.7563 51.5093 50.8928 51.5093 50.5744 52.28ZM69.2719 55.4536C69.6814 56.0429 69.9998 56.723 69.9998 56.9497C69.9998 57.4937 57.3073 63.5235 53.6224 64.7475C51.9846 65.2916 50.4834 65.881 50.2559 66.1076C50.0285 66.3343 50.3469 67.105 51.0748 67.9211C51.9392 69.0092 52.2576 69.8706 52.2576 71.3667C52.2576 72.4548 52.1666 73.3615 52.0301 73.3615C51.2568 73.3615 49.0276 71.8654 47.9813 70.596L46.7985 69.1905L45.8431 70.3693C44.7968 71.684 42.7041 72.9081 41.5213 72.9081C40.4295 72.9081 41.0209 70.4146 42.7041 68.0571C43.4775 67.0144 44.0689 66.0623 44.0689 65.881C44.0689 65.745 43.5685 64.9289 42.9771 64.1582C42.2492 63.2061 42.0217 62.4354 42.2037 61.846C42.4766 61.1206 42.8406 61.3473 44.5693 63.5235C45.6611 64.9742 46.753 66.1076 47.0259 66.1076C47.5264 66.1076 55.4876 60.4859 58.0352 58.3551C59.4455 57.1763 60.1279 56.859 64.7681 55.3175C68.3166 54.1388 68.4076 54.1388 69.2719 55.4536ZM27.0091 56.9043L29.1927 58.5364L24.8254 62.7981C22.4143 65.1102 20.1852 67.0144 19.8212 67.0144C19.4573 67.0144 18.7294 66.3343 18.229 65.4729L17.3191 63.9315L18.9114 62.4354C19.7757 61.574 21.3225 59.6245 22.3688 58.0831C23.4151 56.4963 24.416 55.2269 24.5525 55.2269C24.6889 55.2269 25.8263 55.9523 27.0091 56.9043ZM40.7024 58.8991C41.5213 59.6699 41.6578 60.1686 41.4758 61.6193C41.2483 63.1608 41.3848 63.6141 42.5221 64.7929L43.7959 66.1076L42.2947 67.6491C41.0664 68.9185 40.7024 69.6892 40.5205 71.5027C40.3385 73.4975 40.4295 73.8149 41.1119 73.8149C41.6578 73.8149 41.7943 74.0415 41.5668 74.5856C40.7479 76.5804 40.4295 79.7539 40.7024 83.1995L40.9754 86.9625H37.9729C34.7884 86.9625 32.4227 86.2371 31.3764 85.013C30.967 84.5143 30.785 83.1542 30.785 81.114C30.8305 77.5325 32.1953 72.9081 34.7429 67.9211C36.5171 64.3849 36.79 63.3875 35.3798 65.4276C34.2424 67.105 32.2408 71.4574 32.2408 72.2734C32.2408 73.9055 28.5103 72.6361 25.0529 69.8706C21.5954 67.0597 21.6409 66.969 25.9173 62.6167C29.6477 58.8991 29.7387 58.8538 30.4665 59.7152C31.2399 60.6219 31.2399 60.6219 34.9703 59.5792C37.0175 58.9898 38.7917 58.3551 38.9282 58.2191C39.3831 57.8111 39.6106 57.9017 40.7024 58.8991ZM76.3688 63.0701C81.0091 66.9237 82.5558 68.4651 82.6468 69.3719C82.7378 70.0519 82.2829 72.4548 81.646 74.8123C81.0091 77.1244 80.4632 79.4819 80.4632 80.026C80.4632 81.4767 79.7353 81.3407 77.6881 79.4819C76.7328 78.6205 74.7311 77.3058 73.2298 76.5804L70.5457 75.2203L71.1826 72.8175C71.5011 71.5027 71.774 70.1879 71.774 69.9613C71.7285 69.0999 69.9543 73.5428 68.8625 77.3511C67.0883 83.4715 65.587 84.5596 56.5339 86.0104C50.6199 86.9625 42.5221 87.3705 41.8852 86.7811C41.7488 86.5998 41.5213 84.469 41.4303 82.0208C41.2028 76.3084 41.7033 74.6763 44.2964 72.9081C45.3882 72.1827 46.3435 71.3213 46.48 71.004C46.6165 70.596 47.2079 70.868 48.2087 71.8201C49.983 73.4522 51.3932 74.2682 52.5306 74.2682C53.7134 74.2682 53.2584 68.6918 51.9392 67.3771L50.9383 66.425L54.8962 65.1102C57.0798 64.3849 61.3107 62.4807 64.3132 60.9393C67.3157 59.3525 69.8633 58.0377 69.9998 57.9924C70.1363 57.9924 73.0023 60.2592 76.3688 63.0701ZM49.528 63.8408C47.6628 65.3823 47.3899 65.4729 46.2526 64.4302C45.0242 63.2968 45.2517 62.7981 46.9349 63.1154C47.7083 63.2514 48.7092 63.1608 49.0731 62.9341C50.6654 61.8913 51.0293 62.5714 49.528 63.8408ZM72.4109 76.8071C73.2298 77.2151 75.1405 78.4845 76.7328 79.5726C79.3258 81.3861 79.5988 81.7488 79.3258 82.7915C79.0074 84.0609 77.4151 86.5091 76.9147 86.5091C76.5508 86.5091 74.8221 85.0583 71.5466 81.9301L69.09 79.6633L69.5904 77.8498C70.2273 75.855 70.3638 75.8097 72.4109 76.8071ZM73.0478 85.6477C72.5929 86.3731 72.6384 86.5998 73.0933 86.9171C74.1397 87.5518 73.5028 88.9119 71.6376 89.864L69.9088 90.8161L68.817 89.456C68.2256 88.6853 67.4977 87.3705 67.2247 86.4638C66.7698 85.1037 66.8608 84.5143 67.6797 82.7008L68.635 80.5247L71.0916 82.6555C73.3208 84.5143 73.5483 84.877 73.0478 85.6477Z" fill="black"/>
<path d="M53.5314 30.5184C53.3494 30.6998 53.5314 31.2892 53.8954 31.8785C54.2593 32.4226 54.4413 33.1933 54.3048 33.5107C54.1228 34.0094 54.4413 34.1454 55.7606 34.0094C56.8524 33.9187 58.1262 34.1907 59.218 34.7347C60.4918 35.4148 60.9013 35.5055 60.9013 35.0068C60.9013 33.9187 59.9459 32.3319 58.7631 31.4705C57.5803 30.6091 54.0773 29.9744 53.5314 30.5184Z" fill="black"/>
<path d="M45.9796 36.2762C45.6611 36.5936 45.4337 37.319 45.4337 37.9083C45.4337 39.3591 46.9804 39.0871 47.1624 37.591C47.3899 36.2762 46.7075 35.5508 45.9796 36.2762Z" fill="black"/>
<path d="M54.9872 38.407C54.9872 39.9938 55.6696 40.5832 56.261 39.5404C56.8069 38.543 56.443 37.0923 55.6241 37.0923C55.2146 37.0923 54.9872 37.591 54.9872 38.407Z" fill="black"/>
<path d="M43.9324 75.3563C43.614 76.0817 43.9779 76.535 44.8423 76.535C45.1607 76.535 45.4337 76.127 45.4337 75.6283C45.4337 74.5856 44.2964 74.4042 43.9324 75.3563Z" fill="black"/>
<path d="M43.614 79.9353C43.614 80.298 44.0234 80.6154 44.5238 80.6154C45.0243 80.6154 45.4337 80.298 45.4337 79.9353C45.4337 79.5726 45.0243 79.2553 44.5238 79.2553C44.0234 79.2553 43.614 79.5726 43.614 79.9353Z" fill="black"/>
<path d="M44.1599 84.5143C44.3418 85.4664 45.1607 85.5571 45.3427 84.5596C45.4337 84.1063 45.2062 83.7889 44.7513 83.7889C44.2964 83.7889 44.0689 84.0609 44.1599 84.5143Z" fill="black"/>
<path d="M152.068 65.1C151.668 65.5 151.052 66.0667 150.218 66.8C149.418 67.5 148.568 68.1667 147.668 68.8C146.802 69.4333 146.068 69.8333 145.468 70C144.768 70.2 144.135 70.4167 143.568 70.65C143.002 70.8833 142.385 71.0833 141.718 71.25C141.052 71.45 140.218 71.55 139.218 71.55C137.818 71.55 136.318 71.3 134.718 70.8C133.118 70.3333 131.618 69.75 130.218 69.05C128.818 68.3833 127.685 67.7333 126.818 67.1C125.085 65.8 123.752 64.05 122.818 61.85C121.918 59.6167 121.468 57 121.468 54C121.468 53.1667 121.552 52.2667 121.718 51.3C121.885 50.3 122.085 49.3667 122.318 48.5C122.552 47.6 122.785 46.8833 123.018 46.35C123.718 44.75 124.568 43.1833 125.568 41.65C126.602 40.1167 127.935 38.8333 129.568 37.8C130.435 37.2333 131.535 36.65 132.868 36.05C134.202 35.4167 135.952 35.1 138.118 35.1C138.418 35.1 138.735 35.1167 139.068 35.15C139.402 35.15 139.735 35.1667 140.068 35.2C141.902 35.4 143.518 35.9667 144.918 36.9C146.352 37.8333 147.468 38.8167 148.268 39.85C148.635 40.3167 148.952 40.9333 149.218 41.7C149.485 42.4667 149.618 43.2833 149.618 44.15C149.618 44.55 149.585 44.95 149.518 45.35C149.485 45.75 149.385 46.15 149.218 46.55C148.818 47.7833 148.268 48.9333 147.568 50C146.902 51.0667 146.068 51.9333 145.068 52.6C144.068 53.2333 142.868 53.55 141.468 53.55C140.235 53.55 139.285 53.4667 138.618 53.3C137.952 53.1333 137.402 52.8667 136.968 52.5C136.535 52.1 136.035 51.5667 135.468 50.9C135.002 50.3333 134.685 49.7 134.518 49C134.352 48.2667 134.268 47.5833 134.268 46.95C134.268 46.3167 134.268 45.8667 134.268 45.6C134.268 44.8 134.602 44 135.268 43.2C135.968 42.3667 136.785 41.6667 137.718 41.1C138.685 40.5333 139.535 40.25 140.268 40.25C140.935 40.25 141.468 40.5167 141.868 41.05C142.268 41.55 142.552 42.1167 142.718 42.75C142.918 43.3833 143.018 43.8833 143.018 44.25C143.018 44.75 142.952 45.3167 142.818 45.95C142.685 46.5833 142.235 47.1833 141.468 47.75C141.335 47.8833 141.202 47.95 141.068 47.95C140.835 47.95 140.718 47.7833 140.718 47.45C140.718 47.2833 140.768 47.0833 140.868 46.85C140.968 46.6167 141.135 46.4167 141.368 46.25C141.635 46.05 141.802 45.8167 141.868 45.55C141.935 45.2833 141.968 45.0333 141.968 44.8C141.968 44.6 141.952 44.4167 141.918 44.25C141.918 44.05 141.918 43.8833 141.918 43.75C141.918 43.4833 141.768 43.1167 141.468 42.65C141.168 42.15 140.768 41.9 140.268 41.9C139.768 41.9 139.168 42.1 138.468 42.5C137.802 42.8667 137.218 43.3333 136.718 43.9C136.218 44.4667 135.968 45.0333 135.968 45.6C135.968 45.9333 136.168 46.45 136.568 47.15C137.002 47.85 137.485 48.5333 138.018 49.2C138.452 49.7 138.752 50.1 138.918 50.4C139.118 50.7 139.385 50.9167 139.718 51.05C140.085 51.15 140.752 51.2 141.718 51.2C143.385 51.2 144.652 50.7 145.518 49.7C146.385 48.6667 147.085 47.4333 147.618 46C147.818 45.3333 147.918 44.7 147.918 44.1C147.918 43.4333 147.818 42.8167 147.618 42.25C147.452 41.6833 147.235 41.2333 146.968 40.9C146.302 40 145.518 39.3333 144.618 38.9C143.718 38.4333 142.485 38.1333 140.918 38C140.618 37.9667 140.318 37.95 140.018 37.95C139.752 37.9167 139.485 37.9 139.218 37.9C137.218 37.9 135.618 38.2 134.418 38.8C133.252 39.4 132.235 39.95 131.368 40.45C129.868 41.35 128.668 42.5 127.768 43.9C126.868 45.3 126.085 46.7333 125.418 48.2C125.218 48.6667 125.002 49.3167 124.768 50.15C124.568 50.9833 124.402 51.85 124.268 52.75C124.135 53.65 124.068 54.4667 124.068 55.2C124.068 57.8667 124.302 60 124.768 61.6C125.235 63.2 126.252 64.5833 127.818 65.75C128.652 66.35 129.718 66.9667 131.018 67.6C132.318 68.2333 133.685 68.7667 135.118 69.2C136.585 69.6667 137.952 69.9 139.218 69.9C140.585 69.9 141.652 69.7167 142.418 69.35C143.185 69.0167 144.035 68.7 144.968 68.4C145.535 68.2333 146.252 67.9 147.118 67.4C147.985 66.9 148.818 66.3667 149.618 65.8C150.452 65.2333 151.052 64.7833 151.418 64.45C151.652 64.2167 151.885 64.1 152.118 64.1C152.318 64.1 152.418 64.2 152.418 64.4C152.418 64.6333 152.302 64.8667 152.068 65.1ZM167.96 64.85C167.093 65.8833 166.343 66.6 165.71 67C165.077 67.4 164.527 67.6 164.06 67.6C163.46 67.6 162.943 67.3667 162.51 66.9C162.11 66.4 161.76 65.8667 161.46 65.3C161.193 64.7333 160.977 64.3333 160.81 64.1C160.177 64.6667 159.427 65.2667 158.56 65.9C157.693 66.5 156.977 66.8 156.41 66.8C155.343 66.8 154.51 66.5333 153.91 66C153.31 65.4333 153.01 64.6167 153.01 63.55C153.01 62.45 153.143 61.15 153.41 59.65C153.71 58.15 154.077 56.6667 154.51 55.2C154.943 53.7 155.36 52.45 155.76 51.45C155.86 51.15 156.06 50.9 156.36 50.7C156.693 50.5 157.027 50.4 157.36 50.4C157.76 50.4 158.027 50.5 158.16 50.7C158.293 50.9 158.36 51.1333 158.36 51.4C158.36 51.7333 158.293 52.0667 158.16 52.4C158.06 52.7 158.01 52.85 158.01 52.85C157.61 53.9833 157.143 55.1667 156.61 56.4C156.11 57.6333 155.643 59.0333 155.21 60.6C155.177 60.8 155.127 61.0833 155.06 61.45C155.027 61.8167 155.01 62.2 155.01 62.6C155.01 63.1667 155.077 63.7 155.21 64.2C155.377 64.6667 155.677 64.9 156.11 64.9C156.477 64.9 156.96 64.6833 157.56 64.25C158.193 63.8167 158.827 63.2167 159.46 62.45C160.093 61.6833 160.593 60.8 160.96 59.8C161.293 58.9 161.593 57.9167 161.86 56.85C162.127 55.7833 162.36 54.7833 162.56 53.85C162.793 52.8833 163.01 52.1333 163.21 51.6C163.31 51.3667 163.46 51.25 163.66 51.25C163.927 51.25 164.16 51.35 164.36 51.55C164.593 51.75 164.677 51.9333 164.61 52.1C164.477 52.4333 164.293 52.9833 164.06 53.75C163.827 54.5167 163.593 55.3667 163.36 56.3C163.127 57.2333 162.91 58.15 162.71 59.05C162.51 59.9167 162.343 60.65 162.21 61.25C162.077 61.85 162.01 62.1833 162.01 62.25C162.01 62.75 162.06 63.2 162.16 63.6C162.26 64 162.427 64.4333 162.66 64.9C162.827 65.1667 163.027 65.4667 163.26 65.8C163.527 66.1 163.793 66.25 164.06 66.25C164.693 66.25 165.293 66.0333 165.86 65.6C166.46 65.1333 166.91 64.6833 167.21 64.25C167.443 63.8833 167.66 63.7 167.86 63.7C168.06 63.7 168.16 63.8833 168.16 64.25C168.16 64.5167 168.093 64.7167 167.96 64.85ZM181.166 63.5C180.899 64.1 180.316 64.8167 179.416 65.65C178.549 66.4833 177.516 67.2167 176.316 67.85C175.149 68.45 173.966 68.75 172.766 68.75C171.032 68.75 169.866 68.25 169.266 67.25C168.666 66.2167 168.366 64.8333 168.366 63.1C168.366 61.9333 168.466 60.5 168.666 58.8C168.866 57.1 169.166 55.2667 169.566 53.3C169.966 51.3333 170.466 49.35 171.066 47.35C171.666 45.45 172.316 43.6 173.016 41.8C173.716 40 174.766 38.4333 176.166 37.1C176.399 36.7333 176.699 36.55 177.066 36.55C177.366 36.55 177.632 36.6833 177.866 36.95C178.099 37.1833 178.199 37.4667 178.166 37.8C178.166 37.8 178.149 38.2167 178.116 39.05C178.116 39.8833 178.066 40.9 177.966 42.1C177.866 43.2667 177.716 44.3833 177.516 45.45C177.216 47.25 176.666 49.15 175.866 51.15C175.099 53.15 174.282 54.9667 173.416 56.6C172.716 57.9667 172.149 58.95 171.716 59.55C171.316 60.15 170.999 60.5833 170.766 60.85C170.566 61.1167 170.416 61.4667 170.316 61.9C170.282 62.1333 170.249 62.4 170.216 62.7C170.216 62.9667 170.216 63.25 170.216 63.55C170.216 64.15 170.249 64.7333 170.316 65.3C170.416 65.8333 170.532 66.1833 170.666 66.35C171.032 66.7167 171.432 66.9833 171.866 67.15C172.299 67.3167 172.732 67.4 173.166 67.4C173.532 67.4 173.866 67.35 174.166 67.25C175.299 66.9167 176.449 66.3667 177.616 65.6C178.816 64.8333 179.666 64.0833 180.166 63.35C180.399 63.0167 180.582 62.8 180.716 62.7C180.882 62.5667 181.016 62.5 181.116 62.5C181.282 62.5 181.366 62.6167 181.366 62.85C181.366 62.9167 181.349 63.0167 181.316 63.15C181.282 63.25 181.232 63.3667 181.166 63.5ZM176.616 39.9C176.282 39.8333 175.749 40.5667 175.016 42.1C174.316 43.6333 173.582 45.7167 172.816 48.35C172.582 49.15 172.316 50.1667 172.016 51.4C171.749 52.6333 171.482 53.9167 171.216 55.25C170.949 56.55 170.749 57.7333 170.616 58.8C171.682 56.6333 172.649 54.6833 173.516 52.95C174.382 51.2167 175.049 49.6 175.516 48.1C175.949 46.9 176.266 45.6167 176.466 44.25C176.699 42.8833 176.816 41.8 176.816 41C176.816 40.3667 176.749 40 176.616 39.9ZM190.171 47.8C189.938 47.8 189.705 47.7667 189.471 47.7C189.271 47.6 189.071 47.4833 188.871 47.35C188.438 47.15 188.221 46.7167 188.221 46.05C188.221 45.75 188.288 45.4167 188.421 45.05C188.588 44.6833 188.838 44.3333 189.171 44C189.405 43.7667 189.688 43.65 190.021 43.65C190.321 43.65 190.605 43.7667 190.871 44C191.005 44.1333 191.088 44.35 191.121 44.65C191.188 44.9167 191.221 45.2167 191.221 45.55C191.221 45.95 191.188 46.35 191.121 46.75C191.055 47.1167 190.938 47.3833 190.771 47.55C190.538 47.7167 190.338 47.8 190.171 47.8ZM185.071 67.45C183.838 67.45 182.988 67.1667 182.521 66.6C182.055 66.0333 181.821 65.35 181.821 64.55C181.821 64.1833 181.855 63.8167 181.921 63.45C181.988 63.0833 182.071 62.7167 182.171 62.35C181.838 62.95 181.321 63.65 180.621 64.45C179.921 65.2167 179.271 65.8333 178.671 66.3C178.538 66.4 178.405 66.45 178.271 66.45C178.071 66.45 177.971 66.3333 177.971 66.1C177.971 65.8333 178.071 65.6 178.271 65.4C179.671 63.9333 180.738 62.75 181.471 61.85C182.205 60.9167 182.771 60.1333 183.171 59.5C183.571 58.8667 183.955 58.2833 184.321 57.75C184.621 56.7833 184.888 55.85 185.121 54.95C185.388 54.0167 185.788 53.0667 186.321 52.1C186.488 51.8 186.821 51.65 187.321 51.65C187.655 51.65 187.955 51.7333 188.221 51.9C188.488 52.0667 188.621 52.35 188.621 52.75C188.621 52.95 188.571 53.1833 188.471 53.45C188.105 54.4833 187.705 55.3667 187.271 56.1C186.871 56.8 186.338 57.7 185.671 58.8C184.971 59.9333 184.405 61.0333 183.971 62.1C183.571 63.1667 183.371 64.0667 183.371 64.8C183.371 65.2667 183.471 65.65 183.671 65.95C183.905 66.25 184.238 66.4 184.671 66.4C185.605 66.4333 186.321 66.2833 186.821 65.95C187.321 65.5833 187.738 65.2333 188.071 64.9C188.505 64.4333 188.871 64 189.171 63.6C189.505 63.2 189.805 62.85 190.071 62.55C190.271 62.35 190.371 62.3833 190.371 62.65C190.371 62.8167 190.321 63.0333 190.221 63.3C190.155 63.5667 190.071 63.7667 189.971 63.9C189.638 64.3667 189.238 64.8833 188.771 65.45C188.338 66.0167 187.821 66.5 187.221 66.9C186.621 67.2667 185.905 67.45 185.071 67.45ZM198.55 58.9C198.55 59.6667 198.483 60.2333 198.35 60.6C198.25 60.9667 198.1 61.2667 197.9 61.5C197.733 61.7333 197.55 62 197.35 62.3C197.15 62.6 196.983 63.05 196.85 63.65C196.75 64.2167 196.7 65.05 196.7 66.15C196.7 66.5833 196.867 66.9333 197.2 67.2C197.533 67.4667 197.917 67.6 198.35 67.6C198.55 67.6 198.65 67.6667 198.65 67.8C198.65 67.9667 198.517 68.1667 198.25 68.4C198.017 68.6667 197.8 68.8 197.6 68.8C196.867 68.8 196.333 68.5167 196 67.95C195.667 67.35 195.5 66.7167 195.5 66.05C195.5 64.95 195.533 64.0833 195.6 63.45C195.667 62.7833 195.733 62.1667 195.8 61.6C195.867 61 195.883 60.2667 195.85 59.4C195.817 58.8 195.733 58.3333 195.6 58C195.467 57.6333 195.117 57.45 194.55 57.45C194.25 57.45 194.033 57.5 193.9 57.6C193.8 57.7 193.667 57.8667 193.5 58.1C193.133 58.6333 192.817 59.3833 192.55 60.35C192.317 61.2833 192.117 62.2833 191.95 63.35C191.817 64.3833 191.683 65.3167 191.55 66.15C191.45 66.95 191.35 67.4833 191.25 67.75C191.15 67.9833 191.017 68.15 190.85 68.25C190.717 68.35 190.567 68.4 190.4 68.4C190.267 68.4 190.133 68.3667 190 68.3C189.9 68.2667 189.817 68.2333 189.75 68.2C189.583 68.1 189.5 67.9333 189.5 67.7C189.5 67.4667 189.55 67.2 189.65 66.9C189.783 66.5667 189.883 66.2667 189.95 66C190.017 65.7333 190.117 65.2667 190.25 64.6C190.417 63.9 190.583 63.1833 190.75 62.45C190.917 61.6833 191.05 61.0333 191.15 60.5C191.283 59.9333 191.35 59.65 191.35 59.65C191.183 59.65 191.017 59.6667 190.85 59.7C190.683 59.7 190.517 59.7 190.35 59.7C189.85 59.7 189.6 59.5 189.6 59.1C189.6 58.8333 189.7 58.4333 189.9 57.9C190.1 57.3667 190.467 56.6667 191 55.8C191.167 55.5333 191.5 55.2 192 54.8C192.5 54.4 192.917 54.2333 193.25 54.3C193.383 54.2333 193.5 54.2 193.6 54.2C193.7 54.2 193.783 54.2 193.85 54.2C194.217 54.2 194.417 54.3333 194.45 54.6C194.517 54.8333 194.533 55.0833 194.5 55.35C194.467 55.5833 194.483 55.6833 194.55 55.65C195.017 55.45 195.483 55.35 195.95 55.35C196.65 55.35 197.25 55.6333 197.75 56.2C198.283 56.7333 198.55 57.6333 198.55 58.9ZM218.734 64.1C218.834 64 218.967 63.95 219.134 63.95C219.367 63.95 219.484 64.0667 219.484 64.3C219.484 64.4333 219.4 64.6333 219.234 64.9C219.1 65.1667 218.8 65.4833 218.334 65.85C217.867 66.25 217.384 66.6167 216.884 66.95C216.417 67.2833 215.767 67.45 214.934 67.45C214.034 67.45 213.317 67.2833 212.784 66.95C212.284 66.6167 211.917 66.25 211.684 65.85C211.484 65.4167 211.35 65.0833 211.284 64.85C210.884 65.15 210.467 65.55 210.034 66.05C209.634 66.5167 209.05 66.95 208.284 67.35C207.517 67.7167 206.417 67.9 204.984 67.9C204.184 67.9 203.45 67.7167 202.784 67.35C202.15 66.95 201.834 66.1 201.834 64.8C201.834 64.4333 201.85 64.05 201.884 63.65C201.95 63.2167 202.05 62.75 202.184 62.25C202.584 60.6833 203.05 59.45 203.584 58.55C204.117 57.65 204.917 56.9833 205.984 56.55C206.65 56.2833 207.467 56.0333 208.434 55.8C209.4 55.5667 210.25 55.3667 210.984 55.2C211.217 55.1333 211.417 54.9167 211.584 54.55C211.784 54.15 212 53.7833 212.234 53.45C212.367 53.2833 212.517 53.15 212.684 53.05C212.85 52.9167 213.034 52.85 213.234 52.85C213.4 52.85 213.617 52.9333 213.884 53.1C214.117 53.2667 214.267 53.5833 214.334 54.05C214.434 54.5167 214.484 54.95 214.484 55.35C214.45 55.55 214.367 55.8 214.234 56.1C214.134 56.3667 214.05 56.6667 213.984 57C213.917 57.4333 213.75 58.05 213.484 58.85C213.217 59.65 213.084 60.3167 213.084 60.85C213.084 61.3167 213.05 61.9 212.984 62.6C212.917 63.2667 212.917 63.7333 212.984 64C213.35 64.8 213.867 65.3333 214.534 65.6C215.2 65.8333 215.784 65.9 216.284 65.8C216.65 65.7333 217.067 65.5167 217.534 65.15C218 64.7833 218.4 64.4333 218.734 64.1ZM210.634 58.4C210.567 58.1333 210.4 57.85 210.134 57.55C209.9 57.25 209.6 57.1 209.234 57.1C209.167 57.1 209.034 57.1333 208.834 57.2C208.267 57.4 207.667 57.7833 207.034 58.35C206.4 58.8833 205.85 59.5833 205.384 60.45C204.917 61.3167 204.65 62.3333 204.584 63.5C204.584 63.8333 204.684 64.2667 204.884 64.8C205.117 65.3333 205.417 65.7833 205.784 66.15C206.15 66.5167 206.517 66.6167 206.884 66.45C207.684 66.1167 208.35 65.65 208.884 65.05C209.45 64.4167 209.917 63.65 210.284 62.75C210.45 62.3167 210.567 61.8667 210.634 61.4C210.734 60.9 210.784 60.4333 210.784 60C210.784 59.6 210.767 59.2667 210.734 59C210.7 58.7 210.667 58.5 210.634 58.4Z" fill="black"/>
</svg>
