<svg width="244" height="246" viewBox="0 0 244 246" fill="none" xmlns="http://www.w3.org/2000/svg">
<path d="M114.875 1.3226C89.8263 3.3226 66.773 11.9893 47.1555 26.767C26.873 42.1004 10.3588 67.4337 3.59798 93.8782C-1.16785 112.323 -0.724518 139.323 4.70632 157.545C24.878 224.878 94.703 261.434 160.87 239.434C199.551 226.545 229.144 194.878 240.227 154.545C244.106 140.545 245.104 116.545 242.444 102.211C232.136 47.4337 188.8 7.3226 133.716 1.76704C127.177 1.10037 121.192 0.655929 120.527 0.767041C119.862 0.878152 117.313 1.10037 114.875 1.3226ZM143.913 8.87815C187.914 17.2115 222.161 49.2115 234.796 93.4337C237.678 103.767 237.9 105.656 237.789 124.434C237.678 142.767 237.456 145.211 234.685 154.434C230.917 167.1 224.489 180.656 217.506 190.878C211.854 199.1 198 213.656 196.891 212.656C196.226 211.878 200.105 188.434 202.433 179.434C205.315 168.434 205.315 168.545 192.79 158.323C176.941 145.434 174.281 142.878 171.954 137.434C170.845 134.878 169.405 132.767 168.85 132.767C167.41 132.767 168.629 120.323 170.291 118.323C171.067 117.434 172.065 115.656 172.397 114.323C172.84 112.989 174.281 111.434 175.833 110.767C178.382 109.545 180.71 104.545 179.269 103.1C178.936 102.767 179.601 101.1 180.82 99.4337C182.04 97.6559 183.037 94.8782 183.037 92.9893C183.037 88.8782 178.604 83.8782 174.835 83.8782C173.284 83.8782 170.845 82.6559 169.294 81.1004C167.742 79.5448 165.415 78.3226 164.085 78.3226C161.868 78.3226 161.757 77.8782 162.422 73.767C163.641 66.3226 167.41 58.5448 170.07 57.9893C172.508 57.5448 172.508 57.5448 170.07 57.3226C166.745 57.2115 162.422 63.6559 160.87 71.3226C160.095 74.5448 159.43 77.2115 159.208 77.2115C158.21 77.2115 148.568 72.8782 136.82 66.9893C123.076 60.2115 120.97 58.2115 124.739 55.1004C127.177 52.9893 128.064 42.2115 126.069 39.2115C123.63 35.767 123.852 32.1004 126.512 29.4337C129.615 26.3226 134.049 26.6559 137.817 30.2115C140.255 32.5448 140.92 32.767 140.92 31.3226C140.92 29.1004 145.132 26.1004 148.235 26.1004C151.45 26.1004 157.545 31.2115 157.545 33.8782C157.545 35.6559 158.321 35.9893 162.09 35.767C167.964 35.5448 171.4 39.1004 170.513 44.6559C170.07 47.3226 170.291 48.3226 171.4 48.3226C173.949 48.3226 175.5 52.3226 174.17 55.2115C172.951 57.6559 173.062 57.6559 174.614 55.6559C176.941 52.767 176.83 50.3226 174.17 46.8782C172.951 45.3226 171.954 42.767 171.954 41.2115C171.954 36.8782 168.185 33.6559 163.53 34.1004C160.205 34.3226 159.54 33.9893 157.767 30.5448C154.553 23.9893 146.905 22.2115 141.807 26.8782C139.923 28.5448 139.701 28.5448 137.817 26.8782C133.384 22.8782 126.18 25.1004 123.63 31.2115C122.3 34.5448 122.3 35.5448 123.741 38.9893C126.069 44.6559 125.847 49.9893 122.965 54.4337C120.527 57.9893 120.195 58.2115 115.65 57.5448C111.66 56.9893 110.441 57.3226 108.225 59.4337C104.9 62.5448 104.678 67.1004 107.338 71.767C109.222 74.9893 109.222 74.9893 105.675 78.2115C102.461 81.2115 102.24 81.8782 102.794 86.5448C103.459 90.9893 103.126 92.2115 99.2472 98.2115L94.9247 104.878L90.3805 104.323C85.8363 103.656 81.0705 105.211 81.0705 107.211C81.0705 107.878 81.8463 108.323 82.733 108.323C85.9472 108.323 86.8338 112.323 84.8388 118.211C82.4005 125.767 83.9522 130.1 91.2672 136.545C94.2597 139.211 96.3655 141.656 95.8113 141.989C95.2572 142.323 91.0455 143.656 86.6122 144.878L78.4105 147.211L74.4205 144.434C63.1155 136.323 58.3497 131.878 57.463 128.878C56.6872 125.878 57.0197 124.989 60.8988 120.767C64.778 116.545 65.7755 116.1 70.3197 116.1C73.2013 116.1 75.5288 115.545 75.5288 114.989C75.5288 114.323 74.8638 113.878 73.9772 113.878C73.0905 113.878 71.9822 112.323 71.6497 110.211C69.5438 100.656 61.3421 91.5448 52.808 89.2115C49.3721 88.3226 47.8205 87.2115 47.8205 85.9893C47.8205 81.3226 41.1705 80.3226 40.0621 84.767C39.6188 86.6559 38.0671 87.8782 34.188 89.2115C31.3063 90.3226 27.2055 92.5448 24.9888 94.3226C20.6663 97.767 15.6788 107.1 15.6788 111.878C15.6788 114.211 15.1246 114.878 12.6863 115.211C11.1346 115.434 9.58298 116.211 9.25048 116.878C8.91798 117.989 11.2455 118.323 18.228 118.323C27.3163 118.323 27.7596 118.434 34.2988 122.767C40.5055 126.989 41.0596 127.656 42.2788 133.1C44.828 144.989 44.9388 151.545 42.833 153.878C40.5055 156.434 41.1705 159.878 44.6063 164.323C46.4905 166.656 47.5988 167.211 49.7046 166.656C51.9213 166.1 53.6947 167.211 59.5688 172.656C64.0022 176.878 68.3247 179.878 71.2063 180.656C74.9747 181.878 75.5288 182.434 74.9747 184.323C74.5313 185.656 73.9772 191.656 73.6447 197.767L73.0905 208.989L77.7455 212.211C82.2897 215.434 82.5113 215.434 101.353 215.878C121.857 216.434 138.039 214.767 152.447 210.545C156.659 209.323 160.427 208.656 160.87 208.878C161.314 209.211 161.979 210.989 162.422 212.989C162.755 214.878 164.639 218.878 166.523 221.878C168.518 224.878 169.848 227.434 169.626 227.656C168.185 228.989 154.442 234.1 146.462 236.211C133.716 239.656 104.124 239.989 90.713 236.878C82.8438 234.989 81.8463 234.434 80.5163 231.323C79.5188 229.211 78.9647 228.545 78.8538 229.656C78.8538 232.545 77.413 232.211 67.6597 226.989C28.203 206.1 3.70882 162.878 6.03632 117.767C7.58798 86.767 19.0038 61.5448 41.2813 39.8782C58.3496 23.2115 76.8588 13.4337 99.4688 8.98926C109.998 6.87815 133.051 6.87815 143.913 8.87815ZM149.344 74.9893C155.994 77.9893 161.868 81.2115 162.422 81.9893C164.195 84.767 162.09 91.2115 158.1 94.8782C154.22 98.4337 153.223 100.878 155.329 102.211C155.994 102.545 156.437 104.656 156.437 106.767C156.437 108.878 156.991 110.545 157.545 110.545C158.21 110.545 158.654 109.545 158.654 108.323C158.654 105.767 163.198 102.434 166.08 102.989C168.74 103.434 171.067 108.656 170.18 112.1C169.183 116.211 165.747 119.323 162.865 118.767C160.427 118.323 160.427 118.323 163.087 119.656C166.745 121.434 167.52 122.656 167.52 126.434C167.52 130.211 163.309 132.989 152.558 136.211C146.905 137.989 143.58 139.767 140.366 142.878C134.714 148.323 123.63 152.767 115.872 152.767C109.333 152.767 105.786 150.545 101.464 143.767C100.023 141.323 96.698 137.878 94.1488 136.1C87.8313 131.545 86.2797 128.878 86.3905 122.989C86.3905 116.767 87.9422 114.989 90.9347 117.656C94.038 120.434 102.572 122.767 109.998 122.767C117.313 122.767 122.633 124.323 121.414 126.211C120.97 127.1 118.089 127.323 112.99 126.989C106.562 126.434 105.454 126.656 105.897 127.989C106.23 128.878 106.562 129.989 106.562 130.545C106.562 131.1 107.338 132.323 108.335 133.211C111.993 136.989 122.965 134.1 125.736 128.656C128.84 122.656 141.031 117.656 147.903 119.545C150.23 120.211 152.447 120.434 152.78 120.211C154.11 118.878 145.908 111.545 141.807 110.434C136.044 108.989 132.608 109.878 127.842 113.989C124.96 116.545 123.298 117.211 121.303 116.656C119.197 116.211 118.421 116.545 117.978 118.211C116.98 121.989 107.67 122.1 107.67 118.211C107.67 117.1 107.005 116.1 106.119 116.1C104.235 116.1 103.237 113.656 103.237 109.434C103.237 104.989 106.451 103.545 114.431 104.1C120.416 104.545 122.965 103.656 119.64 102.434C118.532 101.989 118.532 101.656 119.64 100.434C120.305 99.6559 120.97 98.3226 120.97 97.4337C120.97 96.6559 119.751 97.3226 118.31 98.9893C116.094 101.545 114.764 102.1 109.887 102.323C103.902 102.434 101.02 104.434 101.02 108.1C101.02 109.434 100.688 109.434 99.358 108.323C96.698 106.1 97.4738 102.545 101.575 97.3226C103.68 94.6559 105.454 91.3226 105.454 89.9893C105.454 86.767 107.56 84.9893 112.547 84.2115C117.202 83.4337 117.535 82.5448 114.099 80.2115C111.55 78.5448 111.66 78.4337 115.65 78.5448C119.973 78.6559 124.295 75.9893 124.295 73.1004C124.295 72.3226 125.404 71.6559 126.845 71.6559C128.285 71.6559 130.391 70.8782 131.61 69.9893C134.16 68.1004 134.27 68.1004 149.344 74.9893ZM56.4655 92.6559C63.8913 96.4337 71.3172 108.323 67.6597 110.545C66.8838 111.1 55.3571 111.545 42.168 111.656L18.0063 111.767L19.1146 108.1C20.888 101.767 25.8755 95.8782 32.3038 92.4337C37.6238 89.6559 39.2863 89.3226 45.0496 89.767C48.818 89.9893 53.8055 91.3226 56.4655 92.6559ZM69.9872 113.656C69.9872 114.878 19.1146 116.323 17.4521 115.211C16.7871 114.767 20.7771 114.1 26.208 113.767C42.833 112.767 69.9872 112.656 69.9872 113.656ZM60.0122 118.878C60.0122 119.767 59.0147 121.1 57.7955 121.878C55.2463 123.545 55.0246 126.1 56.798 131.1C58.0171 134.434 57.7955 135.1 53.473 141.434C51.0346 145.1 48.4855 148.434 47.9313 148.767C46.823 149.545 44.4955 140.211 44.4955 134.989C44.4955 129.656 42.833 126.878 37.1805 122.767L31.7496 118.878L43.9413 118.211C50.7021 117.878 57.0197 117.545 58.128 117.434C59.1255 117.323 60.0122 117.989 60.0122 118.878ZM123.52 128.878C122.744 131.1 117.424 133.878 113.877 133.878C110.885 133.878 107.338 130.989 108.335 129.323C108.668 128.767 110.552 128.545 112.436 128.878C114.431 129.211 117.535 128.989 119.308 128.434C123.963 126.989 124.295 126.989 123.52 128.878ZM169.072 136.656C170.07 138.1 170.845 139.767 170.845 140.323C170.845 141.656 139.923 156.434 130.945 159.434C126.955 160.767 123.298 162.211 122.744 162.767C122.19 163.323 122.965 165.211 124.739 167.211C126.845 169.878 127.62 171.989 127.62 175.656C127.62 178.323 127.399 180.545 127.066 180.545C125.182 180.545 119.751 176.878 117.202 173.767L114.32 170.323L111.993 173.211C109.444 176.434 104.345 179.434 101.464 179.434C98.8038 179.434 100.245 173.323 104.345 167.545C106.23 164.989 107.67 162.656 107.67 162.211C107.67 161.878 106.451 159.878 105.01 157.989C103.237 155.656 102.683 153.767 103.126 152.323C103.791 150.545 104.678 151.1 108.89 156.434C111.55 159.989 114.21 162.767 114.875 162.767C116.094 162.767 135.49 148.989 141.696 143.767C145.132 140.878 146.795 140.1 158.1 136.323C166.745 133.434 166.966 133.434 169.072 136.656ZM66.108 140.211L71.428 144.211L60.788 154.656C54.9138 160.323 49.483 164.989 48.5963 164.989C47.7096 164.989 45.9363 163.323 44.7171 161.211L42.5005 157.434L46.3796 153.767C48.4855 151.656 52.2538 146.878 54.803 143.1C57.3521 139.211 59.7905 136.1 60.123 136.1C60.4555 136.1 63.2263 137.878 66.108 140.211ZM99.4688 145.1C101.464 146.989 101.796 148.211 101.353 151.767C100.799 155.545 101.131 156.656 103.902 159.545L107.005 162.767L103.348 166.545C100.355 169.656 99.4688 171.545 99.0255 175.989C98.5822 180.878 98.8038 181.656 100.466 181.656C101.796 181.656 102.129 182.211 101.575 183.545C99.5797 188.434 98.8038 196.211 99.4688 204.656L100.134 213.878H92.8188C85.0605 213.878 79.2972 212.1 76.748 209.1C75.7505 207.878 75.3072 204.545 75.3072 199.545C75.418 190.767 78.743 179.434 84.9497 167.211C89.2722 158.545 89.9372 156.1 86.5013 161.1C83.7305 165.211 78.8538 175.878 78.8538 177.878C78.8538 181.878 69.7655 178.767 61.3422 171.989C52.9188 165.1 53.0297 164.878 63.448 154.211C72.5363 145.1 72.758 144.989 74.5313 147.1C76.4155 149.323 76.4155 149.323 85.5038 146.767C90.4913 145.323 94.8138 143.767 95.1463 143.434C96.2547 142.434 96.8088 142.656 99.4688 145.1ZM186.362 155.323C197.667 164.767 201.435 168.545 201.657 170.767C201.879 172.434 200.77 178.323 199.219 184.1C197.667 189.767 196.337 195.545 196.337 196.878C196.337 200.434 194.564 200.1 189.576 195.545C187.249 193.434 182.372 190.211 178.715 188.434L172.175 185.1L173.727 179.211C174.503 175.989 175.168 172.767 175.168 172.211C175.057 170.1 170.735 180.989 168.075 190.323C163.752 205.323 160.095 207.989 138.039 211.545C123.63 213.878 103.902 214.878 102.35 213.434C102.018 212.989 101.464 207.767 101.242 201.767C100.688 187.767 101.907 183.767 108.225 179.434C110.885 177.656 113.212 175.545 113.545 174.767C113.877 173.767 115.318 174.434 117.756 176.767C122.079 180.767 125.515 182.767 128.285 182.767C131.167 182.767 130.059 169.1 126.845 165.878L124.406 163.545L134.049 160.323C139.369 158.545 149.676 153.878 156.991 150.1C164.306 146.211 170.513 142.989 170.845 142.878C171.178 142.878 178.16 148.434 186.362 155.323ZM120.97 157.211C116.426 160.989 115.761 161.211 112.99 158.656C109.998 155.878 110.552 154.656 114.653 155.434C116.537 155.767 118.975 155.545 119.862 154.989C123.741 152.434 124.628 154.1 120.97 157.211ZM176.72 188.989C178.715 189.989 183.37 193.1 187.249 195.767C193.566 200.211 194.231 201.1 193.566 203.656C192.79 206.767 188.911 212.767 187.692 212.767C186.805 212.767 182.594 209.211 174.614 201.545L168.629 195.989L169.848 191.545C171.4 186.656 171.732 186.545 176.72 188.989ZM178.271 210.656C177.163 212.434 177.274 212.989 178.382 213.767C180.931 215.323 179.38 218.656 174.835 220.989L170.624 223.323L167.964 219.989C166.523 218.1 164.75 214.878 164.085 212.656C162.976 209.323 163.198 207.878 165.193 203.434L167.52 198.1L173.505 203.323C178.936 207.878 179.49 208.767 178.271 210.656Z" fill="black"/>
<path d="M130.724 75.5448C130.281 75.9892 130.724 77.4337 131.611 78.8781C132.497 80.2115 132.941 82.1003 132.608 82.8781C132.165 84.1003 132.941 84.4337 136.155 84.1003C138.815 83.8781 141.918 84.5448 144.578 85.8781C147.681 87.5448 148.679 87.767 148.679 86.5448C148.679 83.8781 146.351 79.9892 143.47 77.8781C140.588 75.767 132.054 74.2115 130.724 75.5448Z" fill="black"/>
<path d="M112.325 89.6559C111.55 90.4337 110.995 92.2115 110.995 93.6559C110.995 97.2115 114.764 96.5448 115.207 92.8781C115.761 89.6559 114.099 87.8781 112.325 89.6559Z" fill="black"/>
<path d="M134.271 94.8781C134.271 98.767 135.933 100.211 137.374 97.6559C138.704 95.2115 137.817 91.6559 135.822 91.6559C134.825 91.6559 134.271 92.8781 134.271 94.8781Z" fill="black"/>
<path d="M107.338 185.434C106.562 187.211 107.449 188.323 109.555 188.323C110.331 188.323 110.996 187.323 110.996 186.1C110.996 183.545 108.225 183.1 107.338 185.434Z" fill="black"/>
<path d="M106.562 196.656C106.562 197.545 107.56 198.323 108.779 198.323C109.998 198.323 110.995 197.545 110.995 196.656C110.995 195.767 109.998 194.989 108.779 194.989C107.56 194.989 106.562 195.767 106.562 196.656Z" fill="black"/>
<path d="M107.892 207.878C108.335 210.211 110.33 210.434 110.774 207.989C110.995 206.878 110.441 206.1 109.333 206.1C108.225 206.1 107.67 206.767 107.892 207.878Z" fill="black"/>
</svg>
