<svg width="185" height="37" viewBox="0 0 185 37" fill="none" xmlns="http://www.w3.org/2000/svg">
<path d="M166.5 0L170.654 12.7832H184.095L173.221 20.6836L177.374 33.4668L166.5 25.5664L155.626 33.4668L159.779 20.6836L148.905 12.7832H162.346L166.5 0Z" fill="#FAFF00"/>
<path d="M129.5 0L133.654 12.7832H147.095L136.221 20.6836L140.374 33.4668L129.5 25.5664L118.626 33.4668L122.779 20.6836L111.905 12.7832H125.346L129.5 0Z" fill="#FAFF00"/>
<path d="M92.5 0L96.6535 12.7832H110.095L99.2205 20.6836L103.374 33.4668L92.5 25.5664L81.626 33.4668L85.7795 20.6836L74.9055 12.7832H88.3465L92.5 0Z" fill="#FAFF00"/>
<path d="M55.5 0L59.6535 12.7832H73.0945L62.2205 20.6836L66.374 33.4668L55.5 25.5664L44.626 33.4668L48.7795 20.6836L37.9055 12.7832H51.3465L55.5 0Z" fill="#FAFF00"/>
<path d="M18.5 0L22.6535 12.7832H36.0945L25.2205 20.6836L29.374 33.4668L18.5 25.5664L7.62597 33.4668L11.7795 20.6836L0.905455 12.7832H14.3465L18.5 0Z" fill="#FAFF00"/>
</svg>
