<svg width="39" height="38" viewBox="0 0 39 38" fill="none" xmlns="http://www.w3.org/2000/svg">
<ellipse cx="19.5" cy="19" rx="19.5" ry="19" fill="#D9D9D9"/>
<path d="M30.2115 7.52772C29.9026 7.26468 29.5289 7.09186 29.1304 7.0278C28.732 6.96374 28.3238 7.01087 27.9498 7.16412L5.12386 16.4258C4.79113 16.5659 4.5068 16.8028 4.30677 17.1066C4.10675 17.4104 4 17.7674 4 18.1327C4 18.4979 4.10675 18.855 4.30677 19.1588C4.5068 19.4625 4.79113 19.6994 5.12386 19.8396L6.59844 20.4557C6.84156 20.5599 7.11557 20.5621 7.36028 20.4617C7.605 20.3614 7.80042 20.1667 7.90363 19.9204C7.95426 19.7977 7.98051 19.6661 7.98086 19.5332C7.98121 19.4002 7.95566 19.2685 7.90567 19.1455C7.85568 19.0226 7.78225 18.9109 7.68957 18.8168C7.59689 18.7227 7.4868 18.6481 7.36561 18.5973L6.26965 18.1428L28.6971 9.05281C28.7315 9.03138 28.7712 9.02004 28.8116 9.02004C28.8521 9.02004 28.8917 9.03138 28.9262 9.05281C28.9587 9.0808 28.9833 9.1171 28.9973 9.15795C29.0113 9.1988 29.0143 9.2427 29.0059 9.28511L24.911 28.6568C24.8976 28.7258 24.8666 28.79 24.8212 28.8432C24.7758 28.8963 24.7174 28.9365 24.652 28.9598C24.5877 28.9856 24.5179 28.9937 24.4496 28.983C24.3813 28.9723 24.317 28.9434 24.2634 28.8992L16.2927 22.5968L24.094 14.6078C24.2607 14.4325 24.3593 14.2021 24.3717 13.959C24.3841 13.7159 24.3094 13.4764 24.1615 13.2847C24.0136 13.0929 23.8023 12.9618 23.5665 12.9154C23.3308 12.869 23.0865 12.9105 22.8785 13.0322L11.4406 19.9002C11.3136 19.9584 11.2 20.0429 11.1072 20.1484C11.0145 20.2539 10.9446 20.378 10.902 20.5126C10.8595 20.6471 10.8454 20.7893 10.8604 20.9298C10.8755 21.0703 10.9195 21.206 10.9896 21.3282C11.0597 21.4503 11.1543 21.5562 11.2672 21.639C11.3802 21.7218 11.5091 21.7797 11.6455 21.8088C11.7819 21.838 11.9228 21.8377 12.0592 21.8082C12.1955 21.7787 12.3242 21.7205 12.4369 21.6373L17.2492 18.7589L14.9078 21.1727C14.6936 21.3768 14.5266 21.6263 14.4187 21.9034C14.3109 22.1806 14.2648 22.4785 14.2838 22.7758C14.3029 23.0731 14.3866 23.3624 14.5289 23.6231C14.6712 23.8838 14.8687 24.1093 15.1071 24.2835L23.0778 30.495C23.4973 30.8232 24.0125 31.0008 24.5424 31C24.8245 30.9979 25.1043 30.9467 25.3693 30.8485C25.7499 30.71 26.0891 30.4747 26.3542 30.1652C26.6194 29.8558 26.8017 29.4824 26.8837 29.081L30.9488 9.72951C31.0351 9.32923 31.012 8.91268 30.8821 8.52471C30.7522 8.13673 30.5203 7.79203 30.2115 7.52772Z" fill="black"/>
</svg>
